G04*
G04 #@! TF.GenerationSoftware,Altium Limited,Altium Designer,21.0.8 (223)*
G04*
G04 Layer_Color=65535*
%FSLAX44Y44*%
%MOMM*%
G71*
G04*
G04 #@! TF.SameCoordinates,C2A7A69F-71F9-4D7C-9BA5-24E23DD16346*
G04*
G04*
G04 #@! TF.FilePolarity,Positive*
G04*
G01*
G75*
%ADD10C,0.2500*%
%ADD11C,0.2000*%
%ADD12C,0.1500*%
G36*
X887250Y843500D02*
X886500Y846500D01*
X888000D01*
X891000Y843500D01*
Y841500D01*
X887250Y843500D01*
D02*
G37*
G36*
X984175Y858068D02*
X984309D01*
X984443Y858054D01*
X984740Y857994D01*
X984755D01*
X984814Y857979D01*
X984889Y857964D01*
X984978Y857950D01*
X985216Y857890D01*
X985453Y857816D01*
X985468D01*
X985513Y857801D01*
X985557Y857771D01*
X985632Y857741D01*
X985810Y857667D01*
X985973Y857578D01*
X985988D01*
X986003Y857563D01*
X986092Y857504D01*
X986181Y857444D01*
X986256Y857385D01*
X986271Y857370D01*
X986300Y857340D01*
X986330Y857281D01*
X986360Y857207D01*
X986375Y857192D01*
X986389Y857132D01*
X986404Y857028D01*
Y856895D01*
Y856880D01*
Y856835D01*
Y856776D01*
X986389Y856701D01*
Y856687D01*
X986375Y856657D01*
X986345Y856553D01*
Y856538D01*
X986330Y856523D01*
X986285Y856464D01*
X986271D01*
X986211Y856449D01*
X986196D01*
X986152Y856464D01*
X986077Y856493D01*
X985958Y856553D01*
X985929Y856568D01*
X985840Y856627D01*
X985691Y856716D01*
X985498Y856805D01*
X985483D01*
X985453Y856835D01*
X985394Y856865D01*
X985305Y856895D01*
X985201Y856939D01*
X985097Y856984D01*
X984963Y857028D01*
X984814Y857073D01*
X984799D01*
X984740Y857088D01*
X984666Y857117D01*
X984547Y857132D01*
X984413Y857162D01*
X984250Y857177D01*
X984071Y857192D01*
X983774D01*
X983641Y857177D01*
X983492Y857162D01*
X983299Y857132D01*
X983105Y857088D01*
X982897Y857028D01*
X982704Y856954D01*
X982690Y856939D01*
X982615Y856909D01*
X982526Y856850D01*
X982407Y856776D01*
X982273Y856687D01*
X982125Y856568D01*
X981976Y856434D01*
X981828Y856285D01*
X981813Y856271D01*
X981768Y856211D01*
X981709Y856122D01*
X981620Y856003D01*
X981531Y855854D01*
X981441Y855691D01*
X981352Y855498D01*
X981278Y855290D01*
Y855260D01*
X981248Y855186D01*
X981218Y855067D01*
X981189Y854918D01*
X981159Y854725D01*
X981129Y854517D01*
X981114Y854294D01*
X981100Y854042D01*
Y854027D01*
Y854012D01*
Y853967D01*
Y853908D01*
X981114Y853774D01*
X981129Y853596D01*
X981144Y853373D01*
X981189Y853150D01*
X981233Y852912D01*
X981308Y852690D01*
X981322Y852660D01*
X981352Y852600D01*
X981397Y852482D01*
X981456Y852348D01*
X981545Y852199D01*
X981635Y852036D01*
X981753Y851872D01*
X981887Y851709D01*
X981902Y851694D01*
X981946Y851649D01*
X982036Y851575D01*
X982140Y851486D01*
X982259Y851382D01*
X982407Y851278D01*
X982586Y851189D01*
X982764Y851100D01*
X982794Y851085D01*
X982853Y851070D01*
X982957Y851040D01*
X983105Y851010D01*
X983269Y850966D01*
X983462Y850936D01*
X983685Y850921D01*
X983908Y850906D01*
X984042D01*
X984131Y850921D01*
X984250D01*
X984369Y850936D01*
X984636Y850981D01*
X984651D01*
X984695Y850996D01*
X984770Y851025D01*
X984874Y851055D01*
X984978Y851085D01*
X985097Y851129D01*
X985349Y851248D01*
Y853551D01*
X983492D01*
X983447Y853566D01*
X983403Y853596D01*
X983358Y853641D01*
Y853655D01*
X983343Y853715D01*
X983328Y853819D01*
X983314Y853967D01*
Y853982D01*
Y854042D01*
Y854101D01*
Y854161D01*
Y854175D01*
X983328Y854205D01*
X983343Y854250D01*
X983358Y854294D01*
Y854309D01*
X983373Y854324D01*
X983418Y854383D01*
X983432D01*
X983447Y854398D01*
X983507Y854413D01*
X986062D01*
X986137Y854383D01*
X986152D01*
X986181Y854369D01*
X986256Y854309D01*
X986271Y854294D01*
X986285Y854279D01*
X986315Y854235D01*
X986345Y854175D01*
X986360Y854161D01*
X986375Y854116D01*
X986389Y854056D01*
Y853982D01*
Y850981D01*
Y850951D01*
Y850891D01*
X986360Y850802D01*
X986330Y850713D01*
X986315Y850698D01*
X986285Y850639D01*
X986211Y850580D01*
X986092Y850505D01*
X986077D01*
X986062Y850490D01*
X986018Y850475D01*
X985973Y850446D01*
X985825Y850386D01*
X985632Y850312D01*
X985617D01*
X985587Y850297D01*
X985527Y850282D01*
X985468Y850253D01*
X985275Y850193D01*
X985067Y850134D01*
X985052D01*
X985022Y850119D01*
X984963D01*
X984874Y850104D01*
X984681Y850074D01*
X984458Y850045D01*
X984413D01*
X984354Y850030D01*
X984279D01*
X984086Y850015D01*
X983863Y850000D01*
X983715D01*
X983626Y850015D01*
X983536D01*
X983314Y850030D01*
X983061Y850074D01*
X982779Y850119D01*
X982496Y850193D01*
X982214Y850282D01*
X982199D01*
X982184Y850297D01*
X982095Y850342D01*
X981961Y850401D01*
X981798Y850490D01*
X981605Y850609D01*
X981412Y850743D01*
X981204Y850906D01*
X981010Y851085D01*
X980995Y851114D01*
X980936Y851174D01*
X980847Y851293D01*
X980728Y851441D01*
X980609Y851620D01*
X980490Y851828D01*
X980357Y852065D01*
X980253Y852333D01*
Y852348D01*
X980238Y852363D01*
X980223Y852407D01*
X980208Y852467D01*
X980178Y852615D01*
X980134Y852808D01*
X980074Y853046D01*
X980045Y853328D01*
X980015Y853641D01*
X980000Y853967D01*
Y853982D01*
Y854012D01*
Y854056D01*
Y854131D01*
X980015Y854205D01*
Y854309D01*
X980030Y854532D01*
X980074Y854799D01*
X980119Y855082D01*
X980193Y855364D01*
X980282Y855661D01*
Y855676D01*
X980297Y855691D01*
X980312Y855736D01*
X980342Y855795D01*
X980401Y855929D01*
X980490Y856107D01*
X980594Y856315D01*
X980728Y856523D01*
X980891Y856746D01*
X981070Y856954D01*
X981100Y856984D01*
X981159Y857043D01*
X981278Y857132D01*
X981426Y857266D01*
X981605Y857400D01*
X981813Y857533D01*
X982050Y857667D01*
X982303Y857786D01*
X982318D01*
X982333Y857801D01*
X982377Y857816D01*
X982437Y857831D01*
X982586Y857875D01*
X982779Y857935D01*
X983016Y857994D01*
X983284Y858039D01*
X983581Y858068D01*
X983908Y858083D01*
X984071D01*
X984175Y858068D01*
D02*
G37*
G36*
X994027Y857979D02*
X994042D01*
X994086Y857964D01*
X994146Y857950D01*
X994190Y857935D01*
X994205D01*
X994220Y857920D01*
X994279Y857860D01*
X994294Y857846D01*
X994309Y857786D01*
Y850535D01*
Y850520D01*
Y850461D01*
X994294Y850401D01*
X994265Y850327D01*
X994250Y850312D01*
X994235Y850282D01*
X994146Y850178D01*
X994131D01*
X994101Y850149D01*
X994057Y850134D01*
X993997Y850104D01*
X993953D01*
X993849Y850089D01*
X993403D01*
X993314Y850104D01*
X993210Y850119D01*
X993195D01*
X993135Y850149D01*
X993061Y850178D01*
X992972Y850238D01*
X992957Y850253D01*
X992913Y850297D01*
X992838Y850371D01*
X992764Y850475D01*
Y850490D01*
X992749Y850505D01*
X992690Y850594D01*
X992615Y850713D01*
X992526Y850877D01*
X990104Y855349D01*
X990089Y855364D01*
X990074Y855409D01*
X990045Y855483D01*
X989985Y855572D01*
X989941Y855676D01*
X989866Y855795D01*
X989733Y856062D01*
X989718Y856077D01*
X989703Y856122D01*
X989658Y856211D01*
X989614Y856300D01*
X989554Y856419D01*
X989495Y856538D01*
X989376Y856805D01*
X989361D01*
Y856791D01*
Y856731D01*
Y856642D01*
X989376Y856538D01*
Y856404D01*
Y856241D01*
Y855914D01*
Y855899D01*
Y855840D01*
Y855750D01*
X989391Y855632D01*
Y855498D01*
Y855349D01*
Y855007D01*
Y850267D01*
Y850238D01*
X989361Y850178D01*
X989346Y850149D01*
X989272Y850119D01*
X989257D01*
X989227Y850104D01*
X989183D01*
X989109Y850089D01*
X989049D01*
X988960Y850074D01*
X988692D01*
X988603Y850089D01*
X988588D01*
X988559Y850104D01*
X988455Y850119D01*
X988440D01*
X988425Y850134D01*
X988366Y850178D01*
Y850193D01*
Y850208D01*
X988351Y850267D01*
Y857519D01*
Y857533D01*
Y857563D01*
X988366Y857652D01*
X988410Y857771D01*
X988484Y857875D01*
X988514Y857890D01*
X988574Y857935D01*
X988663Y857964D01*
X988782Y857979D01*
X989406D01*
X989495Y857964D01*
X989599Y857935D01*
X989614D01*
X989673Y857905D01*
X989733Y857875D01*
X989807Y857831D01*
X989822Y857816D01*
X989866Y857786D01*
X989926Y857727D01*
X990000Y857637D01*
X990015Y857623D01*
X990060Y857563D01*
X990119Y857459D01*
X990193Y857340D01*
X992051Y853878D01*
X992066Y853863D01*
X992080Y853819D01*
X992110Y853759D01*
X992155Y853685D01*
X992259Y853477D01*
X992377Y853254D01*
X992392Y853239D01*
X992407Y853210D01*
X992437Y853150D01*
X992482Y853076D01*
X992586Y852883D01*
X992690Y852660D01*
Y852645D01*
X992719Y852615D01*
X992749Y852556D01*
X992779Y852482D01*
X992883Y852303D01*
X992987Y852095D01*
Y852080D01*
X993017Y852050D01*
X993046Y851991D01*
X993076Y851917D01*
X993165Y851739D01*
X993269Y851531D01*
X993284D01*
Y851545D01*
Y851620D01*
Y851709D01*
Y851828D01*
X993269Y851976D01*
Y852155D01*
Y852526D01*
Y852556D01*
Y852615D01*
Y852719D01*
Y852853D01*
Y853001D01*
Y853165D01*
Y853522D01*
Y857786D01*
Y857801D01*
Y857816D01*
X993284Y857860D01*
Y857875D01*
X993314Y857890D01*
X993373Y857935D01*
X993388D01*
X993418Y857950D01*
X993462Y857964D01*
X993522Y857979D01*
X993537D01*
X993596Y857994D01*
X993953D01*
X994027Y857979D01*
D02*
G37*
G36*
X998826Y857964D02*
X998930D01*
X999168Y857950D01*
X999450Y857920D01*
X999733Y857860D01*
X1000030Y857801D01*
X1000297Y857712D01*
X1000312D01*
X1000327Y857697D01*
X1000416Y857667D01*
X1000550Y857608D01*
X1000713Y857519D01*
X1000907Y857400D01*
X1001100Y857281D01*
X1001293Y857117D01*
X1001486Y856939D01*
X1001501Y856924D01*
X1001560Y856850D01*
X1001650Y856746D01*
X1001754Y856612D01*
X1001872Y856434D01*
X1001991Y856226D01*
X1002110Y855988D01*
X1002214Y855736D01*
Y855721D01*
X1002229Y855706D01*
X1002244Y855661D01*
X1002259Y855617D01*
X1002289Y855468D01*
X1002348Y855275D01*
X1002393Y855037D01*
X1002422Y854770D01*
X1002452Y854473D01*
X1002467Y854146D01*
Y854131D01*
Y854101D01*
Y854042D01*
Y853967D01*
X1002452Y853878D01*
Y853789D01*
X1002437Y853536D01*
X1002407Y853254D01*
X1002348Y852957D01*
X1002289Y852660D01*
X1002199Y852363D01*
Y852348D01*
X1002185Y852333D01*
X1002155Y852244D01*
X1002095Y852095D01*
X1002006Y851917D01*
X1001887Y851724D01*
X1001768Y851516D01*
X1001605Y851293D01*
X1001427Y851100D01*
X1001412Y851085D01*
X1001338Y851010D01*
X1001234Y850921D01*
X1001085Y850817D01*
X1000907Y850698D01*
X1000699Y850565D01*
X1000461Y850446D01*
X1000193Y850342D01*
X1000179D01*
X1000164Y850327D01*
X1000119D01*
X1000060Y850312D01*
X999911Y850267D01*
X999703Y850223D01*
X999450Y850178D01*
X999153Y850149D01*
X998826Y850119D01*
X998455Y850104D01*
X996761D01*
X996702Y850119D01*
X996612Y850149D01*
X996523Y850193D01*
X996508Y850208D01*
X996464Y850267D01*
X996419Y850371D01*
X996404Y850520D01*
Y857548D01*
Y857563D01*
Y857593D01*
X996419Y857682D01*
X996449Y857786D01*
X996523Y857875D01*
X996538Y857890D01*
X996598Y857935D01*
X996687Y857964D01*
X996791Y857979D01*
X998752D01*
X998826Y857964D01*
D02*
G37*
G36*
X891389Y808024D02*
X891479Y808009D01*
X891493D01*
X891538Y807994D01*
X891597Y807979D01*
X891627Y807950D01*
X891642Y807920D01*
X891657Y807890D01*
Y807831D01*
Y807816D01*
Y807771D01*
X891627Y807712D01*
X891597Y807623D01*
X889042Y800297D01*
Y800282D01*
X889027Y800267D01*
X888967Y800193D01*
X888952D01*
X888938Y800163D01*
X888848Y800134D01*
X888834D01*
X888804Y800119D01*
X888730D01*
X888655Y800104D01*
X888566D01*
X888477Y800089D01*
X888180D01*
X888105Y800104D01*
X888046D01*
X887942Y800119D01*
X887897D01*
X887808Y800134D01*
X887779Y800149D01*
X887719Y800163D01*
X887704Y800178D01*
X887660Y800223D01*
X887645Y800253D01*
X887630Y800312D01*
X885059Y807623D01*
Y807652D01*
X885030Y807697D01*
X885015Y807771D01*
X885000Y807831D01*
Y807846D01*
X885015Y807875D01*
X885030Y807920D01*
X885059Y807964D01*
X885074Y807979D01*
X885104Y807994D01*
X885163Y808009D01*
X885238Y808024D01*
X885267D01*
X885327Y808039D01*
X885743D01*
X885832Y808024D01*
X885847D01*
X885891Y808009D01*
X885936Y807994D01*
X885981Y807979D01*
X885996D01*
X886010Y807964D01*
X886070Y807920D01*
X886085Y807905D01*
X886129Y807831D01*
X888388Y801189D01*
X888403D01*
X890587Y807816D01*
Y807831D01*
X890602Y807846D01*
X890632Y807920D01*
Y807935D01*
X890661Y807950D01*
X890721Y807979D01*
X890736D01*
X890765Y807994D01*
X890810Y808009D01*
X890884Y808024D01*
X890899D01*
X890973Y808039D01*
X891285D01*
X891389Y808024D01*
D02*
G37*
G36*
X903797Y805929D02*
X903811D01*
X903856Y805914D01*
X903915Y805899D01*
X903960Y805884D01*
X903975D01*
X903990Y805869D01*
X904049Y805825D01*
X904064Y805810D01*
X904079Y805750D01*
Y800267D01*
Y800238D01*
X904049Y800178D01*
X904034Y800163D01*
X904019Y800149D01*
X903975Y800134D01*
X903960D01*
X903930Y800119D01*
X903886D01*
X903826Y800104D01*
X903767D01*
X903708Y800089D01*
X903455D01*
X903381Y800104D01*
X903366D01*
X903336Y800119D01*
X903291D01*
X903247Y800134D01*
X903217Y800149D01*
X903173Y800178D01*
Y800193D01*
Y800208D01*
X903158Y800267D01*
Y800996D01*
X903143Y800966D01*
X903083Y800906D01*
X902979Y800817D01*
X902860Y800713D01*
X902727Y800580D01*
X902563Y800461D01*
X902400Y800342D01*
X902222Y800238D01*
X902207Y800223D01*
X902147Y800208D01*
X902058Y800163D01*
X901939Y800119D01*
X901805Y800074D01*
X901642Y800045D01*
X901479Y800015D01*
X901300Y800000D01*
X901211D01*
X901107Y800015D01*
X900988Y800030D01*
X900840Y800045D01*
X900691Y800074D01*
X900528Y800119D01*
X900379Y800178D01*
X900364Y800193D01*
X900320Y800208D01*
X900245Y800253D01*
X900171Y800312D01*
X899963Y800461D01*
X899770Y800669D01*
X899755Y800684D01*
X899740Y800728D01*
X899696Y800788D01*
X899651Y800877D01*
X899592Y800981D01*
X899532Y801114D01*
X899443Y801397D01*
Y801412D01*
X899428Y801471D01*
X899413Y801560D01*
X899398Y801694D01*
X899383Y801842D01*
X899369Y802006D01*
X899354Y802214D01*
Y802422D01*
Y805750D01*
Y805765D01*
Y805780D01*
X899369Y805825D01*
Y805840D01*
X899383Y805854D01*
X899413Y805869D01*
X899443Y805884D01*
X899458D01*
X899488Y805899D01*
X899547Y805914D01*
X899606Y805929D01*
X899621D01*
X899681Y805944D01*
X900008D01*
X900082Y805929D01*
X900097D01*
X900141Y805914D01*
X900201Y805899D01*
X900245Y805884D01*
X900260D01*
X900275Y805869D01*
X900334Y805825D01*
X900349Y805810D01*
X900364Y805750D01*
Y802556D01*
Y802541D01*
Y802482D01*
Y802392D01*
X900379Y802273D01*
X900394Y802021D01*
X900409Y801887D01*
X900424Y801768D01*
Y801753D01*
X900439Y801724D01*
X900453Y801664D01*
X900483Y801605D01*
X900543Y801441D01*
X900632Y801278D01*
Y801263D01*
X900661Y801248D01*
X900736Y801174D01*
X900855Y801070D01*
X901003Y800966D01*
X901018D01*
X901048Y800951D01*
X901092Y800936D01*
X901152Y800921D01*
X901315Y800877D01*
X901508Y800862D01*
X901568D01*
X901657Y800877D01*
X901746Y800891D01*
X901865Y800921D01*
X901999Y800981D01*
X902132Y801040D01*
X902266Y801129D01*
X902281Y801144D01*
X902326Y801174D01*
X902400Y801248D01*
X902504Y801322D01*
X902623Y801441D01*
X902757Y801575D01*
X902905Y801739D01*
X903069Y801917D01*
Y805750D01*
Y805765D01*
Y805780D01*
X903083Y805825D01*
Y805840D01*
X903098Y805854D01*
X903128Y805869D01*
X903158Y805884D01*
X903173D01*
X903202Y805899D01*
X903262Y805914D01*
X903321Y805929D01*
X903336D01*
X903381Y805944D01*
X903722D01*
X903797Y805929D01*
D02*
G37*
G36*
X906917Y807400D02*
X906932D01*
X906976Y807385D01*
X907021Y807370D01*
X907066Y807355D01*
X907081D01*
X907095Y807340D01*
X907155Y807281D01*
X907170Y807266D01*
X907185Y807207D01*
Y805914D01*
X908611D01*
X908655Y805884D01*
X908670D01*
X908685Y805869D01*
X908700Y805854D01*
X908730Y805810D01*
Y805795D01*
X908745Y805780D01*
X908760Y805736D01*
X908774Y805676D01*
Y805661D01*
X908789Y805632D01*
Y805557D01*
Y805483D01*
Y805468D01*
Y805453D01*
Y805364D01*
X908760Y805260D01*
X908730Y805171D01*
X908715Y805156D01*
X908685Y805126D01*
X908641Y805097D01*
X908581Y805082D01*
X907185D01*
Y802021D01*
Y801991D01*
Y801932D01*
X907199Y801828D01*
Y801694D01*
X907259Y801412D01*
X907289Y801278D01*
X907348Y801159D01*
X907363Y801144D01*
X907378Y801114D01*
X907422Y801070D01*
X907482Y801025D01*
X907571Y800966D01*
X907675Y800921D01*
X907794Y800891D01*
X907942Y800877D01*
X908106D01*
X908180Y800891D01*
X908195D01*
X908254Y800906D01*
X908314Y800936D01*
X908388Y800951D01*
X908403D01*
X908447Y800966D01*
X908537Y801010D01*
X908551D01*
X908566Y801025D01*
X908641Y801040D01*
X908655D01*
X908700Y801025D01*
X908715Y801010D01*
X908745Y800966D01*
Y800951D01*
X908760Y800936D01*
X908774Y800847D01*
Y800832D01*
X908789Y800802D01*
Y800743D01*
Y800669D01*
Y800639D01*
Y800565D01*
X908774Y800475D01*
X908760Y800386D01*
Y800371D01*
X908745Y800327D01*
X908715Y800267D01*
X908685Y800223D01*
X908670D01*
X908655Y800193D01*
X908611Y800178D01*
X908537Y800149D01*
X908522D01*
X908477Y800134D01*
X908403Y800119D01*
X908314Y800089D01*
X908299D01*
X908240Y800074D01*
X908150Y800059D01*
X908046Y800045D01*
X908017D01*
X907957Y800030D01*
X907868Y800015D01*
X907615D01*
X907511Y800030D01*
X907289Y800059D01*
X907036Y800119D01*
X907021D01*
X906991Y800149D01*
X906932Y800163D01*
X906858Y800208D01*
X906694Y800312D01*
X906531Y800461D01*
X906516Y800475D01*
X906501Y800505D01*
X906471Y800550D01*
X906427Y800624D01*
X906382Y800698D01*
X906338Y800802D01*
X906248Y801040D01*
Y801055D01*
X906234Y801100D01*
X906219Y801174D01*
Y801278D01*
X906204Y801397D01*
X906189Y801545D01*
X906174Y801694D01*
Y801872D01*
Y805082D01*
X905387D01*
X905357Y805097D01*
X905297Y805126D01*
X905253Y805171D01*
Y805186D01*
X905238Y805245D01*
X905223Y805349D01*
X905208Y805483D01*
Y805498D01*
Y805557D01*
Y805617D01*
X905223Y805676D01*
Y805691D01*
X905238Y805721D01*
Y805765D01*
X905253Y805810D01*
Y805825D01*
X905268Y805840D01*
X905297Y805869D01*
X905312Y805884D01*
X905327D01*
X905342Y805899D01*
X905401Y805914D01*
X906174D01*
Y807207D01*
Y807222D01*
Y807236D01*
X906189Y807281D01*
Y807296D01*
X906204Y807311D01*
X906234Y807326D01*
X906263Y807355D01*
X906278D01*
X906308Y807370D01*
X906352Y807385D01*
X906412Y807400D01*
X906427D01*
X906486Y807415D01*
X906843D01*
X906917Y807400D01*
D02*
G37*
G36*
X895461Y806003D02*
X895624Y805988D01*
X895803Y805973D01*
X895996Y805929D01*
X896204Y805884D01*
X896397Y805810D01*
X896427Y805795D01*
X896486Y805765D01*
X896575Y805721D01*
X896694Y805661D01*
X896828Y805572D01*
X896962Y805468D01*
X897095Y805349D01*
X897229Y805216D01*
X897244Y805201D01*
X897288Y805156D01*
X897348Y805067D01*
X897422Y804963D01*
X897496Y804829D01*
X897586Y804666D01*
X897660Y804487D01*
X897734Y804294D01*
X897749Y804265D01*
X897764Y804205D01*
X897794Y804086D01*
X897823Y803938D01*
X897853Y803759D01*
X897883Y803536D01*
X897913Y803314D01*
Y803061D01*
Y803031D01*
Y802942D01*
X897898Y802823D01*
Y802660D01*
X897868Y802467D01*
X897838Y802259D01*
X897794Y802050D01*
X897734Y801828D01*
X897719Y801798D01*
X897704Y801739D01*
X897660Y801635D01*
X897600Y801501D01*
X897526Y801337D01*
X897437Y801174D01*
X897318Y801010D01*
X897199Y800847D01*
X897184Y800832D01*
X897140Y800788D01*
X897066Y800713D01*
X896962Y800624D01*
X896843Y800520D01*
X896679Y800416D01*
X896516Y800312D01*
X896323Y800223D01*
X896293Y800208D01*
X896233Y800193D01*
X896115Y800149D01*
X895981Y800119D01*
X895803Y800074D01*
X895594Y800030D01*
X895357Y800015D01*
X895104Y800000D01*
X894985D01*
X894866Y800015D01*
X894703Y800030D01*
X894510Y800045D01*
X894317Y800089D01*
X894109Y800134D01*
X893915Y800193D01*
X893901Y800208D01*
X893841Y800238D01*
X893737Y800282D01*
X893633Y800342D01*
X893499Y800431D01*
X893351Y800520D01*
X893217Y800639D01*
X893083Y800773D01*
X893068Y800788D01*
X893024Y800847D01*
X892964Y800921D01*
X892905Y801040D01*
X892816Y801174D01*
X892741Y801337D01*
X892667Y801516D01*
X892593Y801709D01*
Y801739D01*
X892563Y801813D01*
X892548Y801917D01*
X892519Y802065D01*
X892489Y802259D01*
X892459Y802467D01*
X892444Y802704D01*
X892430Y802957D01*
Y802972D01*
Y802987D01*
Y803076D01*
X892444Y803195D01*
Y803358D01*
X892474Y803551D01*
X892504Y803759D01*
X892533Y803967D01*
X892593Y804175D01*
X892608Y804205D01*
X892623Y804265D01*
X892667Y804369D01*
X892727Y804502D01*
X892801Y804666D01*
X892890Y804814D01*
X892994Y804978D01*
X893113Y805141D01*
X893128Y805156D01*
X893173Y805216D01*
X893247Y805290D01*
X893351Y805379D01*
X893484Y805483D01*
X893633Y805587D01*
X893796Y805691D01*
X893990Y805780D01*
X894019Y805795D01*
X894079Y805825D01*
X894198Y805854D01*
X894346Y805899D01*
X894525Y805944D01*
X894733Y805988D01*
X894970Y806003D01*
X895223Y806018D01*
X895342D01*
X895461Y806003D01*
D02*
G37*
G36*
X759175Y783068D02*
X759309D01*
X759443Y783054D01*
X759740Y782994D01*
X759755D01*
X759814Y782979D01*
X759889Y782964D01*
X759978Y782950D01*
X760216Y782890D01*
X760453Y782816D01*
X760468D01*
X760513Y782801D01*
X760557Y782771D01*
X760631Y782741D01*
X760810Y782667D01*
X760973Y782578D01*
X760988D01*
X761003Y782563D01*
X761092Y782504D01*
X761181Y782444D01*
X761256Y782385D01*
X761271Y782370D01*
X761300Y782340D01*
X761330Y782281D01*
X761360Y782207D01*
X761375Y782192D01*
X761389Y782132D01*
X761404Y782028D01*
Y781895D01*
Y781880D01*
Y781835D01*
Y781776D01*
X761389Y781701D01*
Y781686D01*
X761375Y781657D01*
X761345Y781553D01*
Y781538D01*
X761330Y781523D01*
X761285Y781464D01*
X761271D01*
X761211Y781449D01*
X761196D01*
X761152Y781464D01*
X761077Y781493D01*
X760958Y781553D01*
X760929Y781568D01*
X760840Y781627D01*
X760691Y781716D01*
X760498Y781805D01*
X760483D01*
X760453Y781835D01*
X760394Y781865D01*
X760305Y781895D01*
X760201Y781939D01*
X760097Y781984D01*
X759963Y782028D01*
X759814Y782073D01*
X759799D01*
X759740Y782088D01*
X759666Y782117D01*
X759547Y782132D01*
X759413Y782162D01*
X759250Y782177D01*
X759071Y782192D01*
X758774D01*
X758640Y782177D01*
X758492Y782162D01*
X758299Y782132D01*
X758105Y782088D01*
X757897Y782028D01*
X757704Y781954D01*
X757690Y781939D01*
X757615Y781909D01*
X757526Y781850D01*
X757407Y781776D01*
X757273Y781686D01*
X757125Y781568D01*
X756976Y781434D01*
X756828Y781285D01*
X756813Y781271D01*
X756768Y781211D01*
X756709Y781122D01*
X756620Y781003D01*
X756531Y780854D01*
X756441Y780691D01*
X756352Y780498D01*
X756278Y780290D01*
Y780260D01*
X756248Y780186D01*
X756218Y780067D01*
X756189Y779918D01*
X756159Y779725D01*
X756129Y779517D01*
X756114Y779294D01*
X756100Y779042D01*
Y779027D01*
Y779012D01*
Y778967D01*
Y778908D01*
X756114Y778774D01*
X756129Y778596D01*
X756144Y778373D01*
X756189Y778150D01*
X756233Y777912D01*
X756308Y777690D01*
X756322Y777660D01*
X756352Y777600D01*
X756397Y777482D01*
X756456Y777348D01*
X756545Y777199D01*
X756635Y777036D01*
X756753Y776872D01*
X756887Y776709D01*
X756902Y776694D01*
X756946Y776649D01*
X757036Y776575D01*
X757140Y776486D01*
X757259Y776382D01*
X757407Y776278D01*
X757586Y776189D01*
X757764Y776100D01*
X757794Y776085D01*
X757853Y776070D01*
X757957Y776040D01*
X758105Y776010D01*
X758269Y775966D01*
X758462Y775936D01*
X758685Y775921D01*
X758908Y775906D01*
X759042D01*
X759131Y775921D01*
X759250D01*
X759369Y775936D01*
X759636Y775981D01*
X759651D01*
X759695Y775996D01*
X759770Y776025D01*
X759874Y776055D01*
X759978Y776085D01*
X760097Y776129D01*
X760349Y776248D01*
Y778551D01*
X758492D01*
X758447Y778566D01*
X758403Y778596D01*
X758358Y778641D01*
Y778655D01*
X758343Y778715D01*
X758328Y778819D01*
X758314Y778967D01*
Y778982D01*
Y779042D01*
Y779101D01*
Y779161D01*
Y779175D01*
X758328Y779205D01*
X758343Y779250D01*
X758358Y779294D01*
Y779309D01*
X758373Y779324D01*
X758418Y779383D01*
X758432D01*
X758447Y779398D01*
X758507Y779413D01*
X761062D01*
X761137Y779383D01*
X761152D01*
X761181Y779369D01*
X761256Y779309D01*
X761271Y779294D01*
X761285Y779279D01*
X761315Y779235D01*
X761345Y779175D01*
X761360Y779161D01*
X761375Y779116D01*
X761389Y779056D01*
Y778982D01*
Y775981D01*
Y775951D01*
Y775891D01*
X761360Y775802D01*
X761330Y775713D01*
X761315Y775698D01*
X761285Y775639D01*
X761211Y775580D01*
X761092Y775505D01*
X761077D01*
X761062Y775490D01*
X761018Y775475D01*
X760973Y775446D01*
X760825Y775386D01*
X760631Y775312D01*
X760617D01*
X760587Y775297D01*
X760527Y775282D01*
X760468Y775253D01*
X760275Y775193D01*
X760067Y775134D01*
X760052D01*
X760022Y775119D01*
X759963D01*
X759874Y775104D01*
X759681Y775074D01*
X759458Y775045D01*
X759413D01*
X759354Y775030D01*
X759279D01*
X759086Y775015D01*
X758863Y775000D01*
X758715D01*
X758626Y775015D01*
X758536D01*
X758314Y775030D01*
X758061Y775074D01*
X757779Y775119D01*
X757496Y775193D01*
X757214Y775282D01*
X757199D01*
X757184Y775297D01*
X757095Y775342D01*
X756961Y775401D01*
X756798Y775490D01*
X756605Y775609D01*
X756412Y775743D01*
X756204Y775906D01*
X756010Y776085D01*
X755995Y776114D01*
X755936Y776174D01*
X755847Y776293D01*
X755728Y776441D01*
X755609Y776620D01*
X755490Y776828D01*
X755357Y777065D01*
X755253Y777333D01*
Y777348D01*
X755238Y777363D01*
X755223Y777407D01*
X755208Y777467D01*
X755178Y777615D01*
X755134Y777808D01*
X755074Y778046D01*
X755045Y778328D01*
X755015Y778641D01*
X755000Y778967D01*
Y778982D01*
Y779012D01*
Y779056D01*
Y779131D01*
X755015Y779205D01*
Y779309D01*
X755030Y779532D01*
X755074Y779799D01*
X755119Y780082D01*
X755193Y780364D01*
X755282Y780661D01*
Y780676D01*
X755297Y780691D01*
X755312Y780736D01*
X755342Y780795D01*
X755401Y780929D01*
X755490Y781107D01*
X755594Y781315D01*
X755728Y781523D01*
X755891Y781746D01*
X756070Y781954D01*
X756100Y781984D01*
X756159Y782043D01*
X756278Y782132D01*
X756426Y782266D01*
X756605Y782400D01*
X756813Y782533D01*
X757050Y782667D01*
X757303Y782786D01*
X757318D01*
X757333Y782801D01*
X757377Y782816D01*
X757437Y782831D01*
X757586Y782875D01*
X757779Y782935D01*
X758016Y782994D01*
X758284Y783039D01*
X758581Y783068D01*
X758908Y783083D01*
X759071D01*
X759175Y783068D01*
D02*
G37*
G36*
X769027Y782979D02*
X769042D01*
X769086Y782964D01*
X769146Y782950D01*
X769190Y782935D01*
X769205D01*
X769220Y782920D01*
X769279Y782860D01*
X769294Y782846D01*
X769309Y782786D01*
Y775535D01*
Y775520D01*
Y775461D01*
X769294Y775401D01*
X769265Y775327D01*
X769250Y775312D01*
X769235Y775282D01*
X769146Y775178D01*
X769131D01*
X769101Y775149D01*
X769057Y775134D01*
X768997Y775104D01*
X768953D01*
X768849Y775089D01*
X768403D01*
X768314Y775104D01*
X768210Y775119D01*
X768195D01*
X768135Y775149D01*
X768061Y775178D01*
X767972Y775238D01*
X767957Y775253D01*
X767913Y775297D01*
X767838Y775371D01*
X767764Y775475D01*
Y775490D01*
X767749Y775505D01*
X767690Y775594D01*
X767615Y775713D01*
X767526Y775877D01*
X765104Y780349D01*
X765089Y780364D01*
X765074Y780409D01*
X765045Y780483D01*
X764985Y780572D01*
X764941Y780676D01*
X764866Y780795D01*
X764733Y781062D01*
X764718Y781077D01*
X764703Y781122D01*
X764658Y781211D01*
X764614Y781300D01*
X764554Y781419D01*
X764495Y781538D01*
X764376Y781805D01*
X764361D01*
Y781791D01*
Y781731D01*
Y781642D01*
X764376Y781538D01*
Y781404D01*
Y781241D01*
Y780914D01*
Y780899D01*
Y780840D01*
Y780750D01*
X764391Y780632D01*
Y780498D01*
Y780349D01*
Y780007D01*
Y775267D01*
Y775238D01*
X764361Y775178D01*
X764346Y775149D01*
X764272Y775119D01*
X764257D01*
X764227Y775104D01*
X764183D01*
X764109Y775089D01*
X764049D01*
X763960Y775074D01*
X763692D01*
X763603Y775089D01*
X763588D01*
X763559Y775104D01*
X763455Y775119D01*
X763440D01*
X763425Y775134D01*
X763366Y775178D01*
Y775193D01*
Y775208D01*
X763351Y775267D01*
Y782519D01*
Y782533D01*
Y782563D01*
X763366Y782652D01*
X763410Y782771D01*
X763484Y782875D01*
X763514Y782890D01*
X763574Y782935D01*
X763663Y782964D01*
X763782Y782979D01*
X764406D01*
X764495Y782964D01*
X764599Y782935D01*
X764614D01*
X764673Y782905D01*
X764733Y782875D01*
X764807Y782831D01*
X764822Y782816D01*
X764866Y782786D01*
X764926Y782727D01*
X765000Y782637D01*
X765015Y782623D01*
X765060Y782563D01*
X765119Y782459D01*
X765193Y782340D01*
X767051Y778878D01*
X767066Y778863D01*
X767080Y778819D01*
X767110Y778759D01*
X767155Y778685D01*
X767259Y778477D01*
X767377Y778254D01*
X767392Y778239D01*
X767407Y778210D01*
X767437Y778150D01*
X767482Y778076D01*
X767586Y777883D01*
X767690Y777660D01*
Y777645D01*
X767719Y777615D01*
X767749Y777556D01*
X767779Y777482D01*
X767883Y777303D01*
X767987Y777095D01*
Y777080D01*
X768017Y777050D01*
X768046Y776991D01*
X768076Y776917D01*
X768165Y776739D01*
X768269Y776531D01*
X768284D01*
Y776545D01*
Y776620D01*
Y776709D01*
Y776828D01*
X768269Y776976D01*
Y777155D01*
Y777526D01*
Y777556D01*
Y777615D01*
Y777719D01*
Y777853D01*
Y778001D01*
Y778165D01*
Y778522D01*
Y782786D01*
Y782801D01*
Y782816D01*
X768284Y782860D01*
Y782875D01*
X768314Y782890D01*
X768373Y782935D01*
X768388D01*
X768418Y782950D01*
X768462Y782964D01*
X768522Y782979D01*
X768537D01*
X768596Y782994D01*
X768953D01*
X769027Y782979D01*
D02*
G37*
G36*
X773826Y782964D02*
X773930D01*
X774168Y782950D01*
X774450Y782920D01*
X774733Y782860D01*
X775030Y782801D01*
X775297Y782712D01*
X775312D01*
X775327Y782697D01*
X775416Y782667D01*
X775550Y782608D01*
X775713Y782519D01*
X775907Y782400D01*
X776100Y782281D01*
X776293Y782117D01*
X776486Y781939D01*
X776501Y781924D01*
X776560Y781850D01*
X776650Y781746D01*
X776754Y781612D01*
X776872Y781434D01*
X776991Y781226D01*
X777110Y780988D01*
X777214Y780736D01*
Y780721D01*
X777229Y780706D01*
X777244Y780661D01*
X777259Y780617D01*
X777289Y780468D01*
X777348Y780275D01*
X777393Y780037D01*
X777422Y779770D01*
X777452Y779473D01*
X777467Y779146D01*
Y779131D01*
Y779101D01*
Y779042D01*
Y778967D01*
X777452Y778878D01*
Y778789D01*
X777437Y778536D01*
X777407Y778254D01*
X777348Y777957D01*
X777289Y777660D01*
X777199Y777363D01*
Y777348D01*
X777185Y777333D01*
X777155Y777244D01*
X777095Y777095D01*
X777006Y776917D01*
X776887Y776724D01*
X776768Y776516D01*
X776605Y776293D01*
X776427Y776100D01*
X776412Y776085D01*
X776338Y776010D01*
X776234Y775921D01*
X776085Y775817D01*
X775907Y775698D01*
X775699Y775565D01*
X775461Y775446D01*
X775193Y775342D01*
X775179D01*
X775164Y775327D01*
X775119D01*
X775060Y775312D01*
X774911Y775267D01*
X774703Y775223D01*
X774450Y775178D01*
X774153Y775149D01*
X773826Y775119D01*
X773455Y775104D01*
X771761D01*
X771702Y775119D01*
X771612Y775149D01*
X771523Y775193D01*
X771508Y775208D01*
X771464Y775267D01*
X771419Y775371D01*
X771404Y775520D01*
Y782548D01*
Y782563D01*
Y782593D01*
X771419Y782682D01*
X771449Y782786D01*
X771523Y782875D01*
X771538Y782890D01*
X771598Y782935D01*
X771687Y782964D01*
X771791Y782979D01*
X773752D01*
X773826Y782964D01*
D02*
G37*
G36*
X778383Y807974D02*
X778544Y807930D01*
X778617Y807900D01*
X778676Y807857D01*
X778690Y807827D01*
X778720Y807798D01*
X778749Y807754D01*
X778764Y807696D01*
X778793Y807608D01*
X778808Y807505D01*
Y807388D01*
Y807374D01*
Y807330D01*
Y807271D01*
X778793Y807198D01*
X778749Y807052D01*
X778705Y806979D01*
X778661Y806920D01*
X778632Y806906D01*
X778603Y806891D01*
X778559Y806862D01*
X778486Y806847D01*
X778398Y806818D01*
X778295Y806803D01*
X778061D01*
X777988Y806818D01*
X777827Y806847D01*
X777754Y806876D01*
X777696Y806920D01*
X777681Y806949D01*
X777666Y806979D01*
X777637Y807023D01*
X777622Y807081D01*
X777593Y807169D01*
X777579Y807271D01*
Y807388D01*
Y807403D01*
Y807447D01*
X777593Y807505D01*
Y807579D01*
X777637Y807725D01*
X777666Y807798D01*
X777710Y807857D01*
X777739Y807871D01*
X777769Y807900D01*
X777827Y807930D01*
X777886Y807944D01*
X777974Y807974D01*
X778076Y807988D01*
X778310D01*
X778383Y807974D01*
D02*
G37*
G36*
X783416Y805823D02*
X783548Y805808D01*
X783679Y805794D01*
X783840Y805764D01*
X783987Y805706D01*
X784133Y805647D01*
X784148Y805633D01*
X784192Y805618D01*
X784265Y805574D01*
X784338Y805516D01*
X784528Y805369D01*
X784718Y805164D01*
X784733Y805150D01*
X784762Y805106D01*
X784791Y805048D01*
X784850Y804960D01*
X784908Y804857D01*
X784952Y804740D01*
X785055Y804448D01*
Y804433D01*
X785069Y804374D01*
X785084Y804287D01*
X785113Y804170D01*
X785128Y804023D01*
X785143Y803862D01*
X785157Y803672D01*
Y803467D01*
Y800176D01*
Y800146D01*
X785128Y800088D01*
X785113Y800073D01*
X785040Y800044D01*
X785025D01*
X785011Y800029D01*
X784967D01*
X784894Y800015D01*
X784835D01*
X784762Y800000D01*
X784484D01*
X784396Y800015D01*
X784382D01*
X784352Y800029D01*
X784250Y800044D01*
X784221Y800059D01*
X784177Y800088D01*
Y800102D01*
Y800117D01*
X784162Y800176D01*
Y803321D01*
Y803336D01*
Y803394D01*
Y803482D01*
X784148Y803584D01*
X784133Y803833D01*
X784118Y803950D01*
X784089Y804067D01*
Y804082D01*
X784074Y804111D01*
X784060Y804170D01*
X784031Y804228D01*
X783972Y804389D01*
X783870Y804550D01*
Y804565D01*
X783840Y804579D01*
X783782Y804667D01*
X783665Y804770D01*
X783519Y804857D01*
X783504D01*
X783475Y804872D01*
X783431Y804901D01*
X783372Y804916D01*
X783211Y804960D01*
X783021Y804974D01*
X782962D01*
X782889Y804960D01*
X782787Y804945D01*
X782685Y804916D01*
X782553Y804857D01*
X782421Y804799D01*
X782275Y804711D01*
X782260Y804696D01*
X782216Y804667D01*
X782143Y804594D01*
X782041Y804521D01*
X781924Y804404D01*
X781807Y804272D01*
X781660Y804111D01*
X781514Y803936D01*
Y800176D01*
Y800146D01*
X781485Y800088D01*
X781470Y800073D01*
X781397Y800044D01*
X781383D01*
X781368Y800029D01*
X781324D01*
X781251Y800015D01*
X781192D01*
X781105Y800000D01*
X780841D01*
X780753Y800015D01*
X780739D01*
X780710Y800029D01*
X780607Y800044D01*
X780592D01*
X780578Y800059D01*
X780548Y800073D01*
X780534Y800088D01*
Y800102D01*
Y800117D01*
X780519Y800176D01*
Y805574D01*
Y805589D01*
Y805603D01*
X780534Y805647D01*
Y805662D01*
X780548Y805677D01*
X780592Y805706D01*
X780607D01*
X780636Y805721D01*
X780680Y805735D01*
X780739Y805750D01*
X780753D01*
X780797Y805764D01*
X781105D01*
X781178Y805750D01*
X781192D01*
X781221Y805735D01*
X781265Y805721D01*
X781309Y805706D01*
X781324D01*
X781339Y805691D01*
X781368Y805677D01*
X781383Y805647D01*
X781397Y805633D01*
X781412Y805574D01*
Y804857D01*
X781426Y804887D01*
X781485Y804945D01*
X781573Y805033D01*
X781690Y805150D01*
X781836Y805267D01*
X781982Y805384D01*
X782143Y805501D01*
X782319Y805603D01*
X782333Y805618D01*
X782392Y805647D01*
X782480Y805677D01*
X782597Y805721D01*
X782743Y805764D01*
X782889Y805808D01*
X783050Y805823D01*
X783226Y805837D01*
X783314D01*
X783416Y805823D01*
D02*
G37*
G36*
X776291Y807813D02*
X776379Y807798D01*
X776394D01*
X776437Y807783D01*
X776496Y807769D01*
X776525Y807739D01*
X776540Y807710D01*
X776554Y807681D01*
Y807622D01*
Y807608D01*
Y807564D01*
X776525Y807505D01*
X776496Y807418D01*
X773979Y800205D01*
Y800190D01*
X773965Y800176D01*
X773906Y800102D01*
X773892D01*
X773877Y800073D01*
X773789Y800044D01*
X773775D01*
X773745Y800029D01*
X773672D01*
X773599Y800015D01*
X773511D01*
X773423Y800000D01*
X773131D01*
X773058Y800015D01*
X772999D01*
X772897Y800029D01*
X772853D01*
X772765Y800044D01*
X772736Y800059D01*
X772677Y800073D01*
X772663Y800088D01*
X772619Y800132D01*
X772604Y800161D01*
X772590Y800219D01*
X770059Y807418D01*
Y807447D01*
X770029Y807491D01*
X770015Y807564D01*
X770000Y807622D01*
Y807637D01*
X770015Y807666D01*
X770029Y807710D01*
X770059Y807754D01*
X770073Y807769D01*
X770102Y807783D01*
X770161Y807798D01*
X770234Y807813D01*
X770263D01*
X770322Y807827D01*
X770732D01*
X770819Y807813D01*
X770834D01*
X770878Y807798D01*
X770922Y807783D01*
X770966Y807769D01*
X770980D01*
X770995Y807754D01*
X771053Y807710D01*
X771068Y807696D01*
X771112Y807622D01*
X773336Y801083D01*
X773350D01*
X775501Y807608D01*
Y807622D01*
X775516Y807637D01*
X775545Y807710D01*
Y807725D01*
X775574Y807739D01*
X775633Y807769D01*
X775647D01*
X775677Y807783D01*
X775721Y807798D01*
X775794Y807813D01*
X775808D01*
X775881Y807827D01*
X776189D01*
X776291Y807813D01*
D02*
G37*
G36*
X778427Y805750D02*
X778442D01*
X778486Y805735D01*
X778530Y805721D01*
X778573Y805706D01*
X778588D01*
X778603Y805691D01*
X778661Y805647D01*
X778676Y805633D01*
X778690Y805574D01*
Y800176D01*
Y800146D01*
X778661Y800088D01*
X778647Y800073D01*
X778573Y800044D01*
X778559D01*
X778544Y800029D01*
X778500D01*
X778427Y800015D01*
X778369D01*
X778281Y800000D01*
X778018D01*
X777930Y800015D01*
X777915D01*
X777886Y800029D01*
X777783Y800044D01*
X777769D01*
X777754Y800059D01*
X777725Y800073D01*
X777710Y800088D01*
Y800102D01*
Y800117D01*
X777696Y800176D01*
Y805574D01*
Y805589D01*
Y805603D01*
X777710Y805647D01*
Y805662D01*
X777725Y805677D01*
X777754Y805691D01*
X777783Y805706D01*
X777798D01*
X777827Y805721D01*
X777871Y805735D01*
X777930Y805750D01*
X777944D01*
X778003Y805764D01*
X778354D01*
X778427Y805750D01*
D02*
G37*
G36*
X962562Y819487D02*
X962794Y819470D01*
X963059Y819420D01*
X963076D01*
X963126Y819404D01*
X963192Y819387D01*
X963275Y819370D01*
X963491Y819321D01*
X963723Y819238D01*
X963739D01*
X963773Y819221D01*
X963839Y819205D01*
X963905Y819171D01*
X964088Y819089D01*
X964270Y818989D01*
X964287D01*
X964303Y818972D01*
X964403Y818906D01*
X964519Y818840D01*
X964602Y818773D01*
X964619Y818757D01*
X964652Y818724D01*
X964701Y818690D01*
X964718Y818641D01*
X964735Y818607D01*
X964768Y818525D01*
Y818508D01*
X964784Y818475D01*
Y818425D01*
X964801Y818359D01*
Y818342D01*
X964818Y818309D01*
Y818243D01*
Y818160D01*
Y818143D01*
Y818077D01*
Y818010D01*
X964801Y817927D01*
Y817911D01*
X964784Y817878D01*
X964751Y817762D01*
Y817745D01*
X964735Y817728D01*
X964685Y817662D01*
X964668D01*
X964602Y817645D01*
X964585D01*
X964536Y817662D01*
X964453Y817695D01*
X964337Y817762D01*
X964303Y817778D01*
X964220Y817844D01*
X964071Y817944D01*
X963889Y818060D01*
X963872D01*
X963839Y818093D01*
X963789Y818127D01*
X963706Y818160D01*
X963607Y818209D01*
X963507Y818259D01*
X963242Y818359D01*
X963225D01*
X963176Y818375D01*
X963093Y818409D01*
X962977Y818425D01*
X962844Y818458D01*
X962694Y818475D01*
X962512Y818491D01*
X962214D01*
X962097Y818475D01*
X961965Y818458D01*
X961799Y818425D01*
X961616Y818392D01*
X961434Y818326D01*
X961252Y818243D01*
X961235Y818226D01*
X961169Y818193D01*
X961086Y818143D01*
X960970Y818077D01*
X960837Y817977D01*
X960704Y817844D01*
X960555Y817712D01*
X960422Y817546D01*
X960406Y817529D01*
X960372Y817463D01*
X960306Y817364D01*
X960240Y817247D01*
X960157Y817082D01*
X960074Y816882D01*
X959991Y816667D01*
X959908Y816435D01*
Y816402D01*
X959875Y816319D01*
X959858Y816186D01*
X959825Y816003D01*
X959792Y815788D01*
X959759Y815539D01*
X959742Y815257D01*
X959726Y814942D01*
Y814925D01*
Y814909D01*
Y814859D01*
Y814793D01*
X959742Y814643D01*
Y814444D01*
X959759Y814212D01*
X959792Y813963D01*
X959842Y813698D01*
X959892Y813449D01*
X959908Y813416D01*
X959925Y813350D01*
X959974Y813217D01*
X960024Y813068D01*
X960090Y812902D01*
X960190Y812719D01*
X960290Y812537D01*
X960406Y812371D01*
X960422Y812355D01*
X960472Y812305D01*
X960538Y812222D01*
X960638Y812122D01*
X960754Y812023D01*
X960903Y811923D01*
X961069Y811807D01*
X961235Y811724D01*
X961252Y811708D01*
X961318Y811691D01*
X961417Y811658D01*
X961567Y811625D01*
X961732Y811575D01*
X961915Y811542D01*
X962131Y811525D01*
X962346Y811509D01*
X962529D01*
X962661Y811525D01*
X962811Y811542D01*
X962960Y811558D01*
X963258Y811625D01*
X963275D01*
X963325Y811641D01*
X963391Y811674D01*
X963491Y811708D01*
X963706Y811807D01*
X963922Y811907D01*
X963939D01*
X963972Y811940D01*
X964021Y811973D01*
X964088Y812006D01*
X964237Y812106D01*
X964386Y812205D01*
X964403D01*
X964419Y812222D01*
X964486Y812272D01*
X964585Y812321D01*
X964668Y812338D01*
X964701D01*
X964751Y812305D01*
X964768Y812288D01*
X964784Y812272D01*
X964801Y812222D01*
Y812205D01*
X964818Y812189D01*
Y812139D01*
X964834Y812073D01*
Y812056D01*
X964851Y812006D01*
Y811923D01*
Y811807D01*
Y811791D01*
Y811741D01*
X964834Y811625D01*
Y811608D01*
Y811575D01*
X964818Y811475D01*
Y811459D01*
X964801Y811442D01*
X964768Y811359D01*
X964751Y811326D01*
X964718Y811293D01*
X964668Y811243D01*
X964652Y811227D01*
X964602Y811193D01*
X964519Y811127D01*
X964386Y811044D01*
X964370D01*
X964353Y811028D01*
X964303Y810994D01*
X964237Y810961D01*
X964071Y810878D01*
X963839Y810779D01*
X963822D01*
X963789Y810762D01*
X963723Y810729D01*
X963623Y810696D01*
X963524Y810663D01*
X963391Y810630D01*
X963109Y810563D01*
X963093D01*
X963043Y810547D01*
X962960Y810530D01*
X962844D01*
X962711Y810513D01*
X962545Y810497D01*
X962197Y810480D01*
X962048D01*
X961882Y810497D01*
X961683Y810513D01*
X961434Y810547D01*
X961169Y810596D01*
X960903Y810663D01*
X960638Y810762D01*
X960605Y810779D01*
X960522Y810812D01*
X960406Y810878D01*
X960240Y810978D01*
X960057Y811094D01*
X959858Y811227D01*
X959659Y811393D01*
X959477Y811591D01*
X959460Y811625D01*
X959394Y811691D01*
X959311Y811807D01*
X959211Y811973D01*
X959079Y812172D01*
X958963Y812404D01*
X958847Y812670D01*
X958730Y812968D01*
Y812985D01*
X958714Y813001D01*
Y813051D01*
X958697Y813118D01*
X958648Y813283D01*
X958614Y813515D01*
X958565Y813798D01*
X958515Y814129D01*
X958498Y814477D01*
X958482Y814876D01*
Y814892D01*
Y814925D01*
Y814975D01*
Y815058D01*
X958498Y815158D01*
Y815274D01*
X958515Y815523D01*
X958548Y815838D01*
X958598Y816153D01*
X958664Y816485D01*
X958747Y816816D01*
Y816833D01*
X958764Y816849D01*
X958780Y816899D01*
X958797Y816965D01*
X958863Y817115D01*
X958946Y817330D01*
X959062Y817546D01*
X959195Y817795D01*
X959361Y818044D01*
X959543Y818276D01*
X959560Y818309D01*
X959643Y818375D01*
X959742Y818475D01*
X959892Y818607D01*
X960057Y818757D01*
X960273Y818906D01*
X960505Y819055D01*
X960754Y819188D01*
X960770D01*
X960787Y819205D01*
X960887Y819238D01*
X961019Y819287D01*
X961218Y819354D01*
X961451Y819404D01*
X961716Y819453D01*
X962014Y819487D01*
X962330Y819503D01*
X962462D01*
X962562Y819487D01*
D02*
G37*
G36*
X968798Y819503D02*
X968948D01*
X969130Y819470D01*
X969312Y819437D01*
X969511Y819404D01*
X969694Y819337D01*
X969710D01*
X969777Y819304D01*
X969860Y819271D01*
X969976Y819205D01*
X970241Y819055D01*
X970490Y818840D01*
X970507Y818823D01*
X970540Y818790D01*
X970606Y818724D01*
X970673Y818624D01*
X970739Y818525D01*
X970822Y818392D01*
X970954Y818110D01*
Y818093D01*
X970988Y818044D01*
X971004Y817961D01*
X971037Y817844D01*
X971070Y817712D01*
X971087Y817563D01*
X971120Y817231D01*
Y817214D01*
Y817165D01*
Y817065D01*
X971104Y816965D01*
Y816833D01*
X971087Y816700D01*
X971037Y816385D01*
Y816368D01*
X971021Y816319D01*
X971004Y816236D01*
X970971Y816120D01*
X970921Y815987D01*
X970855Y815838D01*
X970706Y815489D01*
X970689Y815473D01*
X970656Y815406D01*
X970606Y815307D01*
X970540Y815174D01*
X970440Y815008D01*
X970308Y814826D01*
X970175Y814627D01*
X970009Y814411D01*
X969992Y814378D01*
X969926Y814312D01*
X969827Y814179D01*
X969694Y814013D01*
X969528Y813814D01*
X969312Y813582D01*
X969080Y813316D01*
X968815Y813035D01*
X967422Y811591D01*
X971286D01*
X971352Y811558D01*
X971369D01*
X971386Y811542D01*
X971435Y811459D01*
Y811442D01*
X971452Y811409D01*
X971469Y811359D01*
X971485Y811293D01*
Y811276D01*
X971502Y811243D01*
X971518Y811177D01*
Y811094D01*
Y811077D01*
Y811028D01*
X971502Y810961D01*
X971485Y810878D01*
Y810862D01*
X971469Y810829D01*
X971435Y810713D01*
Y810696D01*
X971419Y810679D01*
X971369Y810613D01*
X971336D01*
X971253Y810596D01*
X966344D01*
X966227Y810613D01*
X966211D01*
X966194Y810630D01*
X966095Y810679D01*
Y810696D01*
X966061Y810729D01*
X966045Y810779D01*
X966028Y810845D01*
Y810862D01*
Y810911D01*
X966012Y810994D01*
Y811094D01*
Y811127D01*
Y811177D01*
Y811260D01*
Y811343D01*
Y811359D01*
X966028Y811409D01*
X966061Y811509D01*
Y811525D01*
X966078Y811558D01*
X966144Y811674D01*
X966161Y811691D01*
X966178Y811724D01*
X966277Y811840D01*
X968052Y813648D01*
X968085Y813681D01*
X968151Y813748D01*
X968268Y813880D01*
X968400Y814030D01*
X968549Y814196D01*
X968715Y814395D01*
X968865Y814577D01*
X969014Y814776D01*
X969030Y814793D01*
X969080Y814859D01*
X969147Y814958D01*
X969230Y815075D01*
X969329Y815207D01*
X969428Y815357D01*
X969511Y815523D01*
X969594Y815672D01*
X969611Y815688D01*
X969628Y815738D01*
X969661Y815821D01*
X969710Y815920D01*
X969793Y816169D01*
X969860Y816418D01*
Y816435D01*
X969876Y816468D01*
Y816534D01*
X969893Y816617D01*
X969910Y816816D01*
X969926Y817032D01*
Y817048D01*
Y817082D01*
Y817148D01*
X969910Y817214D01*
X969893Y817397D01*
X969827Y817596D01*
Y817612D01*
X969810Y817645D01*
X969793Y817695D01*
X969760Y817762D01*
X969661Y817911D01*
X969528Y818060D01*
Y818077D01*
X969495Y818093D01*
X969395Y818176D01*
X969263Y818276D01*
X969064Y818375D01*
X969047D01*
X969014Y818392D01*
X968948Y818409D01*
X968881Y818442D01*
X968782Y818458D01*
X968666Y818475D01*
X968417Y818491D01*
X968268D01*
X968168Y818475D01*
X967919Y818442D01*
X967654Y818375D01*
X967637D01*
X967604Y818359D01*
X967538Y818326D01*
X967455Y818292D01*
X967256Y818209D01*
X967057Y818110D01*
X967040D01*
X967023Y818093D01*
X966907Y818027D01*
X966775Y817944D01*
X966625Y817861D01*
X966592Y817844D01*
X966526Y817811D01*
X966443Y817778D01*
X966377Y817762D01*
X966344D01*
X966277Y817778D01*
X966261Y817795D01*
X966211Y817861D01*
Y817878D01*
X966194Y817911D01*
Y817961D01*
X966178Y818027D01*
Y818044D01*
Y818093D01*
Y818176D01*
Y818276D01*
Y818292D01*
Y818342D01*
Y818442D01*
Y818458D01*
Y818491D01*
X966194Y818574D01*
Y818591D01*
X966211Y818607D01*
X966244Y818674D01*
Y818690D01*
X966277Y818707D01*
X966344Y818790D01*
X966360Y818807D01*
X966410Y818840D01*
X966493Y818906D01*
X966625Y818989D01*
X966642D01*
X966659Y819006D01*
X966708Y819039D01*
X966775Y819055D01*
X966941Y819138D01*
X967140Y819221D01*
X967156D01*
X967189Y819238D01*
X967256Y819271D01*
X967339Y819304D01*
X967438Y819337D01*
X967554Y819370D01*
X967803Y819437D01*
X967820D01*
X967869Y819453D01*
X967936Y819470D01*
X968035Y819487D01*
X968151D01*
X968284Y819503D01*
X968566Y819520D01*
X968682D01*
X968798Y819503D01*
D02*
G37*
G36*
X874030Y896833D02*
X874146Y896800D01*
X874246Y896717D01*
X874263Y896701D01*
X874312Y896635D01*
X874346Y896535D01*
X874362Y896419D01*
Y894230D01*
X874346Y894146D01*
Y894030D01*
X874329Y893765D01*
X874296Y893450D01*
X874230Y893135D01*
X874163Y892803D01*
X874064Y892505D01*
Y892488D01*
X874047Y892471D01*
X874014Y892372D01*
X873948Y892223D01*
X873848Y892040D01*
X873715Y891824D01*
X873583Y891609D01*
X873400Y891393D01*
X873201Y891178D01*
X873185Y891161D01*
X873102Y891095D01*
X872986Y890995D01*
X872836Y890879D01*
X872637Y890746D01*
X872405Y890614D01*
X872140Y890481D01*
X871858Y890365D01*
X871841D01*
X871824Y890348D01*
X871775Y890332D01*
X871725Y890315D01*
X871559Y890282D01*
X871344Y890216D01*
X871078Y890166D01*
X870779Y890133D01*
X870448Y890099D01*
X870083Y890083D01*
X870066D01*
X870033D01*
X869967D01*
X869884D01*
X869784Y890099D01*
X869685D01*
X869403Y890116D01*
X869088Y890149D01*
X868756Y890216D01*
X868424Y890282D01*
X868093Y890381D01*
X868076D01*
X868059Y890398D01*
X867960Y890431D01*
X867794Y890498D01*
X867595Y890597D01*
X867379Y890730D01*
X867147Y890863D01*
X866898Y891045D01*
X866683Y891244D01*
X866666Y891261D01*
X866583Y891344D01*
X866484Y891460D01*
X866368Y891625D01*
X866235Y891824D01*
X866086Y892057D01*
X865953Y892322D01*
X865837Y892621D01*
Y892637D01*
X865820Y892654D01*
Y892703D01*
X865804Y892770D01*
X865754Y892936D01*
X865704Y893168D01*
X865654Y893450D01*
X865621Y893782D01*
X865588Y894146D01*
X865572Y894561D01*
Y896452D01*
X865588Y896518D01*
X865621Y896618D01*
X865671Y896717D01*
X865688Y896734D01*
X865754Y896784D01*
X865870Y896833D01*
X866036Y896850D01*
X873881D01*
X873898D01*
X873931D01*
X874030Y896833D01*
D02*
G37*
G36*
X872786Y888242D02*
X872869Y888225D01*
X872886D01*
X872903Y888209D01*
X872952Y888176D01*
X872969Y888159D01*
X872986Y888142D01*
X873035Y888076D01*
X874346Y886052D01*
X874362Y886036D01*
Y885969D01*
X874379Y885953D01*
X874395Y885887D01*
Y885870D01*
X874412Y885837D01*
Y885721D01*
X874428Y885688D01*
Y885356D01*
X874412Y885273D01*
Y885256D01*
X874395Y885207D01*
X874379Y885157D01*
X874362Y885107D01*
Y885090D01*
X874346Y885074D01*
X874329Y885041D01*
X874312Y885024D01*
X874296Y885007D01*
X874230Y884991D01*
X866517D01*
Y883365D01*
X866484Y883299D01*
Y883283D01*
X866467Y883266D01*
X866384Y883233D01*
X866368D01*
X866351Y883216D01*
X866301Y883200D01*
X866235Y883183D01*
X866218D01*
X866185Y883167D01*
X866119Y883150D01*
X866036D01*
X866019D01*
X865953D01*
X865887Y883167D01*
X865804Y883183D01*
X865787D01*
X865754Y883200D01*
X865654Y883233D01*
X865621Y883249D01*
X865588Y883316D01*
Y883332D01*
X865572Y883399D01*
Y888026D01*
X865588Y888093D01*
X865605Y888109D01*
X865654Y888159D01*
X865671D01*
X865704Y888176D01*
X865804Y888209D01*
X865820D01*
X865870D01*
X865936Y888225D01*
X866036D01*
X866052D01*
X866102D01*
X866235Y888209D01*
X866252D01*
X866285Y888192D01*
X866334Y888176D01*
X866384Y888159D01*
X866401D01*
X866417Y888142D01*
X866484Y888093D01*
Y888076D01*
X866500Y888059D01*
X866517Y887993D01*
Y886152D01*
X873201D01*
X872189Y887860D01*
X872173Y887877D01*
X872140Y887927D01*
X872106Y887993D01*
X872090Y888059D01*
Y888109D01*
X872123Y888192D01*
X872140D01*
X872156Y888209D01*
X872206Y888225D01*
X872272Y888242D01*
X872289D01*
X872339D01*
X872422Y888258D01*
X872538D01*
X872554D01*
X872604D01*
X872737D01*
X872753D01*
X872786Y888242D01*
D02*
G37*
G36*
X987553Y914495D02*
X987786Y914478D01*
X988051Y914428D01*
X988068D01*
X988118Y914412D01*
X988184Y914395D01*
X988267Y914379D01*
X988482Y914329D01*
X988715Y914246D01*
X988731D01*
X988764Y914230D01*
X988831Y914213D01*
X988897Y914180D01*
X989080Y914097D01*
X989262Y913997D01*
X989278D01*
X989295Y913981D01*
X989395Y913914D01*
X989511Y913848D01*
X989594Y913782D01*
X989610Y913765D01*
X989643Y913732D01*
X989693Y913699D01*
X989710Y913649D01*
X989726Y913616D01*
X989760Y913533D01*
Y913516D01*
X989776Y913483D01*
Y913433D01*
X989793Y913367D01*
Y913350D01*
X989809Y913317D01*
Y913251D01*
Y913168D01*
Y913151D01*
Y913085D01*
Y913019D01*
X989793Y912936D01*
Y912919D01*
X989776Y912886D01*
X989743Y912770D01*
Y912753D01*
X989726Y912737D01*
X989677Y912670D01*
X989660D01*
X989594Y912654D01*
X989577D01*
X989527Y912670D01*
X989444Y912704D01*
X989328Y912770D01*
X989295Y912786D01*
X989212Y912853D01*
X989063Y912952D01*
X988880Y913068D01*
X988864D01*
X988831Y913102D01*
X988781Y913135D01*
X988698Y913168D01*
X988598Y913218D01*
X988499Y913268D01*
X988234Y913367D01*
X988217D01*
X988167Y913384D01*
X988084Y913417D01*
X987968Y913433D01*
X987835Y913466D01*
X987686Y913483D01*
X987504Y913500D01*
X987205D01*
X987089Y913483D01*
X986956Y913466D01*
X986791Y913433D01*
X986608Y913400D01*
X986426Y913334D01*
X986243Y913251D01*
X986227Y913234D01*
X986160Y913201D01*
X986077Y913151D01*
X985961Y913085D01*
X985829Y912986D01*
X985696Y912853D01*
X985547Y912720D01*
X985414Y912554D01*
X985397Y912538D01*
X985364Y912471D01*
X985298Y912372D01*
X985231Y912256D01*
X985149Y912090D01*
X985066Y911891D01*
X984983Y911675D01*
X984900Y911443D01*
Y911410D01*
X984867Y911327D01*
X984850Y911194D01*
X984817Y911012D01*
X984784Y910796D01*
X984751Y910547D01*
X984734Y910265D01*
X984717Y909950D01*
Y909934D01*
Y909917D01*
Y909867D01*
Y909801D01*
X984734Y909652D01*
Y909453D01*
X984751Y909221D01*
X984784Y908972D01*
X984833Y908706D01*
X984883Y908457D01*
X984900Y908424D01*
X984916Y908358D01*
X984966Y908225D01*
X985016Y908076D01*
X985082Y907910D01*
X985182Y907728D01*
X985281Y907545D01*
X985397Y907379D01*
X985414Y907363D01*
X985464Y907313D01*
X985530Y907230D01*
X985630Y907131D01*
X985746Y907031D01*
X985895Y906932D01*
X986061Y906815D01*
X986227Y906732D01*
X986243Y906716D01*
X986310Y906699D01*
X986409Y906666D01*
X986558Y906633D01*
X986724Y906583D01*
X986907Y906550D01*
X987122Y906534D01*
X987338Y906517D01*
X987520D01*
X987653Y906534D01*
X987802Y906550D01*
X987952Y906567D01*
X988250Y906633D01*
X988267D01*
X988316Y906650D01*
X988383Y906683D01*
X988482Y906716D01*
X988698Y906815D01*
X988914Y906915D01*
X988930D01*
X988963Y906948D01*
X989013Y906981D01*
X989080Y907014D01*
X989229Y907114D01*
X989378Y907214D01*
X989395D01*
X989411Y907230D01*
X989477Y907280D01*
X989577Y907330D01*
X989660Y907346D01*
X989693D01*
X989743Y907313D01*
X989760Y907297D01*
X989776Y907280D01*
X989793Y907230D01*
Y907214D01*
X989809Y907197D01*
Y907147D01*
X989826Y907081D01*
Y907064D01*
X989842Y907014D01*
Y906932D01*
Y906815D01*
Y906799D01*
Y906749D01*
X989826Y906633D01*
Y906616D01*
Y906583D01*
X989809Y906484D01*
Y906467D01*
X989793Y906451D01*
X989760Y906368D01*
X989743Y906335D01*
X989710Y906301D01*
X989660Y906252D01*
X989643Y906235D01*
X989594Y906202D01*
X989511Y906135D01*
X989378Y906052D01*
X989361D01*
X989345Y906036D01*
X989295Y906003D01*
X989229Y905970D01*
X989063Y905887D01*
X988831Y905787D01*
X988814D01*
X988781Y905770D01*
X988715Y905737D01*
X988615Y905704D01*
X988515Y905671D01*
X988383Y905638D01*
X988101Y905572D01*
X988084D01*
X988035Y905555D01*
X987952Y905538D01*
X987835D01*
X987703Y905522D01*
X987537Y905505D01*
X987189Y905489D01*
X987039D01*
X986873Y905505D01*
X986674Y905522D01*
X986426Y905555D01*
X986160Y905605D01*
X985895Y905671D01*
X985630Y905770D01*
X985596Y905787D01*
X985513Y905820D01*
X985397Y905887D01*
X985231Y905986D01*
X985049Y906102D01*
X984850Y906235D01*
X984651Y906401D01*
X984469Y906600D01*
X984452Y906633D01*
X984386Y906699D01*
X984303Y906815D01*
X984203Y906981D01*
X984070Y907180D01*
X983954Y907413D01*
X983838Y907678D01*
X983722Y907977D01*
Y907993D01*
X983706Y908010D01*
Y908059D01*
X983689Y908126D01*
X983639Y908292D01*
X983606Y908524D01*
X983556Y908806D01*
X983506Y909137D01*
X983490Y909486D01*
X983473Y909884D01*
Y909901D01*
Y909934D01*
Y909983D01*
Y910066D01*
X983490Y910166D01*
Y910282D01*
X983506Y910531D01*
X983540Y910846D01*
X983589Y911161D01*
X983656Y911493D01*
X983739Y911824D01*
Y911841D01*
X983755Y911858D01*
X983772Y911907D01*
X983789Y911974D01*
X983855Y912123D01*
X983938Y912339D01*
X984054Y912554D01*
X984187Y912803D01*
X984352Y913052D01*
X984535Y913284D01*
X984551Y913317D01*
X984634Y913384D01*
X984734Y913483D01*
X984883Y913616D01*
X985049Y913765D01*
X985265Y913914D01*
X985497Y914064D01*
X985746Y914196D01*
X985762D01*
X985779Y914213D01*
X985878Y914246D01*
X986011Y914296D01*
X986210Y914362D01*
X986442Y914412D01*
X986708Y914462D01*
X987006Y914495D01*
X987321Y914511D01*
X987454D01*
X987553Y914495D01*
D02*
G37*
G36*
X994404Y914445D02*
X994420D01*
X994470Y914428D01*
X994520Y914412D01*
X994569Y914395D01*
X994586D01*
X994603Y914379D01*
X994636Y914362D01*
X994652Y914346D01*
X994669Y914329D01*
X994686Y914263D01*
Y906550D01*
X996311D01*
X996377Y906517D01*
X996394D01*
X996411Y906500D01*
X996444Y906417D01*
Y906401D01*
X996460Y906384D01*
X996477Y906335D01*
X996494Y906268D01*
Y906252D01*
X996510Y906218D01*
X996527Y906152D01*
Y906069D01*
Y906052D01*
Y905986D01*
X996510Y905920D01*
X996494Y905837D01*
Y905820D01*
X996477Y905787D01*
X996444Y905688D01*
X996427Y905654D01*
X996361Y905621D01*
X996344D01*
X996278Y905605D01*
X991650D01*
X991584Y905621D01*
X991567Y905638D01*
X991518Y905688D01*
Y905704D01*
X991501Y905737D01*
X991468Y905837D01*
Y905854D01*
Y905903D01*
X991451Y905970D01*
Y906069D01*
Y906086D01*
Y906135D01*
X991468Y906268D01*
Y906285D01*
X991485Y906318D01*
X991501Y906368D01*
X991518Y906417D01*
Y906434D01*
X991534Y906451D01*
X991584Y906517D01*
X991601D01*
X991617Y906534D01*
X991684Y906550D01*
X993525D01*
Y913234D01*
X991816Y912223D01*
X991800Y912206D01*
X991750Y912173D01*
X991684Y912140D01*
X991617Y912123D01*
X991567D01*
X991485Y912156D01*
Y912173D01*
X991468Y912189D01*
X991451Y912239D01*
X991435Y912306D01*
Y912322D01*
Y912372D01*
X991418Y912455D01*
Y912571D01*
Y912588D01*
Y912637D01*
Y912770D01*
Y912786D01*
X991435Y912820D01*
X991451Y912903D01*
Y912919D01*
X991468Y912936D01*
X991501Y912986D01*
X991518Y913002D01*
X991534Y913019D01*
X991601Y913068D01*
X993624Y914379D01*
X993641Y914395D01*
X993707D01*
X993724Y914412D01*
X993790Y914428D01*
X993807D01*
X993840Y914445D01*
X993956D01*
X993989Y914462D01*
X994321D01*
X994404Y914445D01*
D02*
G37*
G36*
X874080Y848011D02*
X874163Y847995D01*
X874180D01*
X874213Y847978D01*
X874312Y847945D01*
X874345Y847928D01*
X874379Y847862D01*
Y847845D01*
X874395Y847779D01*
Y843151D01*
X874379Y843085D01*
X874362Y843068D01*
X874312Y843019D01*
X874296D01*
X874263Y843002D01*
X874163Y842969D01*
X874146D01*
X874097D01*
X874030Y842952D01*
X873931D01*
X873914D01*
X873865D01*
X873732Y842969D01*
X873715D01*
X873682Y842986D01*
X873632Y843002D01*
X873583Y843019D01*
X873566D01*
X873549Y843035D01*
X873483Y843085D01*
Y843102D01*
X873466Y843118D01*
X873450Y843185D01*
Y845026D01*
X866766D01*
X867777Y843317D01*
X867794Y843301D01*
X867827Y843251D01*
X867860Y843185D01*
X867877Y843118D01*
Y843068D01*
X867844Y842986D01*
X867827D01*
X867811Y842969D01*
X867761Y842952D01*
X867694Y842936D01*
X867678D01*
X867628D01*
X867545Y842919D01*
X867429D01*
X867412D01*
X867363D01*
X867230D01*
X867214D01*
X867180Y842936D01*
X867097Y842952D01*
X867081D01*
X867064Y842969D01*
X867014Y843002D01*
X866998Y843019D01*
X866981Y843035D01*
X866932Y843102D01*
X865621Y845125D01*
X865605Y845142D01*
Y845208D01*
X865588Y845225D01*
X865571Y845291D01*
Y845308D01*
X865555Y845341D01*
Y845457D01*
X865538Y845490D01*
Y845822D01*
X865555Y845905D01*
Y845921D01*
X865571Y845971D01*
X865588Y846021D01*
X865605Y846070D01*
Y846087D01*
X865621Y846104D01*
X865638Y846137D01*
X865654Y846153D01*
X865671Y846170D01*
X865737Y846187D01*
X873450D01*
Y847812D01*
X873483Y847878D01*
Y847895D01*
X873500Y847912D01*
X873583Y847945D01*
X873599D01*
X873616Y847961D01*
X873665Y847978D01*
X873732Y847995D01*
X873748D01*
X873782Y848011D01*
X873848Y848028D01*
X873931D01*
X873948D01*
X874014D01*
X874080Y848011D01*
D02*
G37*
G36*
X873367Y841327D02*
X873383D01*
X873417D01*
X873516Y841310D01*
X873533D01*
X873549Y841294D01*
X873632Y841261D01*
X873665Y841244D01*
X873699Y841211D01*
X873748Y841161D01*
X873765Y841144D01*
X873798Y841095D01*
X873865Y841012D01*
X873948Y840879D01*
Y840863D01*
X873964Y840846D01*
X873997Y840796D01*
X874030Y840730D01*
X874113Y840564D01*
X874213Y840332D01*
Y840315D01*
X874229Y840282D01*
X874263Y840216D01*
X874296Y840116D01*
X874329Y840017D01*
X874362Y839884D01*
X874428Y839602D01*
Y839585D01*
X874445Y839536D01*
X874462Y839453D01*
Y839336D01*
X874478Y839204D01*
X874495Y839038D01*
X874511Y838690D01*
Y838540D01*
X874495Y838374D01*
X874478Y838176D01*
X874445Y837927D01*
X874395Y837661D01*
X874329Y837396D01*
X874229Y837131D01*
X874213Y837097D01*
X874180Y837014D01*
X874113Y836898D01*
X874014Y836732D01*
X873898Y836550D01*
X873765Y836351D01*
X873599Y836152D01*
X873400Y835969D01*
X873367Y835953D01*
X873301Y835887D01*
X873185Y835804D01*
X873019Y835704D01*
X872820Y835572D01*
X872587Y835455D01*
X872322Y835339D01*
X872023Y835223D01*
X872007D01*
X871990Y835207D01*
X871941D01*
X871874Y835190D01*
X871708Y835140D01*
X871476Y835107D01*
X871194Y835057D01*
X870862Y835008D01*
X870514Y834991D01*
X870116Y834974D01*
X870099D01*
X870066D01*
X870016D01*
X869934D01*
X869834Y834991D01*
X869718D01*
X869469Y835008D01*
X869154Y835041D01*
X868839Y835090D01*
X868507Y835157D01*
X868176Y835240D01*
X868159D01*
X868142Y835256D01*
X868092Y835273D01*
X868026Y835290D01*
X867877Y835356D01*
X867661Y835439D01*
X867446Y835555D01*
X867197Y835688D01*
X866948Y835853D01*
X866716Y836036D01*
X866683Y836052D01*
X866616Y836135D01*
X866517Y836235D01*
X866384Y836384D01*
X866235Y836550D01*
X866086Y836766D01*
X865936Y836998D01*
X865804Y837247D01*
Y837263D01*
X865787Y837280D01*
X865754Y837379D01*
X865704Y837512D01*
X865638Y837711D01*
X865588Y837943D01*
X865538Y838209D01*
X865505Y838507D01*
X865489Y838822D01*
Y838955D01*
X865505Y839055D01*
X865522Y839287D01*
X865571Y839552D01*
Y839569D01*
X865588Y839619D01*
X865605Y839685D01*
X865621Y839768D01*
X865671Y839983D01*
X865754Y840216D01*
Y840232D01*
X865770Y840265D01*
X865787Y840332D01*
X865820Y840398D01*
X865903Y840581D01*
X866003Y840763D01*
Y840779D01*
X866019Y840796D01*
X866086Y840896D01*
X866152Y841012D01*
X866218Y841095D01*
X866235Y841111D01*
X866268Y841144D01*
X866301Y841194D01*
X866351Y841211D01*
X866384Y841227D01*
X866467Y841261D01*
X866484D01*
X866517Y841277D01*
X866567D01*
X866633Y841294D01*
X866649D01*
X866683Y841310D01*
X866749D01*
X866832D01*
X866849D01*
X866915D01*
X866981D01*
X867064Y841294D01*
X867081D01*
X867114Y841277D01*
X867230Y841244D01*
X867247D01*
X867263Y841227D01*
X867330Y841178D01*
Y841161D01*
X867346Y841095D01*
Y841078D01*
X867330Y841028D01*
X867296Y840945D01*
X867230Y840829D01*
X867214Y840796D01*
X867147Y840713D01*
X867048Y840564D01*
X866932Y840381D01*
Y840365D01*
X866898Y840332D01*
X866865Y840282D01*
X866832Y840199D01*
X866782Y840099D01*
X866732Y840000D01*
X866633Y839735D01*
Y839718D01*
X866616Y839668D01*
X866583Y839585D01*
X866567Y839469D01*
X866533Y839336D01*
X866517Y839187D01*
X866500Y839005D01*
Y838706D01*
X866517Y838590D01*
X866533Y838457D01*
X866567Y838292D01*
X866600Y838109D01*
X866666Y837927D01*
X866749Y837744D01*
X866766Y837728D01*
X866799Y837661D01*
X866849Y837578D01*
X866915Y837462D01*
X867014Y837330D01*
X867147Y837197D01*
X867280Y837048D01*
X867446Y836915D01*
X867462Y836898D01*
X867529Y836865D01*
X867628Y836799D01*
X867744Y836732D01*
X867910Y836650D01*
X868109Y836567D01*
X868325Y836484D01*
X868557Y836401D01*
X868590D01*
X868673Y836368D01*
X868806Y836351D01*
X868988Y836318D01*
X869204Y836285D01*
X869453Y836252D01*
X869735Y836235D01*
X870050Y836218D01*
X870066D01*
X870083D01*
X870133D01*
X870199D01*
X870348Y836235D01*
X870547D01*
X870779Y836252D01*
X871028Y836285D01*
X871294Y836334D01*
X871543Y836384D01*
X871576Y836401D01*
X871642Y836417D01*
X871775Y836467D01*
X871924Y836517D01*
X872090Y836583D01*
X872272Y836683D01*
X872455Y836782D01*
X872621Y836898D01*
X872637Y836915D01*
X872687Y836965D01*
X872770Y837031D01*
X872869Y837131D01*
X872969Y837247D01*
X873068Y837396D01*
X873185Y837562D01*
X873267Y837728D01*
X873284Y837744D01*
X873301Y837811D01*
X873334Y837910D01*
X873367Y838059D01*
X873417Y838225D01*
X873450Y838408D01*
X873466Y838623D01*
X873483Y838839D01*
Y839021D01*
X873466Y839154D01*
X873450Y839303D01*
X873433Y839453D01*
X873367Y839751D01*
Y839768D01*
X873350Y839818D01*
X873317Y839884D01*
X873284Y839983D01*
X873185Y840199D01*
X873085Y840415D01*
Y840431D01*
X873052Y840464D01*
X873019Y840514D01*
X872986Y840581D01*
X872886Y840730D01*
X872786Y840879D01*
Y840896D01*
X872770Y840912D01*
X872720Y840979D01*
X872670Y841078D01*
X872654Y841161D01*
Y841194D01*
X872687Y841244D01*
X872703Y841261D01*
X872720Y841277D01*
X872770Y841294D01*
X872786D01*
X872803Y841310D01*
X872853D01*
X872919Y841327D01*
X872936D01*
X872986Y841344D01*
X873068D01*
X873185D01*
X873201D01*
X873251D01*
X873367Y841327D01*
D02*
G37*
G36*
X874329Y833100D02*
X874345Y833084D01*
X874379Y833001D01*
Y832984D01*
X874395Y832951D01*
Y832901D01*
X874412Y832818D01*
Y832752D01*
X874428Y832669D01*
Y832370D01*
X874412Y832271D01*
Y832254D01*
X874395Y832205D01*
Y832138D01*
X874379Y832088D01*
Y832072D01*
X874362Y832055D01*
X874329Y831989D01*
X874312D01*
X874296D01*
X874213Y831972D01*
X865787D01*
X865770D01*
X865754D01*
X865687Y831989D01*
X865671D01*
X865654Y832022D01*
X865621Y832088D01*
Y832105D01*
X865605Y832138D01*
Y832205D01*
X865588Y832271D01*
Y832287D01*
X865571Y832354D01*
X865555Y832437D01*
Y832652D01*
X865571Y832735D01*
X865588Y832818D01*
Y832835D01*
X865605Y832885D01*
Y832951D01*
X865621Y833001D01*
Y833017D01*
X865638Y833034D01*
X865687Y833100D01*
X865704Y833117D01*
X865787Y833133D01*
X874213D01*
X874229D01*
X874246D01*
X874329Y833100D01*
D02*
G37*
G36*
X882204Y793767D02*
X882354D01*
X882536Y793734D01*
X882719Y793700D01*
X882917Y793667D01*
X883100Y793601D01*
X883117D01*
X883183Y793568D01*
X883266Y793535D01*
X883382Y793468D01*
X883647Y793319D01*
X883896Y793103D01*
X883913Y793087D01*
X883946Y793054D01*
X884012Y792987D01*
X884079Y792888D01*
X884145Y792788D01*
X884228Y792655D01*
X884361Y792374D01*
Y792357D01*
X884394Y792307D01*
X884410Y792224D01*
X884443Y792108D01*
X884477Y791975D01*
X884493Y791826D01*
X884526Y791495D01*
Y791478D01*
Y791428D01*
Y791329D01*
X884510Y791229D01*
Y791096D01*
X884493Y790964D01*
X884443Y790649D01*
Y790632D01*
X884427Y790582D01*
X884410Y790499D01*
X884377Y790383D01*
X884327Y790250D01*
X884261Y790101D01*
X884112Y789753D01*
X884095Y789736D01*
X884062Y789670D01*
X884012Y789570D01*
X883946Y789438D01*
X883846Y789272D01*
X883714Y789090D01*
X883581Y788890D01*
X883415Y788675D01*
X883399Y788642D01*
X883332Y788575D01*
X883233Y788443D01*
X883100Y788277D01*
X882934Y788078D01*
X882719Y787846D01*
X882486Y787580D01*
X882221Y787298D01*
X880828Y785855D01*
X884692D01*
X884759Y785822D01*
X884775D01*
X884792Y785805D01*
X884842Y785723D01*
Y785706D01*
X884858Y785673D01*
X884875Y785623D01*
X884891Y785557D01*
Y785540D01*
X884908Y785507D01*
X884924Y785441D01*
Y785358D01*
Y785341D01*
Y785291D01*
X884908Y785225D01*
X884891Y785142D01*
Y785125D01*
X884875Y785092D01*
X884842Y784976D01*
Y784959D01*
X884825Y784943D01*
X884775Y784877D01*
X884742D01*
X884659Y784860D01*
X879750D01*
X879633Y784877D01*
X879617D01*
X879600Y784893D01*
X879501Y784943D01*
Y784959D01*
X879468Y784993D01*
X879451Y785042D01*
X879434Y785109D01*
Y785125D01*
Y785175D01*
X879418Y785258D01*
Y785358D01*
Y785391D01*
Y785441D01*
Y785523D01*
Y785606D01*
Y785623D01*
X879434Y785673D01*
X879468Y785772D01*
Y785789D01*
X879484Y785822D01*
X879550Y785938D01*
X879567Y785955D01*
X879584Y785988D01*
X879683Y786104D01*
X881458Y787912D01*
X881491Y787945D01*
X881557Y788011D01*
X881674Y788144D01*
X881806Y788293D01*
X881955Y788459D01*
X882121Y788658D01*
X882271Y788841D01*
X882420Y789040D01*
X882437Y789056D01*
X882486Y789123D01*
X882553Y789222D01*
X882635Y789338D01*
X882735Y789471D01*
X882835Y789620D01*
X882917Y789786D01*
X883000Y789935D01*
X883017Y789952D01*
X883034Y790002D01*
X883067Y790085D01*
X883117Y790184D01*
X883199Y790433D01*
X883266Y790682D01*
Y790698D01*
X883282Y790732D01*
Y790798D01*
X883299Y790881D01*
X883316Y791080D01*
X883332Y791295D01*
Y791312D01*
Y791345D01*
Y791412D01*
X883316Y791478D01*
X883299Y791660D01*
X883233Y791859D01*
Y791876D01*
X883216Y791909D01*
X883199Y791959D01*
X883166Y792025D01*
X883067Y792175D01*
X882934Y792324D01*
Y792340D01*
X882901Y792357D01*
X882801Y792440D01*
X882669Y792539D01*
X882470Y792639D01*
X882453D01*
X882420Y792655D01*
X882354Y792672D01*
X882287Y792705D01*
X882188Y792722D01*
X882072Y792738D01*
X881823Y792755D01*
X881674D01*
X881574Y792738D01*
X881325Y792705D01*
X881060Y792639D01*
X881043D01*
X881010Y792622D01*
X880944Y792589D01*
X880861Y792556D01*
X880662Y792473D01*
X880463Y792374D01*
X880446D01*
X880430Y792357D01*
X880313Y792291D01*
X880181Y792208D01*
X880032Y792125D01*
X879998Y792108D01*
X879932Y792075D01*
X879849Y792042D01*
X879783Y792025D01*
X879750D01*
X879683Y792042D01*
X879667Y792058D01*
X879617Y792125D01*
Y792141D01*
X879600Y792175D01*
Y792224D01*
X879584Y792291D01*
Y792307D01*
Y792357D01*
Y792440D01*
Y792539D01*
Y792556D01*
Y792606D01*
Y792705D01*
Y792722D01*
Y792755D01*
X879600Y792838D01*
Y792855D01*
X879617Y792871D01*
X879650Y792937D01*
Y792954D01*
X879683Y792971D01*
X879750Y793054D01*
X879766Y793070D01*
X879816Y793103D01*
X879899Y793170D01*
X880032Y793253D01*
X880048D01*
X880065Y793269D01*
X880114Y793302D01*
X880181Y793319D01*
X880347Y793402D01*
X880546Y793485D01*
X880562D01*
X880595Y793501D01*
X880662Y793535D01*
X880745Y793568D01*
X880844Y793601D01*
X880960Y793634D01*
X881209Y793700D01*
X881226D01*
X881275Y793717D01*
X881342Y793734D01*
X881441Y793750D01*
X881557D01*
X881690Y793767D01*
X881972Y793783D01*
X882088D01*
X882204Y793767D01*
D02*
G37*
G36*
X874890Y793634D02*
X875072Y793617D01*
X875105D01*
X875205Y793601D01*
X875338D01*
X875487Y793584D01*
X875503D01*
X875570Y793568D01*
X875669Y793551D01*
X875785Y793518D01*
X875918Y793485D01*
X876067Y793435D01*
X876383Y793302D01*
X876399D01*
X876449Y793269D01*
X876515Y793236D01*
X876615Y793170D01*
X876830Y793020D01*
X877046Y792821D01*
X877063Y792805D01*
X877096Y792772D01*
X877145Y792705D01*
X877195Y792639D01*
X877262Y792539D01*
X877328Y792423D01*
X877444Y792158D01*
Y792141D01*
X877461Y792092D01*
X877494Y792009D01*
X877510Y791909D01*
X877544Y791793D01*
X877560Y791644D01*
X877577Y791329D01*
Y791312D01*
Y791246D01*
Y791163D01*
X877560Y791063D01*
X877527Y790798D01*
X877444Y790533D01*
Y790516D01*
X877428Y790466D01*
X877394Y790400D01*
X877361Y790317D01*
X877245Y790118D01*
X877096Y789902D01*
X877079Y789886D01*
X877063Y789852D01*
X877013Y789803D01*
X876946Y789753D01*
X876781Y789587D01*
X876565Y789438D01*
X876548D01*
X876515Y789405D01*
X876449Y789371D01*
X876366Y789322D01*
X876250Y789272D01*
X876134Y789222D01*
X875868Y789106D01*
X875885D01*
X875902Y789090D01*
X876001Y789040D01*
X876117Y788973D01*
X876250Y788874D01*
X876266D01*
X876283Y788841D01*
X876366Y788774D01*
X876466Y788658D01*
X876582Y788526D01*
Y788509D01*
X876615Y788492D01*
X876681Y788393D01*
X876781Y788244D01*
X876880Y788061D01*
Y788045D01*
X876897Y788011D01*
X876930Y787962D01*
X876963Y787895D01*
X877046Y787696D01*
X877145Y787464D01*
X877942Y785523D01*
Y785507D01*
X877958Y785490D01*
X877991Y785391D01*
X878041Y785291D01*
X878058Y785192D01*
Y785175D01*
X878074Y785142D01*
X878091Y785092D01*
Y785042D01*
Y785026D01*
Y785009D01*
X878058Y784926D01*
X878041Y784910D01*
X878025Y784893D01*
X877975Y784877D01*
X877958D01*
X877925Y784860D01*
X877859D01*
X877776Y784843D01*
X877693D01*
X877593Y784827D01*
X877278D01*
X877179Y784843D01*
X877162D01*
X877112Y784860D01*
X877046D01*
X876996Y784877D01*
X876980D01*
X876963Y784893D01*
X876880Y784959D01*
Y784976D01*
X876863Y784993D01*
X876830Y785092D01*
X876018Y787166D01*
Y787182D01*
X875984Y787232D01*
X875968Y787298D01*
X875918Y787381D01*
X875835Y787580D01*
X875719Y787812D01*
Y787829D01*
X875686Y787862D01*
X875653Y787912D01*
X875620Y787995D01*
X875503Y788144D01*
X875354Y788310D01*
X875338Y788326D01*
X875321Y788343D01*
X875271Y788393D01*
X875205Y788426D01*
X875056Y788542D01*
X874857Y788642D01*
X874840D01*
X874807Y788658D01*
X874741Y788691D01*
X874674Y788708D01*
X874575Y788741D01*
X874459Y788758D01*
X874177Y788774D01*
X873397D01*
Y785042D01*
Y785026D01*
Y785009D01*
X873364Y784926D01*
X873347Y784910D01*
X873264Y784877D01*
X873248D01*
X873215Y784860D01*
X873165D01*
X873082Y784843D01*
X873016D01*
X872933Y784827D01*
X872617D01*
X872518Y784843D01*
X872501D01*
X872468Y784860D01*
X872352Y784877D01*
X872336D01*
X872319Y784893D01*
X872253Y784926D01*
Y784943D01*
Y784959D01*
X872236Y785042D01*
Y793170D01*
Y793186D01*
Y793219D01*
X872253Y793319D01*
X872286Y793435D01*
X872369Y793535D01*
X872385Y793551D01*
X872452Y793601D01*
X872551Y793634D01*
X872667Y793651D01*
X874724D01*
X874890Y793634D01*
D02*
G37*
G36*
X829478Y825450D02*
X829495D01*
X829544Y825434D01*
X829594Y825417D01*
X829644Y825401D01*
X829660D01*
X829677Y825384D01*
X829710Y825368D01*
X829727Y825351D01*
X829743Y825334D01*
X829760Y825268D01*
Y817555D01*
X831385D01*
X831452Y817522D01*
X831468D01*
X831485Y817506D01*
X831518Y817423D01*
Y817406D01*
X831535Y817390D01*
X831551Y817340D01*
X831568Y817273D01*
Y817257D01*
X831584Y817224D01*
X831601Y817157D01*
Y817074D01*
Y817058D01*
Y816992D01*
X831584Y816925D01*
X831568Y816842D01*
Y816826D01*
X831551Y816792D01*
X831518Y816693D01*
X831501Y816660D01*
X831435Y816627D01*
X831419D01*
X831352Y816610D01*
X826725D01*
X826658Y816627D01*
X826642Y816643D01*
X826592Y816693D01*
Y816710D01*
X826575Y816743D01*
X826542Y816842D01*
Y816859D01*
Y816909D01*
X826526Y816975D01*
Y817074D01*
Y817091D01*
Y817141D01*
X826542Y817273D01*
Y817290D01*
X826559Y817323D01*
X826575Y817373D01*
X826592Y817423D01*
Y817439D01*
X826609Y817456D01*
X826658Y817522D01*
X826675D01*
X826692Y817539D01*
X826758Y817555D01*
X828599D01*
Y824240D01*
X826890Y823228D01*
X826874Y823211D01*
X826824Y823178D01*
X826758Y823145D01*
X826692Y823128D01*
X826642D01*
X826559Y823161D01*
Y823178D01*
X826542Y823195D01*
X826526Y823244D01*
X826509Y823311D01*
Y823327D01*
Y823377D01*
X826492Y823460D01*
Y823576D01*
Y823593D01*
Y823643D01*
Y823775D01*
Y823792D01*
X826509Y823825D01*
X826526Y823908D01*
Y823924D01*
X826542Y823941D01*
X826575Y823991D01*
X826592Y824007D01*
X826609Y824024D01*
X826675Y824074D01*
X828698Y825384D01*
X828715Y825401D01*
X828781D01*
X828798Y825417D01*
X828864Y825434D01*
X828881D01*
X828914Y825450D01*
X829030D01*
X829063Y825467D01*
X829395D01*
X829478Y825450D01*
D02*
G37*
G36*
X821550Y825384D02*
X821732Y825368D01*
X821765D01*
X821865Y825351D01*
X821998D01*
X822147Y825334D01*
X822163D01*
X822230Y825318D01*
X822329Y825301D01*
X822445Y825268D01*
X822578Y825235D01*
X822727Y825185D01*
X823043Y825052D01*
X823059D01*
X823109Y825019D01*
X823175Y824986D01*
X823275Y824920D01*
X823490Y824770D01*
X823706Y824571D01*
X823723Y824555D01*
X823756Y824522D01*
X823805Y824455D01*
X823855Y824389D01*
X823922Y824289D01*
X823988Y824173D01*
X824104Y823908D01*
Y823891D01*
X824121Y823842D01*
X824154Y823759D01*
X824170Y823659D01*
X824204Y823543D01*
X824220Y823394D01*
X824237Y823079D01*
Y823062D01*
Y822996D01*
Y822913D01*
X824220Y822813D01*
X824187Y822548D01*
X824104Y822282D01*
Y822266D01*
X824088Y822216D01*
X824054Y822150D01*
X824021Y822067D01*
X823905Y821868D01*
X823756Y821652D01*
X823739Y821636D01*
X823723Y821602D01*
X823673Y821553D01*
X823606Y821503D01*
X823441Y821337D01*
X823225Y821188D01*
X823208D01*
X823175Y821155D01*
X823109Y821121D01*
X823026Y821072D01*
X822910Y821022D01*
X822794Y820972D01*
X822528Y820856D01*
X822545D01*
X822562Y820839D01*
X822661Y820790D01*
X822777Y820723D01*
X822910Y820624D01*
X822926D01*
X822943Y820591D01*
X823026Y820524D01*
X823126Y820408D01*
X823242Y820276D01*
Y820259D01*
X823275Y820242D01*
X823341Y820143D01*
X823441Y819994D01*
X823540Y819811D01*
Y819795D01*
X823557Y819761D01*
X823590Y819712D01*
X823623Y819645D01*
X823706Y819446D01*
X823805Y819214D01*
X824602Y817273D01*
Y817257D01*
X824618Y817240D01*
X824651Y817141D01*
X824701Y817041D01*
X824718Y816942D01*
Y816925D01*
X824734Y816892D01*
X824751Y816842D01*
Y816792D01*
Y816776D01*
Y816759D01*
X824718Y816676D01*
X824701Y816660D01*
X824685Y816643D01*
X824635Y816627D01*
X824618D01*
X824585Y816610D01*
X824519D01*
X824436Y816593D01*
X824353D01*
X824253Y816577D01*
X823938D01*
X823839Y816593D01*
X823822D01*
X823772Y816610D01*
X823706D01*
X823656Y816627D01*
X823640D01*
X823623Y816643D01*
X823540Y816710D01*
Y816726D01*
X823523Y816743D01*
X823490Y816842D01*
X822678Y818915D01*
Y818932D01*
X822645Y818982D01*
X822628Y819048D01*
X822578Y819131D01*
X822495Y819330D01*
X822379Y819562D01*
Y819579D01*
X822346Y819612D01*
X822313Y819662D01*
X822280Y819745D01*
X822163Y819894D01*
X822014Y820060D01*
X821998Y820077D01*
X821981Y820093D01*
X821931Y820143D01*
X821865Y820176D01*
X821716Y820292D01*
X821517Y820392D01*
X821500D01*
X821467Y820408D01*
X821401Y820441D01*
X821334Y820458D01*
X821235Y820491D01*
X821119Y820508D01*
X820837Y820524D01*
X820057D01*
Y816792D01*
Y816776D01*
Y816759D01*
X820024Y816676D01*
X820007Y816660D01*
X819924Y816627D01*
X819908D01*
X819875Y816610D01*
X819825D01*
X819742Y816593D01*
X819676D01*
X819593Y816577D01*
X819277D01*
X819178Y816593D01*
X819161D01*
X819128Y816610D01*
X819012Y816627D01*
X818996D01*
X818979Y816643D01*
X818913Y816676D01*
Y816693D01*
Y816710D01*
X818896Y816792D01*
Y824920D01*
Y824936D01*
Y824969D01*
X818913Y825069D01*
X818946Y825185D01*
X819029Y825285D01*
X819045Y825301D01*
X819112Y825351D01*
X819211Y825384D01*
X819327Y825401D01*
X821384D01*
X821550Y825384D01*
D02*
G37*
%LPC*%
G36*
X998500Y857103D02*
X997445D01*
Y850981D01*
X998648D01*
X998782Y850996D01*
X998960Y851010D01*
X999153Y851025D01*
X999376Y851055D01*
X999584Y851100D01*
X999792Y851159D01*
X999822Y851174D01*
X999881Y851189D01*
X999970Y851248D01*
X1000089Y851308D01*
X1000238Y851382D01*
X1000372Y851486D01*
X1000520Y851605D01*
X1000654Y851739D01*
X1000669Y851753D01*
X1000713Y851813D01*
X1000773Y851887D01*
X1000862Y852006D01*
X1000936Y852140D01*
X1001025Y852303D01*
X1001115Y852496D01*
X1001189Y852704D01*
X1001204Y852734D01*
X1001219Y852808D01*
X1001248Y852942D01*
X1001278Y853105D01*
X1001308Y853314D01*
X1001338Y853551D01*
X1001367Y853804D01*
Y854101D01*
Y854116D01*
Y854131D01*
Y854205D01*
X1001352Y854339D01*
Y854487D01*
X1001323Y854666D01*
X1001293Y854874D01*
X1001263Y855082D01*
X1001204Y855290D01*
Y855320D01*
X1001174Y855379D01*
X1001130Y855483D01*
X1001085Y855617D01*
X1001011Y855765D01*
X1000921Y855929D01*
X1000817Y856092D01*
X1000699Y856241D01*
X1000684Y856256D01*
X1000639Y856300D01*
X1000565Y856375D01*
X1000461Y856464D01*
X1000342Y856568D01*
X1000193Y856672D01*
X1000030Y856776D01*
X999837Y856865D01*
X999807Y856880D01*
X999748Y856909D01*
X999629Y856939D01*
X999480Y856984D01*
X999287Y857028D01*
X999064Y857073D01*
X998797Y857088D01*
X998500Y857103D01*
D02*
G37*
G36*
X895357Y805171D02*
X895104D01*
X895015Y805156D01*
X894911D01*
X894792Y805126D01*
X894658Y805097D01*
X894539Y805067D01*
X894406Y805007D01*
X894391D01*
X894346Y804978D01*
X894287Y804933D01*
X894213Y804889D01*
X894049Y804740D01*
X893871Y804547D01*
X893856Y804532D01*
X893841Y804502D01*
X893796Y804443D01*
X893752Y804354D01*
X893707Y804250D01*
X893648Y804146D01*
X893603Y804012D01*
X893559Y803863D01*
Y803848D01*
X893544Y803789D01*
X893529Y803715D01*
X893514Y803611D01*
X893499Y803492D01*
X893484Y803343D01*
X893470Y803016D01*
Y803001D01*
Y802942D01*
Y802853D01*
X893484Y802749D01*
Y802615D01*
X893499Y802467D01*
X893544Y802169D01*
Y802155D01*
X893559Y802110D01*
X893588Y802021D01*
X893618Y801932D01*
X893707Y801709D01*
X893826Y801471D01*
X893841Y801456D01*
X893856Y801426D01*
X893901Y801367D01*
X893960Y801308D01*
X894034Y801233D01*
X894123Y801159D01*
X894346Y801010D01*
X894361D01*
X894406Y800981D01*
X894480Y800966D01*
X894569Y800936D01*
X894688Y800906D01*
X894822Y800877D01*
X894985Y800862D01*
X895149Y800847D01*
X895223D01*
X895312Y800862D01*
X895416D01*
X895535Y800877D01*
X895669Y800906D01*
X895921Y800996D01*
X895936Y801010D01*
X895981Y801025D01*
X896040Y801070D01*
X896115Y801114D01*
X896293Y801248D01*
X896456Y801441D01*
X896471Y801456D01*
X896486Y801486D01*
X896531Y801545D01*
X896575Y801635D01*
X896620Y801724D01*
X896679Y801842D01*
X896768Y802110D01*
Y802125D01*
X896783Y802184D01*
X896798Y802259D01*
X896828Y802377D01*
X896843Y802496D01*
X896858Y802645D01*
X896872Y802987D01*
Y803001D01*
Y803061D01*
Y803150D01*
X896858Y803254D01*
Y803388D01*
X896843Y803522D01*
X896783Y803819D01*
Y803834D01*
X896768Y803893D01*
X896739Y803967D01*
X896709Y804056D01*
X896620Y804279D01*
X896501Y804517D01*
X896486Y804532D01*
X896471Y804562D01*
X896427Y804621D01*
X896367Y804695D01*
X896293Y804770D01*
X896219Y804844D01*
X895996Y804993D01*
X895981Y805007D01*
X895936Y805022D01*
X895862Y805052D01*
X895773Y805082D01*
X895654Y805111D01*
X895520Y805141D01*
X895357Y805171D01*
D02*
G37*
G36*
X773499Y782103D02*
X772445D01*
Y775981D01*
X773648D01*
X773782Y775996D01*
X773960Y776010D01*
X774153Y776025D01*
X774376Y776055D01*
X774584Y776100D01*
X774792Y776159D01*
X774822Y776174D01*
X774881Y776189D01*
X774970Y776248D01*
X775089Y776308D01*
X775238Y776382D01*
X775372Y776486D01*
X775520Y776605D01*
X775654Y776739D01*
X775669Y776753D01*
X775713Y776813D01*
X775773Y776887D01*
X775862Y777006D01*
X775936Y777140D01*
X776025Y777303D01*
X776115Y777496D01*
X776189Y777704D01*
X776204Y777734D01*
X776219Y777808D01*
X776248Y777942D01*
X776278Y778105D01*
X776308Y778314D01*
X776338Y778551D01*
X776367Y778804D01*
Y779101D01*
Y779116D01*
Y779131D01*
Y779205D01*
X776352Y779339D01*
Y779487D01*
X776323Y779666D01*
X776293Y779874D01*
X776263Y780082D01*
X776204Y780290D01*
Y780320D01*
X776174Y780379D01*
X776130Y780483D01*
X776085Y780617D01*
X776011Y780765D01*
X775921Y780929D01*
X775817Y781092D01*
X775699Y781241D01*
X775684Y781256D01*
X775639Y781300D01*
X775565Y781375D01*
X775461Y781464D01*
X775342Y781568D01*
X775193Y781672D01*
X775030Y781776D01*
X774837Y781865D01*
X774807Y781880D01*
X774748Y781909D01*
X774629Y781939D01*
X774480Y781984D01*
X774287Y782028D01*
X774064Y782073D01*
X773797Y782088D01*
X773499Y782103D01*
D02*
G37*
G36*
X873384Y895689D02*
X866550D01*
Y894346D01*
X866567Y894196D01*
X866583Y893997D01*
X866600Y893782D01*
X866633Y893533D01*
X866683Y893301D01*
X866749Y893068D01*
X866766Y893035D01*
X866782Y892969D01*
X866849Y892869D01*
X866915Y892737D01*
X866998Y892571D01*
X867114Y892422D01*
X867247Y892256D01*
X867396Y892106D01*
X867412Y892090D01*
X867479Y892040D01*
X867562Y891974D01*
X867694Y891874D01*
X867844Y891791D01*
X868026Y891692D01*
X868242Y891592D01*
X868474Y891509D01*
X868507Y891493D01*
X868590Y891476D01*
X868739Y891443D01*
X868922Y891410D01*
X869154Y891377D01*
X869419Y891344D01*
X869701Y891310D01*
X870033D01*
X870050D01*
X870066D01*
X870149D01*
X870298Y891327D01*
X870464D01*
X870663Y891360D01*
X870896Y891393D01*
X871128Y891426D01*
X871360Y891493D01*
X871393D01*
X871460Y891526D01*
X871576Y891576D01*
X871725Y891625D01*
X871891Y891708D01*
X872073Y891808D01*
X872256Y891924D01*
X872422Y892057D01*
X872438Y892073D01*
X872488Y892123D01*
X872571Y892206D01*
X872670Y892322D01*
X872786Y892455D01*
X872903Y892621D01*
X873019Y892803D01*
X873118Y893019D01*
X873135Y893052D01*
X873168Y893118D01*
X873201Y893251D01*
X873251Y893417D01*
X873301Y893632D01*
X873350Y893881D01*
X873367Y894180D01*
X873384Y894511D01*
Y895689D01*
D02*
G37*
G36*
X874608Y792689D02*
X873397D01*
Y789720D01*
X874691D01*
X874807Y789736D01*
X875056Y789770D01*
X875321Y789819D01*
X875338D01*
X875387Y789836D01*
X875437Y789869D01*
X875520Y789902D01*
X875703Y790002D01*
X875885Y790134D01*
X875902Y790151D01*
X875918Y790168D01*
X876018Y790267D01*
X876117Y790416D01*
X876217Y790599D01*
Y790615D01*
X876233Y790649D01*
X876250Y790698D01*
X876283Y790781D01*
X876316Y790964D01*
X876333Y791196D01*
Y791212D01*
Y791279D01*
X876316Y791378D01*
X876300Y791511D01*
X876233Y791793D01*
X876183Y791942D01*
X876101Y792075D01*
X876084Y792092D01*
X876051Y792141D01*
X876001Y792191D01*
X875918Y792274D01*
X875802Y792357D01*
X875669Y792440D01*
X875520Y792523D01*
X875321Y792589D01*
X875288Y792606D01*
X875205Y792622D01*
X875089Y792639D01*
X874940Y792655D01*
X874906D01*
X874857Y792672D01*
X874790D01*
X874608Y792689D01*
D02*
G37*
G36*
X821268Y824439D02*
X820057D01*
Y821470D01*
X821351D01*
X821467Y821486D01*
X821716Y821519D01*
X821981Y821569D01*
X821998D01*
X822047Y821586D01*
X822097Y821619D01*
X822180Y821652D01*
X822363Y821752D01*
X822545Y821884D01*
X822562Y821901D01*
X822578Y821918D01*
X822678Y822017D01*
X822777Y822166D01*
X822877Y822349D01*
Y822365D01*
X822893Y822399D01*
X822910Y822448D01*
X822943Y822531D01*
X822976Y822714D01*
X822993Y822946D01*
Y822962D01*
Y823029D01*
X822976Y823128D01*
X822960Y823261D01*
X822893Y823543D01*
X822843Y823692D01*
X822761Y823825D01*
X822744Y823842D01*
X822711Y823891D01*
X822661Y823941D01*
X822578Y824024D01*
X822462Y824107D01*
X822329Y824190D01*
X822180Y824273D01*
X821981Y824339D01*
X821948Y824356D01*
X821865Y824372D01*
X821749Y824389D01*
X821600Y824406D01*
X821566D01*
X821517Y824422D01*
X821450D01*
X821268Y824439D01*
D02*
G37*
%LPD*%
D10*
X885250Y828500D02*
G03*
X885250Y828500I-1250J0D01*
G01*
D11*
X891000Y842000D02*
G03*
X886500Y846500I-4500J0D01*
G01*
X804000Y870000D02*
X807000D01*
X814000D02*
X816000D01*
X807000Y865000D02*
Y874000D01*
Y865000D02*
X814000Y870000D01*
X807000Y874000D02*
X814000Y870000D01*
Y865000D02*
Y875000D01*
X859000D02*
Y903000D01*
X857000Y875000D02*
X859000D01*
X857000D02*
Y903000D01*
Y837000D02*
Y865000D01*
X859000D01*
Y837000D02*
Y865000D01*
X761000Y837000D02*
Y850250D01*
Y889750D02*
Y903000D01*
Y837000D02*
X859000D01*
X761000Y903000D02*
X859000D01*
X948303Y765384D02*
Y768884D01*
Y765384D02*
X955803Y757884D01*
X992803D01*
Y768884D01*
X948500Y791000D02*
Y794500D01*
X956000Y802000D01*
X993000D01*
Y791000D02*
Y802000D01*
X886500Y878500D02*
X953500D01*
Y841500D02*
Y878500D01*
X891000Y841500D02*
Y842000D01*
X888750Y841500D02*
X953500D01*
X886500Y843750D02*
X888750Y841500D01*
X886500Y843750D02*
Y878500D01*
X825000Y803000D02*
X827500D01*
X825000Y779500D02*
Y803000D01*
X855000Y779500D02*
Y803000D01*
X852500D02*
X855000D01*
D12*
X981000Y880000D02*
X999000D01*
X981000Y897000D02*
X985000D01*
X981000Y863000D02*
Y897000D01*
Y863000D02*
X985000D01*
X995000D02*
X999000D01*
Y897000D01*
X995000D02*
X999000D01*
X873000Y777000D02*
Y779000D01*
X907000D01*
Y777000D02*
Y779000D01*
X873000Y761000D02*
Y763000D01*
Y761000D02*
X907000D01*
Y763000D01*
X890000Y761000D02*
Y779000D01*
M02*
