M48
;Layer_Color=9474304
;FILE_FORMAT=2:5
INCH,TZ
;TYPE=PLATED
T1F00S00C0.01181
T2F00S00C0.03150
T3F00S00C0.07874
%
T01
X354331Y283465
X366142
X383858Y295275
X395669
X407480
X413386Y283465
X425197
X401575
Y307086
X407480Y318898
X419291
X413386Y330709
X401575
Y354331
X407480Y366142
X413386Y377953
X425197
X437008
X448819
X460630
X466535Y366142
X454724
X431102
X425197Y354331
X401575Y377953
X389764
X377953
X366142
X354331
X342520
X330709
X318898
Y354331
X330709
X342520
X354331
X360236Y366142
X348425
Y342520
X360236
X354331Y330709
X342520
X336614Y342520
X324803
X318898Y330709
X472441
X478346Y342520
X472441Y354331
Y377953
X478346Y318898
T02
X330709Y312992
Y326772
X446850Y352362
Y366142
T03
X484252Y275590
X472441Y303150
X330709Y287402
X311024Y275590
Y381890
X330709Y368110
X478346Y364173
X484252Y381890
M30
