G04*
G04 #@! TF.GenerationSoftware,Altium Limited,Altium Designer,21.1.1 (26)*
G04*
G04 Layer_Physical_Order=2*
G04 Layer_Color=16711680*
%FSLAX25Y25*%
%MOIN*%
G70*
G04*
G04 #@! TF.SameCoordinates,9BCB9740-BAEC-44A0-B6CA-C752D964FD41*
G04*
G04*
G04 #@! TF.FilePolarity,Positive*
G04*
G01*
G75*
G04:AMPARAMS|DCode=27|XSize=157.48mil|YSize=157.48mil|CornerRadius=39.37mil|HoleSize=0mil|Usage=FLASHONLY|Rotation=0.000|XOffset=0mil|YOffset=0mil|HoleType=Round|Shape=RoundedRectangle|*
%AMROUNDEDRECTD27*
21,1,0.15748,0.07874,0,0,0.0*
21,1,0.07874,0.15748,0,0,0.0*
1,1,0.07874,0.03937,-0.03937*
1,1,0.07874,-0.03937,-0.03937*
1,1,0.07874,-0.03937,0.03937*
1,1,0.07874,0.03937,0.03937*
%
%ADD27ROUNDEDRECTD27*%
%ADD28O,0.08268X0.05512*%
%ADD29C,0.02756*%
G36*
X489347Y270496D02*
X305929D01*
Y386984D01*
X489347D01*
Y270496D01*
D02*
G37*
%LPC*%
G36*
X448228Y355746D02*
X445472D01*
X444597Y355630D01*
X443781Y355292D01*
X443080Y354754D01*
X442542Y354054D01*
X442204Y353238D01*
X442089Y352362D01*
X442204Y351486D01*
X442542Y350671D01*
X443080Y349970D01*
X443781Y349432D01*
X444597Y349094D01*
X445472Y348979D01*
X448228D01*
X449104Y349094D01*
X449920Y349432D01*
X450621Y349970D01*
X451158Y350671D01*
X451496Y351486D01*
X451612Y352362D01*
X451496Y353238D01*
X451158Y354054D01*
X450621Y354754D01*
X449920Y355292D01*
X449104Y355630D01*
X448228Y355746D01*
D02*
G37*
G36*
X332087Y316375D02*
X329331D01*
X328455Y316260D01*
X327639Y315922D01*
X326938Y315385D01*
X326401Y314684D01*
X326063Y313868D01*
X325947Y312992D01*
X326063Y312117D01*
X326401Y311300D01*
X326938Y310600D01*
X327639Y310062D01*
X328455Y309724D01*
X329331Y309609D01*
X332087D01*
X332962Y309724D01*
X333778Y310062D01*
X334479Y310600D01*
X335017Y311300D01*
X335355Y312117D01*
X335470Y312992D01*
X335355Y313868D01*
X335017Y314684D01*
X334479Y315385D01*
X333778Y315922D01*
X332962Y316260D01*
X332087Y316375D01*
D02*
G37*
G36*
X476378Y311661D02*
X468504D01*
X467320Y311505D01*
X466217Y311048D01*
X465269Y310321D01*
X464542Y309374D01*
X464085Y308271D01*
X463929Y307087D01*
Y299213D01*
X464085Y298029D01*
X464542Y296925D01*
X465269Y295978D01*
X466217Y295251D01*
X467320Y294794D01*
X468504Y294638D01*
X476378D01*
X477562Y294794D01*
X478665Y295251D01*
X479613Y295978D01*
X480340Y296925D01*
X480797Y298029D01*
X480953Y299213D01*
Y307087D01*
X480797Y308271D01*
X480340Y309374D01*
X479613Y310321D01*
X478665Y311048D01*
X477562Y311505D01*
X476378Y311661D01*
D02*
G37*
G36*
X334646Y295913D02*
X326772D01*
X325588Y295757D01*
X324484Y295300D01*
X323537Y294573D01*
X322810Y293626D01*
X322353Y292523D01*
X322197Y291339D01*
Y283465D01*
X322353Y282281D01*
X322810Y281177D01*
X323537Y280230D01*
X324484Y279503D01*
X325588Y279046D01*
X326772Y278890D01*
X334646D01*
X335830Y279046D01*
X336933Y279503D01*
X337880Y280230D01*
X338607Y281177D01*
X339064Y282281D01*
X339220Y283465D01*
Y291339D01*
X339064Y292523D01*
X338607Y293626D01*
X337880Y294573D01*
X336933Y295300D01*
X335830Y295757D01*
X334646Y295913D01*
D02*
G37*
%LPD*%
D27*
X478346Y364173D02*
D03*
X330709Y368110D02*
D03*
X472441Y303150D02*
D03*
X330709Y287402D02*
D03*
D28*
X446850Y352362D02*
D03*
Y366142D02*
D03*
X330709Y312992D02*
D03*
Y326772D02*
D03*
D29*
X472441Y377953D02*
D03*
Y354331D02*
D03*
X478346Y342520D02*
D03*
X472441Y330709D02*
D03*
X478346Y318898D02*
D03*
X460630Y377953D02*
D03*
X466535Y366142D02*
D03*
X448819Y377953D02*
D03*
X454724Y366142D02*
D03*
X437008Y377953D02*
D03*
X425197D02*
D03*
X431102Y366142D02*
D03*
X425197Y354331D02*
D03*
Y283465D02*
D03*
X413386Y377953D02*
D03*
Y330709D02*
D03*
X419291Y318898D02*
D03*
X413386Y283465D02*
D03*
X401575Y377953D02*
D03*
X407480Y366142D02*
D03*
X401575Y354331D02*
D03*
Y330709D02*
D03*
X407480Y318898D02*
D03*
X401575Y307086D02*
D03*
X407480Y295275D02*
D03*
X401575Y283465D02*
D03*
X389764Y377953D02*
D03*
X395669Y295275D02*
D03*
X377953Y377953D02*
D03*
X383858Y295275D02*
D03*
X366142Y377953D02*
D03*
Y283465D02*
D03*
X354331Y377953D02*
D03*
X360236Y366142D02*
D03*
X354331Y354331D02*
D03*
X360236Y342520D02*
D03*
X354331Y330709D02*
D03*
Y283465D02*
D03*
X342520Y377953D02*
D03*
X348425Y366142D02*
D03*
X342520Y354331D02*
D03*
X348425Y342520D02*
D03*
X342520Y330709D02*
D03*
X330709Y377953D02*
D03*
Y354331D02*
D03*
X336614Y342520D02*
D03*
X318898Y377953D02*
D03*
Y354331D02*
D03*
X324803Y342520D02*
D03*
X318898Y330709D02*
D03*
M02*
