G04*
G04 #@! TF.GenerationSoftware,Altium Limited,Altium Designer,21.1.1 (26)*
G04*
G04 Layer_Color=65535*
%FSLAX25Y25*%
%MOIN*%
G70*
G04*
G04 #@! TF.SameCoordinates,9BCB9740-BAEC-44A0-B6CA-C752D964FD41*
G04*
G04*
G04 #@! TF.FilePolarity,Positive*
G04*
G01*
G75*
%ADD10C,0.00787*%
%ADD11C,0.01000*%
%ADD12C,0.00591*%
G36*
X324053Y334154D02*
X324833Y334518D01*
X326461Y335070D01*
X328140Y335443D01*
X329849Y335630D01*
X331568D01*
X333278Y335443D01*
X334957Y335070D01*
X336585Y334518D01*
X337364Y334154D01*
Y334154D01*
X324053Y334154D01*
D02*
G37*
G36*
X440195Y373524D02*
X440974Y373888D01*
X442602Y374441D01*
X444281Y374813D01*
X445991Y375000D01*
X447710D01*
X449419Y374813D01*
X451098Y374441D01*
X452727Y373888D01*
X453506Y373524D01*
Y373524D01*
X440195Y373524D01*
D02*
G37*
G36*
X488394Y328729D02*
X488429Y328717D01*
X488463Y328694D01*
X488475Y328682D01*
X488487Y328660D01*
X488498Y328613D01*
X488510Y328556D01*
Y328533D01*
X488521Y328486D01*
Y328164D01*
X488510Y328095D01*
Y328083D01*
X488498Y328048D01*
X488487Y328014D01*
X488475Y327979D01*
Y327968D01*
X488463Y327956D01*
X488429Y327910D01*
X488417Y327899D01*
X488360Y327864D01*
X483206Y326111D01*
Y326100D01*
X488348Y324405D01*
X488360D01*
X488371Y324393D01*
X488429Y324370D01*
X488441D01*
X488452Y324347D01*
X488475Y324301D01*
Y324290D01*
X488487Y324267D01*
X488498Y324232D01*
X488510Y324174D01*
Y324163D01*
X488521Y324105D01*
Y323863D01*
X488510Y323782D01*
X488498Y323713D01*
Y323702D01*
X488487Y323667D01*
X488475Y323621D01*
X488452Y323598D01*
X488429Y323586D01*
X488406Y323575D01*
X488360D01*
X488348D01*
X488314D01*
X488268Y323598D01*
X488198Y323621D01*
X482514Y325604D01*
X482503D01*
X482491Y325616D01*
X482433Y325662D01*
Y325673D01*
X482410Y325685D01*
X482387Y325754D01*
Y325765D01*
X482376Y325788D01*
Y325846D01*
X482364Y325904D01*
Y325973D01*
X482353Y326042D01*
Y326273D01*
X482364Y326330D01*
Y326377D01*
X482376Y326457D01*
Y326492D01*
X482387Y326561D01*
X482399Y326584D01*
X482410Y326630D01*
X482422Y326642D01*
X482456Y326676D01*
X482479Y326688D01*
X482526Y326699D01*
X488198Y328694D01*
X488221D01*
X488256Y328717D01*
X488314Y328729D01*
X488360Y328740D01*
X488371D01*
X488394Y328729D01*
D02*
G37*
G36*
X485650Y322918D02*
X485823Y322906D01*
X486031Y322883D01*
X486250Y322860D01*
X486480Y322814D01*
X486699Y322756D01*
X486711D01*
X486723Y322745D01*
X486757Y322733D01*
X486803Y322722D01*
X486907Y322687D01*
X487057Y322629D01*
X487207Y322549D01*
X487380Y322468D01*
X487553Y322364D01*
X487714Y322237D01*
X487737Y322226D01*
X487783Y322180D01*
X487852Y322099D01*
X487945Y321995D01*
X488049Y321868D01*
X488152Y321730D01*
X488256Y321557D01*
X488348Y321373D01*
Y321361D01*
X488360Y321349D01*
X488383Y321280D01*
X488417Y321165D01*
X488463Y321015D01*
X488510Y320842D01*
X488544Y320623D01*
X488567Y320392D01*
X488579Y320139D01*
Y320023D01*
X488567Y319897D01*
X488556Y319735D01*
X488533Y319551D01*
X488487Y319355D01*
X488441Y319159D01*
X488371Y318963D01*
Y318951D01*
X488360Y318940D01*
X488337Y318882D01*
X488291Y318790D01*
X488221Y318674D01*
X488129Y318536D01*
X488037Y318398D01*
X487910Y318259D01*
X487772Y318133D01*
X487760Y318121D01*
X487703Y318075D01*
X487622Y318017D01*
X487506Y317948D01*
X487368Y317867D01*
X487207Y317787D01*
X487022Y317706D01*
X486815Y317637D01*
X486803D01*
X486792Y317625D01*
X486757D01*
X486711Y317614D01*
X486596Y317579D01*
X486434Y317545D01*
X486238Y317522D01*
X486019Y317487D01*
X485766Y317475D01*
X485500Y317464D01*
X485489D01*
X485466D01*
X485431D01*
X485373D01*
X485304D01*
X485235Y317475D01*
X485051Y317487D01*
X484843Y317510D01*
X484613Y317545D01*
X484382Y317591D01*
X484151Y317648D01*
X484140D01*
X484128Y317660D01*
X484094Y317671D01*
X484048Y317683D01*
X483944Y317718D01*
X483805Y317775D01*
X483644Y317856D01*
X483471Y317936D01*
X483298Y318040D01*
X483137Y318167D01*
X483114Y318179D01*
X483068Y318225D01*
X482998Y318305D01*
X482906Y318409D01*
X482802Y318536D01*
X482698Y318686D01*
X482595Y318847D01*
X482503Y319043D01*
X482491Y319067D01*
X482468Y319136D01*
X482433Y319239D01*
X482399Y319389D01*
X482353Y319574D01*
X482318Y319781D01*
X482295Y320012D01*
X482283Y320266D01*
Y320381D01*
X482295Y320508D01*
X482306Y320669D01*
X482330Y320854D01*
X482364Y321050D01*
X482410Y321257D01*
X482479Y321453D01*
X482491Y321476D01*
X482514Y321534D01*
X482572Y321626D01*
X482629Y321753D01*
X482722Y321880D01*
X482825Y322018D01*
X482941Y322168D01*
X483079Y322295D01*
X483102Y322306D01*
X483148Y322353D01*
X483229Y322410D01*
X483344Y322479D01*
X483483Y322560D01*
X483656Y322629D01*
X483840Y322710D01*
X484048Y322779D01*
X484059D01*
X484071Y322791D01*
X484105D01*
X484151Y322802D01*
X484278Y322825D01*
X484440Y322848D01*
X484636Y322883D01*
X484866Y322906D01*
X485120Y322918D01*
X485397Y322929D01*
X485408D01*
X485431D01*
X485466D01*
X485523D01*
X485581D01*
X485650Y322918D01*
D02*
G37*
G36*
X488429Y316173D02*
X488441D01*
X488452Y316149D01*
X488475Y316103D01*
Y316092D01*
X488487Y316069D01*
Y316034D01*
X488498Y315988D01*
Y315977D01*
X488510Y315930D01*
X488521Y315861D01*
Y315711D01*
X488510Y315654D01*
X488498Y315596D01*
Y315584D01*
X488487Y315550D01*
Y315504D01*
X488475Y315469D01*
Y315458D01*
X488463Y315446D01*
X488429Y315400D01*
X488417Y315388D01*
X488360Y315377D01*
X484659D01*
X484636D01*
X484589D01*
X484509Y315365D01*
X484405D01*
X484290Y315354D01*
X484163Y315331D01*
X483921Y315273D01*
X483909D01*
X483875Y315250D01*
X483805Y315227D01*
X483736Y315192D01*
X483563Y315112D01*
X483390Y314985D01*
X483379Y314973D01*
X483356Y314950D01*
X483321Y314904D01*
X483275Y314846D01*
X483229Y314777D01*
X483171Y314697D01*
X483079Y314512D01*
Y314501D01*
X483068Y314466D01*
X483044Y314408D01*
X483033Y314328D01*
X483010Y314235D01*
X482987Y314132D01*
X482975Y313890D01*
Y313832D01*
X482987Y313763D01*
Y313670D01*
X482998Y313578D01*
X483021Y313474D01*
X483079Y313255D01*
Y313244D01*
X483102Y313209D01*
X483125Y313163D01*
X483160Y313094D01*
X483252Y312944D01*
X483390Y312794D01*
X483402Y312783D01*
X483425Y312760D01*
X483471Y312725D01*
X483529Y312679D01*
X483609Y312633D01*
X483690Y312587D01*
X483898Y312494D01*
X483909D01*
X483955Y312483D01*
X484013Y312460D01*
X484105Y312437D01*
X484209Y312425D01*
X484336Y312402D01*
X484474Y312391D01*
X484624D01*
X488360D01*
X488371D01*
X488383D01*
X488429Y312379D01*
X488441D01*
X488452Y312356D01*
X488475Y312310D01*
Y312298D01*
X488487Y312275D01*
Y312241D01*
X488498Y312195D01*
Y312183D01*
X488510Y312137D01*
X488521Y312068D01*
Y311918D01*
X488510Y311860D01*
X488498Y311803D01*
Y311791D01*
X488487Y311756D01*
Y311710D01*
X488475Y311676D01*
Y311664D01*
X488463Y311653D01*
X488429Y311607D01*
X488417Y311595D01*
X488360Y311583D01*
X484624D01*
X484613D01*
X484601D01*
X484532D01*
X484428Y311595D01*
X484290Y311607D01*
X484140Y311630D01*
X483978Y311653D01*
X483805Y311699D01*
X483633Y311756D01*
X483609Y311768D01*
X483563Y311791D01*
X483483Y311826D01*
X483379Y311872D01*
X483263Y311941D01*
X483137Y312022D01*
X483010Y312114D01*
X482895Y312218D01*
X482883Y312229D01*
X482848Y312275D01*
X482791Y312333D01*
X482722Y312425D01*
X482652Y312529D01*
X482572Y312656D01*
X482503Y312794D01*
X482433Y312956D01*
X482422Y312979D01*
X482410Y313025D01*
X482387Y313117D01*
X482364Y313232D01*
X482330Y313382D01*
X482306Y313544D01*
X482295Y313740D01*
X482283Y313936D01*
Y314016D01*
X482295Y314120D01*
X482306Y314235D01*
X482318Y314385D01*
X482341Y314535D01*
X482376Y314697D01*
X482422Y314858D01*
X482433Y314881D01*
X482445Y314927D01*
X482479Y315008D01*
X482537Y315100D01*
X482595Y315215D01*
X482676Y315331D01*
X482756Y315458D01*
X482860Y315573D01*
X482871Y315584D01*
X482918Y315619D01*
X482975Y315677D01*
X483056Y315746D01*
X483160Y315815D01*
X483287Y315896D01*
X483425Y315965D01*
X483575Y316034D01*
X483598Y316046D01*
X483656Y316057D01*
X483736Y316080D01*
X483863Y316103D01*
X484001Y316138D01*
X484174Y316161D01*
X484359Y316173D01*
X484566Y316184D01*
X488360D01*
X488371D01*
X488383D01*
X488429Y316173D01*
D02*
G37*
G36*
X488291Y310707D02*
X488302D01*
X488325Y310696D01*
X488360D01*
X488394Y310684D01*
X488406D01*
X488417Y310673D01*
X488463Y310638D01*
Y310627D01*
X488475Y310615D01*
X488487Y310569D01*
Y306291D01*
X488463Y306257D01*
Y306245D01*
X488452Y306234D01*
X488394Y306199D01*
X488383D01*
X488371Y306188D01*
X488337Y306176D01*
X488291Y306164D01*
X488279D01*
X488244Y306153D01*
X488198D01*
X488129D01*
X488118D01*
X488071D01*
X488025D01*
X487968Y306164D01*
X487956D01*
X487933Y306176D01*
X487864Y306199D01*
X487841Y306210D01*
X487806Y306257D01*
Y306268D01*
X487795Y306314D01*
Y308032D01*
X482503D01*
X482491D01*
X482479D01*
X482422Y308055D01*
X482410Y308067D01*
X482387Y308124D01*
Y308136D01*
X482376Y308159D01*
Y308194D01*
X482364Y308251D01*
Y308297D01*
X482353Y308355D01*
Y308563D01*
X482364Y308632D01*
Y308643D01*
X482376Y308678D01*
Y308724D01*
X482387Y308759D01*
Y308770D01*
X482399Y308782D01*
X482422Y308828D01*
X482433D01*
X482445D01*
X482503Y308839D01*
X487795D01*
Y310592D01*
X487806Y310638D01*
X487818Y310650D01*
X487864Y310684D01*
X487876D01*
X487899Y310696D01*
X487968Y310707D01*
X487979D01*
X488014D01*
X488060Y310719D01*
X488129D01*
X488141D01*
X488187D01*
X488233D01*
X488291Y310707D01*
D02*
G37*
G36*
X477672Y352351D02*
X477753D01*
X477926Y352339D01*
X478134Y352305D01*
X478353Y352270D01*
X478572Y352212D01*
X478802Y352143D01*
X478814D01*
X478825Y352132D01*
X478860Y352120D01*
X478906Y352097D01*
X479010Y352051D01*
X479148Y351982D01*
X479310Y351901D01*
X479471Y351797D01*
X479644Y351670D01*
X479806Y351532D01*
X479829Y351509D01*
X479875Y351463D01*
X479944Y351371D01*
X480048Y351255D01*
X480151Y351117D01*
X480255Y350956D01*
X480359Y350771D01*
X480451Y350575D01*
Y350564D01*
X480463Y350552D01*
X480474Y350517D01*
X480486Y350471D01*
X480520Y350356D01*
X480567Y350206D01*
X480613Y350022D01*
X480647Y349814D01*
X480670Y349584D01*
X480682Y349330D01*
Y349203D01*
X480670Y349122D01*
Y349019D01*
X480659Y348915D01*
X480613Y348684D01*
Y348673D01*
X480601Y348626D01*
X480589Y348569D01*
X480578Y348500D01*
X480532Y348315D01*
X480474Y348131D01*
Y348119D01*
X480463Y348085D01*
X480440Y348050D01*
X480417Y347992D01*
X480359Y347854D01*
X480290Y347727D01*
Y347716D01*
X480278Y347704D01*
X480232Y347635D01*
X480186Y347566D01*
X480140Y347508D01*
X480128Y347497D01*
X480105Y347474D01*
X480059Y347450D01*
X480001Y347427D01*
X479990Y347416D01*
X479944Y347404D01*
X479863Y347393D01*
X479759D01*
X479748D01*
X479713D01*
X479667D01*
X479609Y347404D01*
X479598D01*
X479575Y347416D01*
X479494Y347439D01*
X479483D01*
X479471Y347450D01*
X479425Y347485D01*
Y347497D01*
X479414Y347543D01*
Y347554D01*
X479425Y347589D01*
X479448Y347646D01*
X479494Y347739D01*
X479506Y347762D01*
X479552Y347831D01*
X479621Y347946D01*
X479690Y348096D01*
Y348108D01*
X479713Y348131D01*
X479736Y348177D01*
X479759Y348246D01*
X479794Y348327D01*
X479829Y348407D01*
X479863Y348511D01*
X479898Y348626D01*
Y348638D01*
X479909Y348684D01*
X479932Y348742D01*
X479944Y348834D01*
X479967Y348938D01*
X479978Y349065D01*
X479990Y349203D01*
Y349434D01*
X479978Y349537D01*
X479967Y349653D01*
X479944Y349802D01*
X479909Y349952D01*
X479863Y350114D01*
X479806Y350264D01*
X479794Y350275D01*
X479771Y350333D01*
X479725Y350402D01*
X479667Y350494D01*
X479598Y350598D01*
X479506Y350713D01*
X479402Y350829D01*
X479287Y350944D01*
X479275Y350956D01*
X479229Y350990D01*
X479160Y351036D01*
X479068Y351105D01*
X478952Y351175D01*
X478825Y351244D01*
X478676Y351313D01*
X478514Y351371D01*
X478491D01*
X478433Y351394D01*
X478341Y351417D01*
X478226Y351440D01*
X478076Y351463D01*
X477915Y351486D01*
X477742Y351497D01*
X477546Y351509D01*
X477534D01*
X477523D01*
X477488D01*
X477442D01*
X477338Y351497D01*
X477200Y351486D01*
X477027Y351474D01*
X476854Y351440D01*
X476669Y351405D01*
X476496Y351348D01*
X476473Y351336D01*
X476427Y351313D01*
X476335Y351278D01*
X476231Y351232D01*
X476116Y351163D01*
X475989Y351094D01*
X475862Y351002D01*
X475735Y350898D01*
X475724Y350886D01*
X475689Y350852D01*
X475632Y350783D01*
X475562Y350702D01*
X475482Y350610D01*
X475401Y350494D01*
X475332Y350356D01*
X475263Y350218D01*
X475251Y350195D01*
X475240Y350148D01*
X475216Y350068D01*
X475194Y349952D01*
X475159Y349826D01*
X475136Y349676D01*
X475124Y349503D01*
X475113Y349330D01*
Y349226D01*
X475124Y349157D01*
Y349065D01*
X475136Y348972D01*
X475170Y348765D01*
Y348753D01*
X475182Y348719D01*
X475205Y348661D01*
X475228Y348580D01*
X475251Y348500D01*
X475286Y348407D01*
X475378Y348211D01*
X477165D01*
Y349653D01*
X477177Y349687D01*
X477200Y349722D01*
X477234Y349756D01*
X477246D01*
X477292Y349768D01*
X477373Y349780D01*
X477488Y349791D01*
X477499D01*
X477546D01*
X477592D01*
X477638D01*
X477649D01*
X477672Y349780D01*
X477707Y349768D01*
X477742Y349756D01*
X477753D01*
X477765Y349745D01*
X477811Y349710D01*
Y349699D01*
X477822Y349687D01*
X477834Y349641D01*
Y347658D01*
X477811Y347600D01*
Y347589D01*
X477799Y347566D01*
X477753Y347508D01*
X477742Y347497D01*
X477730Y347485D01*
X477696Y347462D01*
X477649Y347439D01*
X477638Y347427D01*
X477603Y347416D01*
X477557Y347404D01*
X477499D01*
X475170D01*
X475147D01*
X475101D01*
X475032Y347427D01*
X474963Y347450D01*
X474951Y347462D01*
X474905Y347485D01*
X474859Y347543D01*
X474801Y347635D01*
Y347646D01*
X474790Y347658D01*
X474778Y347692D01*
X474755Y347727D01*
X474709Y347842D01*
X474652Y347992D01*
Y348004D01*
X474640Y348027D01*
X474628Y348073D01*
X474606Y348119D01*
X474559Y348269D01*
X474513Y348430D01*
Y348442D01*
X474502Y348465D01*
Y348511D01*
X474490Y348580D01*
X474467Y348730D01*
X474444Y348903D01*
Y348938D01*
X474433Y348984D01*
Y349042D01*
X474421Y349191D01*
X474409Y349364D01*
Y349480D01*
X474421Y349549D01*
Y349618D01*
X474433Y349791D01*
X474467Y349987D01*
X474502Y350206D01*
X474559Y350425D01*
X474628Y350644D01*
Y350656D01*
X474640Y350667D01*
X474675Y350736D01*
X474721Y350840D01*
X474790Y350967D01*
X474882Y351117D01*
X474986Y351267D01*
X475113Y351428D01*
X475251Y351578D01*
X475274Y351590D01*
X475320Y351636D01*
X475413Y351705D01*
X475528Y351797D01*
X475666Y351889D01*
X475828Y351982D01*
X476012Y352085D01*
X476220Y352166D01*
X476231D01*
X476243Y352178D01*
X476277Y352189D01*
X476323Y352201D01*
X476439Y352224D01*
X476589Y352258D01*
X476773Y352305D01*
X476992Y352328D01*
X477234Y352351D01*
X477488Y352362D01*
X477499D01*
X477523D01*
X477557D01*
X477615D01*
X477672Y352351D01*
D02*
G37*
G36*
X480347Y345871D02*
X480440Y345836D01*
X480520Y345779D01*
X480532Y345756D01*
X480567Y345709D01*
X480589Y345640D01*
X480601Y345548D01*
Y345064D01*
X480589Y344994D01*
X480567Y344914D01*
Y344902D01*
X480543Y344856D01*
X480520Y344810D01*
X480486Y344752D01*
X480474Y344741D01*
X480451Y344706D01*
X480405Y344660D01*
X480336Y344602D01*
X480324Y344591D01*
X480278Y344556D01*
X480197Y344510D01*
X480105Y344453D01*
X477419Y343011D01*
X477407Y343000D01*
X477373Y342988D01*
X477326Y342965D01*
X477269Y342931D01*
X477107Y342850D01*
X476934Y342758D01*
X476923Y342746D01*
X476900Y342735D01*
X476854Y342712D01*
X476796Y342677D01*
X476646Y342596D01*
X476473Y342516D01*
X476462D01*
X476439Y342493D01*
X476393Y342470D01*
X476335Y342446D01*
X476197Y342366D01*
X476035Y342285D01*
X476024D01*
X476001Y342262D01*
X475954Y342239D01*
X475897Y342216D01*
X475758Y342147D01*
X475597Y342066D01*
Y342054D01*
X475609D01*
X475666D01*
X475735D01*
X475828D01*
X475943Y342066D01*
X476081D01*
X476369D01*
X476393D01*
X476439D01*
X476519D01*
X476623D01*
X476739D01*
X476865D01*
X477142D01*
X480451D01*
X480463D01*
X480474D01*
X480509Y342054D01*
X480520D01*
X480532Y342031D01*
X480567Y341985D01*
Y341974D01*
X480578Y341951D01*
X480589Y341916D01*
X480601Y341870D01*
Y341858D01*
X480613Y341812D01*
Y341535D01*
X480601Y341478D01*
Y341466D01*
X480589Y341432D01*
X480578Y341386D01*
X480567Y341351D01*
Y341339D01*
X480555Y341328D01*
X480509Y341282D01*
X480497Y341270D01*
X480451Y341259D01*
X474824D01*
X474813D01*
X474767D01*
X474721Y341270D01*
X474663Y341293D01*
X474652Y341305D01*
X474628Y341316D01*
X474548Y341386D01*
Y341397D01*
X474525Y341420D01*
X474513Y341455D01*
X474490Y341501D01*
Y341535D01*
X474479Y341616D01*
Y341962D01*
X474490Y342031D01*
X474502Y342112D01*
Y342124D01*
X474525Y342170D01*
X474548Y342227D01*
X474594Y342297D01*
X474606Y342308D01*
X474640Y342343D01*
X474698Y342400D01*
X474778Y342458D01*
X474790D01*
X474801Y342470D01*
X474871Y342516D01*
X474963Y342573D01*
X475090Y342642D01*
X478560Y344522D01*
X478572Y344533D01*
X478606Y344545D01*
X478664Y344568D01*
X478733Y344614D01*
X478814Y344649D01*
X478906Y344706D01*
X479114Y344810D01*
X479125Y344822D01*
X479160Y344833D01*
X479229Y344868D01*
X479298Y344902D01*
X479390Y344948D01*
X479483Y344994D01*
X479690Y345087D01*
Y345098D01*
X479679D01*
X479633D01*
X479563D01*
X479483Y345087D01*
X479379D01*
X479252D01*
X478998D01*
X478987D01*
X478941D01*
X478872D01*
X478779Y345075D01*
X478676D01*
X478560D01*
X478295D01*
X474617D01*
X474594D01*
X474548Y345098D01*
X474525Y345110D01*
X474502Y345167D01*
Y345179D01*
X474490Y345202D01*
Y345237D01*
X474479Y345294D01*
Y345340D01*
X474467Y345410D01*
Y345617D01*
X474479Y345686D01*
Y345698D01*
X474490Y345721D01*
X474502Y345802D01*
Y345813D01*
X474513Y345825D01*
X474548Y345871D01*
X474559D01*
X474571D01*
X474617Y345882D01*
X480244D01*
X480255D01*
X480278D01*
X480347Y345871D01*
D02*
G37*
G36*
X480370Y339621D02*
X480451Y339598D01*
X480520Y339541D01*
X480532Y339529D01*
X480567Y339483D01*
X480589Y339414D01*
X480601Y339333D01*
Y337811D01*
X480589Y337754D01*
Y337673D01*
X480578Y337489D01*
X480555Y337269D01*
X480509Y337050D01*
X480463Y336820D01*
X480394Y336612D01*
Y336601D01*
X480382Y336589D01*
X480359Y336520D01*
X480313Y336416D01*
X480244Y336289D01*
X480151Y336139D01*
X480059Y335990D01*
X479932Y335840D01*
X479794Y335690D01*
X479782Y335678D01*
X479725Y335632D01*
X479644Y335563D01*
X479540Y335482D01*
X479402Y335390D01*
X479241Y335298D01*
X479056Y335206D01*
X478860Y335125D01*
X478849D01*
X478837Y335113D01*
X478802Y335102D01*
X478768Y335090D01*
X478652Y335067D01*
X478503Y335021D01*
X478318Y334986D01*
X478111Y334963D01*
X477880Y334940D01*
X477626Y334929D01*
X477615D01*
X477592D01*
X477546D01*
X477488D01*
X477419Y334940D01*
X477350D01*
X477154Y334952D01*
X476934Y334975D01*
X476704Y335021D01*
X476473Y335067D01*
X476243Y335136D01*
X476231D01*
X476220Y335148D01*
X476151Y335171D01*
X476035Y335217D01*
X475897Y335286D01*
X475747Y335379D01*
X475586Y335471D01*
X475413Y335598D01*
X475263Y335736D01*
X475251Y335748D01*
X475194Y335805D01*
X475124Y335886D01*
X475044Y336001D01*
X474951Y336139D01*
X474848Y336301D01*
X474755Y336485D01*
X474675Y336693D01*
Y336704D01*
X474663Y336716D01*
Y336751D01*
X474652Y336797D01*
X474617Y336912D01*
X474582Y337073D01*
X474548Y337269D01*
X474525Y337500D01*
X474502Y337754D01*
X474490Y338042D01*
Y339356D01*
X474502Y339403D01*
X474525Y339472D01*
X474559Y339541D01*
X474571Y339552D01*
X474617Y339587D01*
X474698Y339621D01*
X474813Y339633D01*
X480267D01*
X480278D01*
X480301D01*
X480370Y339621D01*
D02*
G37*
G36*
X347440Y305107D02*
X347451D01*
X347475Y305095D01*
X347509Y305072D01*
X347544Y305061D01*
X347555D01*
X347567Y305049D01*
X347613Y305014D01*
Y305003D01*
X347624Y304991D01*
X347636Y304945D01*
Y303389D01*
X349342D01*
X349354D01*
X349365D01*
X349412Y303377D01*
X349423D01*
X349435Y303365D01*
X349458Y303319D01*
Y303308D01*
X349469Y303285D01*
X349481Y303250D01*
X349492Y303204D01*
Y303193D01*
X349504Y303158D01*
X349515Y303112D01*
Y302985D01*
X349504Y302927D01*
X349492Y302870D01*
Y302858D01*
X349481Y302835D01*
X349469Y302801D01*
X349458Y302766D01*
Y302754D01*
X349446Y302743D01*
X349412Y302708D01*
X349388Y302697D01*
X349342Y302685D01*
X347636D01*
Y301106D01*
X347613Y301071D01*
Y301060D01*
X347601Y301048D01*
X347544Y301013D01*
X347532Y301002D01*
X347521Y300990D01*
X347486Y300979D01*
X347440Y300967D01*
X347428D01*
X347405Y300956D01*
X347348D01*
X347290D01*
X347278D01*
X347232D01*
X347186Y300967D01*
X347129Y300979D01*
X347117D01*
X347094Y300990D01*
X347025Y301013D01*
X347002Y301025D01*
X346967Y301071D01*
Y301094D01*
X346956Y301140D01*
Y302685D01*
X345238D01*
X345226D01*
X345215D01*
X345168Y302708D01*
X345157Y302720D01*
X345122Y302766D01*
Y302778D01*
X345111Y302789D01*
Y302824D01*
X345099Y302870D01*
Y302916D01*
X345088Y302974D01*
Y303147D01*
X345099Y303204D01*
Y303216D01*
X345111Y303239D01*
X345122Y303319D01*
X345134Y303343D01*
X345168Y303377D01*
X345192D01*
X345238Y303389D01*
X346956D01*
Y304957D01*
X346967Y305014D01*
X346979Y305026D01*
X347025Y305061D01*
X347036D01*
X347059Y305072D01*
X347129Y305107D01*
X347140D01*
X347175D01*
X347221Y305118D01*
X347290D01*
X347302D01*
X347348D01*
X347394D01*
X347440Y305107D01*
D02*
G37*
G36*
X346633Y300379D02*
X346644D01*
X346667Y300368D01*
X346737Y300333D01*
X346748D01*
X346771Y300322D01*
X346817Y300299D01*
X346863Y300275D01*
X350576Y298096D01*
X350588D01*
X350599Y298073D01*
X350634Y298027D01*
X350645Y298016D01*
X350657Y297993D01*
X350668Y297958D01*
X350680Y297912D01*
Y297900D01*
X350691Y297854D01*
X350703Y297797D01*
X350714Y297727D01*
Y297704D01*
X350726Y297658D01*
Y297393D01*
X350714Y297301D01*
X350703Y297208D01*
Y297185D01*
X350691Y297139D01*
X350680Y297082D01*
X350668Y297024D01*
Y297012D01*
X350657Y296978D01*
X350645Y296943D01*
X350622Y296909D01*
Y296897D01*
X350611Y296886D01*
X350588Y296874D01*
X350553Y296863D01*
X346656D01*
Y296171D01*
X346644Y296136D01*
X346621Y296090D01*
X346564Y296056D01*
X346552Y296044D01*
X346506Y296021D01*
X346425Y296009D01*
X346322Y295998D01*
X346310D01*
X346298D01*
X346229D01*
X346148Y296021D01*
X346068Y296044D01*
X346056Y296056D01*
X346033Y296079D01*
X345999Y296125D01*
X345987Y296182D01*
Y296863D01*
X344696D01*
X344673D01*
X344626Y296886D01*
X344615Y296897D01*
X344592Y296955D01*
Y296966D01*
X344580Y296989D01*
Y297024D01*
X344569Y297082D01*
Y297139D01*
X344557Y297197D01*
Y297405D01*
X344569Y297474D01*
Y297485D01*
X344580Y297520D01*
Y297566D01*
X344592Y297601D01*
Y297612D01*
X344603Y297624D01*
X344615Y297647D01*
X344626Y297658D01*
X344638D01*
X344650D01*
X344696Y297670D01*
X345987D01*
Y300218D01*
X345999Y300275D01*
X346010Y300299D01*
X346045Y300345D01*
X346056D01*
X346079Y300356D01*
X346114Y300368D01*
X346160Y300379D01*
X346172D01*
X346206D01*
X346264Y300391D01*
X346344D01*
X346356D01*
X346391D01*
X346437D01*
X346494D01*
X346506D01*
X346540D01*
X346633Y300379D01*
D02*
G37*
G36*
X347867Y295375D02*
X348039D01*
X348235Y295364D01*
X348454Y295341D01*
X348674Y295318D01*
X348893Y295283D01*
X348904D01*
X348916Y295271D01*
X348950D01*
X348996Y295260D01*
X349100Y295237D01*
X349238Y295191D01*
X349400Y295145D01*
X349561Y295075D01*
X349734Y295006D01*
X349896Y294914D01*
X349919Y294902D01*
X349965Y294868D01*
X350046Y294810D01*
X350138Y294730D01*
X350242Y294637D01*
X350357Y294522D01*
X350461Y294395D01*
X350553Y294245D01*
X350565Y294222D01*
X350588Y294165D01*
X350622Y294084D01*
X350668Y293957D01*
X350714Y293807D01*
X350749Y293634D01*
X350772Y293438D01*
X350784Y293219D01*
Y293115D01*
X350772Y293012D01*
X350761Y292873D01*
X350737Y292723D01*
X350691Y292562D01*
X350645Y292389D01*
X350576Y292239D01*
X350565Y292216D01*
X350541Y292170D01*
X350484Y292101D01*
X350426Y292008D01*
X350334Y291916D01*
X350230Y291801D01*
X350103Y291697D01*
X349965Y291605D01*
X349942Y291593D01*
X349896Y291570D01*
X349815Y291524D01*
X349700Y291467D01*
X349550Y291409D01*
X349388Y291351D01*
X349192Y291305D01*
X348985Y291259D01*
X348973D01*
X348962D01*
X348927Y291248D01*
X348881D01*
X348754Y291225D01*
X348593Y291201D01*
X348397Y291190D01*
X348178Y291167D01*
X347924Y291155D01*
X347647D01*
X347636D01*
X347613D01*
X347578D01*
X347532D01*
X347463D01*
X347394D01*
X347221Y291167D01*
X347025Y291178D01*
X346806Y291201D01*
X346356Y291271D01*
X346344D01*
X346333D01*
X346264Y291294D01*
X346148Y291317D01*
X346010Y291363D01*
X345860Y291409D01*
X345687Y291478D01*
X345514Y291547D01*
X345353Y291639D01*
X345330Y291651D01*
X345284Y291686D01*
X345215Y291743D01*
X345122Y291824D01*
X345019Y291916D01*
X344903Y292032D01*
X344799Y292170D01*
X344707Y292320D01*
X344696Y292343D01*
X344673Y292389D01*
X344638Y292481D01*
X344603Y292608D01*
X344557Y292758D01*
X344523Y292931D01*
X344500Y293127D01*
X344488Y293346D01*
Y293438D01*
X344500Y293553D01*
X344511Y293680D01*
X344534Y293830D01*
X344569Y293992D01*
X344615Y294165D01*
X344684Y294315D01*
X344696Y294326D01*
X344719Y294384D01*
X344776Y294453D01*
X344834Y294545D01*
X344926Y294637D01*
X345030Y294753D01*
X345145Y294856D01*
X345284Y294949D01*
X345307Y294960D01*
X345353Y294983D01*
X345445Y295029D01*
X345561Y295087D01*
X345699Y295145D01*
X345872Y295191D01*
X346068Y295248D01*
X346275Y295294D01*
X346287D01*
X346298D01*
X346333Y295306D01*
X346379D01*
X346506Y295318D01*
X346667Y295341D01*
X346863Y295352D01*
X347082Y295375D01*
X347336Y295387D01*
X347613D01*
X347624D01*
X347647D01*
X347682D01*
X347728D01*
X347797D01*
X347867Y295375D01*
D02*
G37*
G36*
X350599Y290659D02*
X350634Y290648D01*
X350668Y290625D01*
X350680Y290613D01*
X350691Y290590D01*
X350703Y290544D01*
X350714Y290487D01*
Y290463D01*
X350726Y290417D01*
Y290094D01*
X350714Y290025D01*
Y290014D01*
X350703Y289979D01*
X350691Y289945D01*
X350680Y289910D01*
Y289898D01*
X350668Y289887D01*
X350634Y289841D01*
X350622Y289829D01*
X350565Y289795D01*
X345411Y288042D01*
Y288031D01*
X350553Y286336D01*
X350565D01*
X350576Y286324D01*
X350634Y286301D01*
X350645D01*
X350657Y286278D01*
X350680Y286232D01*
Y286220D01*
X350691Y286197D01*
X350703Y286163D01*
X350714Y286105D01*
Y286094D01*
X350726Y286036D01*
Y285794D01*
X350714Y285713D01*
X350703Y285644D01*
Y285632D01*
X350691Y285598D01*
X350680Y285552D01*
X350657Y285529D01*
X350634Y285517D01*
X350611Y285506D01*
X350565D01*
X350553D01*
X350518D01*
X350472Y285529D01*
X350403Y285552D01*
X344719Y287535D01*
X344707D01*
X344696Y287546D01*
X344638Y287593D01*
Y287604D01*
X344615Y287616D01*
X344592Y287685D01*
Y287696D01*
X344580Y287719D01*
Y287777D01*
X344569Y287835D01*
Y287904D01*
X344557Y287973D01*
Y288204D01*
X344569Y288261D01*
Y288307D01*
X344580Y288388D01*
Y288423D01*
X344592Y288492D01*
X344603Y288515D01*
X344615Y288561D01*
X344626Y288573D01*
X344661Y288607D01*
X344684Y288619D01*
X344730Y288630D01*
X350403Y290625D01*
X350426D01*
X350461Y290648D01*
X350518Y290659D01*
X350565Y290671D01*
X350576D01*
X350599Y290659D01*
D02*
G37*
G36*
X349720Y374004D02*
X349800D01*
X349973Y373993D01*
X350181Y373958D01*
X350400Y373923D01*
X350619Y373866D01*
X350850Y373797D01*
X350861D01*
X350873Y373785D01*
X350907Y373774D01*
X350953Y373750D01*
X351057Y373704D01*
X351196Y373635D01*
X351357Y373554D01*
X351518Y373451D01*
X351691Y373324D01*
X351853Y373186D01*
X351876Y373163D01*
X351922Y373116D01*
X351991Y373024D01*
X352095Y372909D01*
X352199Y372771D01*
X352302Y372609D01*
X352406Y372425D01*
X352498Y372229D01*
Y372217D01*
X352510Y372205D01*
X352521Y372171D01*
X352533Y372125D01*
X352568Y372009D01*
X352614Y371860D01*
X352660Y371675D01*
X352694Y371468D01*
X352717Y371237D01*
X352729Y370983D01*
Y370856D01*
X352717Y370776D01*
Y370672D01*
X352706Y370568D01*
X352660Y370338D01*
Y370326D01*
X352648Y370280D01*
X352637Y370222D01*
X352625Y370153D01*
X352579Y369969D01*
X352521Y369784D01*
Y369773D01*
X352510Y369738D01*
X352487Y369704D01*
X352464Y369646D01*
X352406Y369508D01*
X352337Y369381D01*
Y369369D01*
X352326Y369358D01*
X352279Y369288D01*
X352233Y369219D01*
X352187Y369162D01*
X352176Y369150D01*
X352152Y369127D01*
X352106Y369104D01*
X352049Y369081D01*
X352037Y369069D01*
X351991Y369058D01*
X351910Y369046D01*
X351807D01*
X351795D01*
X351761D01*
X351714D01*
X351657Y369058D01*
X351645D01*
X351622Y369069D01*
X351541Y369092D01*
X351530D01*
X351518Y369104D01*
X351472Y369139D01*
Y369150D01*
X351461Y369196D01*
Y369208D01*
X351472Y369242D01*
X351495Y369300D01*
X351541Y369392D01*
X351553Y369415D01*
X351599Y369484D01*
X351668Y369600D01*
X351737Y369750D01*
Y369761D01*
X351761Y369784D01*
X351784Y369830D01*
X351807Y369900D01*
X351841Y369980D01*
X351876Y370061D01*
X351910Y370165D01*
X351945Y370280D01*
Y370291D01*
X351957Y370338D01*
X351980Y370395D01*
X351991Y370488D01*
X352014Y370591D01*
X352026Y370718D01*
X352037Y370856D01*
Y371087D01*
X352026Y371191D01*
X352014Y371306D01*
X351991Y371456D01*
X351957Y371606D01*
X351910Y371767D01*
X351853Y371917D01*
X351841Y371929D01*
X351818Y371987D01*
X351772Y372056D01*
X351714Y372148D01*
X351645Y372252D01*
X351553Y372367D01*
X351449Y372482D01*
X351334Y372598D01*
X351322Y372609D01*
X351276Y372644D01*
X351207Y372690D01*
X351115Y372759D01*
X350999Y372828D01*
X350873Y372897D01*
X350723Y372967D01*
X350561Y373024D01*
X350538D01*
X350481Y373047D01*
X350388Y373070D01*
X350273Y373093D01*
X350123Y373116D01*
X349962Y373139D01*
X349789Y373151D01*
X349593Y373163D01*
X349581D01*
X349570D01*
X349535D01*
X349489D01*
X349385Y373151D01*
X349247Y373139D01*
X349074Y373128D01*
X348901Y373093D01*
X348717Y373059D01*
X348544Y373001D01*
X348521Y372990D01*
X348474Y372967D01*
X348382Y372932D01*
X348278Y372886D01*
X348163Y372817D01*
X348036Y372747D01*
X347909Y372655D01*
X347783Y372551D01*
X347771Y372540D01*
X347737Y372505D01*
X347679Y372436D01*
X347610Y372355D01*
X347529Y372263D01*
X347448Y372148D01*
X347379Y372009D01*
X347310Y371871D01*
X347298Y371848D01*
X347287Y371802D01*
X347264Y371721D01*
X347241Y371606D01*
X347206Y371479D01*
X347183Y371329D01*
X347171Y371156D01*
X347160Y370983D01*
Y370880D01*
X347171Y370810D01*
Y370718D01*
X347183Y370626D01*
X347218Y370418D01*
Y370407D01*
X347229Y370372D01*
X347252Y370315D01*
X347275Y370234D01*
X347298Y370153D01*
X347333Y370061D01*
X347425Y369865D01*
X349212D01*
Y371306D01*
X349224Y371341D01*
X349247Y371375D01*
X349282Y371410D01*
X349293D01*
X349339Y371422D01*
X349420Y371433D01*
X349535Y371445D01*
X349547D01*
X349593D01*
X349639D01*
X349685D01*
X349697D01*
X349720Y371433D01*
X349754Y371422D01*
X349789Y371410D01*
X349800D01*
X349812Y371398D01*
X349858Y371364D01*
Y371352D01*
X349870Y371341D01*
X349881Y371295D01*
Y369311D01*
X349858Y369254D01*
Y369242D01*
X349847Y369219D01*
X349800Y369162D01*
X349789Y369150D01*
X349777Y369139D01*
X349743Y369115D01*
X349697Y369092D01*
X349685Y369081D01*
X349651Y369069D01*
X349604Y369058D01*
X349547D01*
X347218D01*
X347195D01*
X347148D01*
X347079Y369081D01*
X347010Y369104D01*
X346999Y369115D01*
X346953Y369139D01*
X346906Y369196D01*
X346849Y369288D01*
Y369300D01*
X346837Y369311D01*
X346826Y369346D01*
X346803Y369381D01*
X346757Y369496D01*
X346699Y369646D01*
Y369657D01*
X346687Y369681D01*
X346676Y369727D01*
X346653Y369773D01*
X346607Y369923D01*
X346561Y370084D01*
Y370095D01*
X346549Y370119D01*
Y370165D01*
X346537Y370234D01*
X346514Y370384D01*
X346491Y370557D01*
Y370591D01*
X346480Y370637D01*
Y370695D01*
X346468Y370845D01*
X346457Y371018D01*
Y371133D01*
X346468Y371202D01*
Y371272D01*
X346480Y371445D01*
X346514Y371640D01*
X346549Y371860D01*
X346607Y372079D01*
X346676Y372298D01*
Y372309D01*
X346687Y372321D01*
X346722Y372390D01*
X346768Y372494D01*
X346837Y372621D01*
X346929Y372771D01*
X347033Y372920D01*
X347160Y373082D01*
X347298Y373232D01*
X347321Y373243D01*
X347368Y373289D01*
X347460Y373358D01*
X347575Y373451D01*
X347713Y373543D01*
X347875Y373635D01*
X348059Y373739D01*
X348267Y373820D01*
X348278D01*
X348290Y373831D01*
X348324Y373843D01*
X348371Y373854D01*
X348486Y373877D01*
X348636Y373912D01*
X348820Y373958D01*
X349039Y373981D01*
X349282Y374004D01*
X349535Y374016D01*
X349547D01*
X349570D01*
X349604D01*
X349662D01*
X349720Y374004D01*
D02*
G37*
G36*
X352395Y367524D02*
X352487Y367490D01*
X352568Y367432D01*
X352579Y367409D01*
X352614Y367363D01*
X352637Y367294D01*
X352648Y367201D01*
Y366717D01*
X352637Y366648D01*
X352614Y366567D01*
Y366556D01*
X352591Y366510D01*
X352568Y366464D01*
X352533Y366406D01*
X352521Y366394D01*
X352498Y366360D01*
X352452Y366314D01*
X352383Y366256D01*
X352372Y366245D01*
X352326Y366210D01*
X352245Y366164D01*
X352152Y366106D01*
X349466Y364665D01*
X349454Y364653D01*
X349420Y364642D01*
X349374Y364619D01*
X349316Y364584D01*
X349155Y364504D01*
X348982Y364411D01*
X348970Y364400D01*
X348947Y364388D01*
X348901Y364365D01*
X348843Y364331D01*
X348693Y364250D01*
X348521Y364169D01*
X348509D01*
X348486Y364146D01*
X348440Y364123D01*
X348382Y364100D01*
X348244Y364019D01*
X348082Y363938D01*
X348071D01*
X348048Y363915D01*
X348002Y363892D01*
X347944Y363869D01*
X347806Y363800D01*
X347644Y363719D01*
Y363708D01*
X347656D01*
X347713D01*
X347783D01*
X347875D01*
X347990Y363719D01*
X348129D01*
X348417D01*
X348440D01*
X348486D01*
X348567D01*
X348670D01*
X348786D01*
X348913D01*
X349189D01*
X352498D01*
X352510D01*
X352521D01*
X352556Y363708D01*
X352568D01*
X352579Y363685D01*
X352614Y363639D01*
Y363627D01*
X352625Y363604D01*
X352637Y363569D01*
X352648Y363523D01*
Y363512D01*
X352660Y363466D01*
Y363189D01*
X352648Y363131D01*
Y363120D01*
X352637Y363085D01*
X352625Y363039D01*
X352614Y363005D01*
Y362993D01*
X352602Y362982D01*
X352556Y362935D01*
X352544Y362924D01*
X352498Y362912D01*
X346872D01*
X346860D01*
X346814D01*
X346768Y362924D01*
X346710Y362947D01*
X346699Y362959D01*
X346676Y362970D01*
X346595Y363039D01*
Y363051D01*
X346572Y363074D01*
X346561Y363108D01*
X346537Y363155D01*
Y363189D01*
X346526Y363270D01*
Y363616D01*
X346537Y363685D01*
X346549Y363766D01*
Y363777D01*
X346572Y363823D01*
X346595Y363881D01*
X346641Y363950D01*
X346653Y363962D01*
X346687Y363996D01*
X346745Y364054D01*
X346826Y364111D01*
X346837D01*
X346849Y364123D01*
X346918Y364169D01*
X347010Y364227D01*
X347137Y364296D01*
X350607Y366175D01*
X350619Y366187D01*
X350654Y366198D01*
X350711Y366221D01*
X350780Y366268D01*
X350861Y366302D01*
X350953Y366360D01*
X351161Y366464D01*
X351172Y366475D01*
X351207Y366487D01*
X351276Y366521D01*
X351345Y366556D01*
X351438Y366602D01*
X351530Y366648D01*
X351737Y366740D01*
Y366752D01*
X351726D01*
X351680D01*
X351611D01*
X351530Y366740D01*
X351426D01*
X351299D01*
X351046D01*
X351034D01*
X350988D01*
X350919D01*
X350827Y366729D01*
X350723D01*
X350607D01*
X350342D01*
X346664D01*
X346641D01*
X346595Y366752D01*
X346572Y366763D01*
X346549Y366821D01*
Y366832D01*
X346537Y366856D01*
Y366890D01*
X346526Y366948D01*
Y366994D01*
X346514Y367063D01*
Y367271D01*
X346526Y367340D01*
Y367351D01*
X346537Y367374D01*
X346549Y367455D01*
Y367467D01*
X346561Y367478D01*
X346595Y367524D01*
X346607D01*
X346618D01*
X346664Y367536D01*
X352291D01*
X352302D01*
X352326D01*
X352395Y367524D01*
D02*
G37*
G36*
X352418Y361275D02*
X352498Y361252D01*
X352568Y361194D01*
X352579Y361183D01*
X352614Y361137D01*
X352637Y361068D01*
X352648Y360987D01*
Y359465D01*
X352637Y359407D01*
Y359327D01*
X352625Y359142D01*
X352602Y358923D01*
X352556Y358704D01*
X352510Y358473D01*
X352441Y358266D01*
Y358254D01*
X352429Y358243D01*
X352406Y358173D01*
X352360Y358070D01*
X352291Y357943D01*
X352199Y357793D01*
X352106Y357643D01*
X351980Y357493D01*
X351841Y357343D01*
X351830Y357332D01*
X351772Y357286D01*
X351691Y357217D01*
X351588Y357136D01*
X351449Y357044D01*
X351288Y356951D01*
X351103Y356859D01*
X350907Y356778D01*
X350896D01*
X350884Y356767D01*
X350850Y356755D01*
X350815Y356744D01*
X350700Y356721D01*
X350550Y356675D01*
X350365Y356640D01*
X350158Y356617D01*
X349927Y356594D01*
X349674Y356582D01*
X349662D01*
X349639D01*
X349593D01*
X349535D01*
X349466Y356594D01*
X349397D01*
X349201Y356605D01*
X348982Y356628D01*
X348751Y356675D01*
X348521Y356721D01*
X348290Y356790D01*
X348278D01*
X348267Y356801D01*
X348198Y356824D01*
X348082Y356871D01*
X347944Y356940D01*
X347794Y357032D01*
X347633Y357124D01*
X347460Y357251D01*
X347310Y357389D01*
X347298Y357401D01*
X347241Y357459D01*
X347171Y357539D01*
X347091Y357655D01*
X346999Y357793D01*
X346895Y357954D01*
X346803Y358139D01*
X346722Y358347D01*
Y358358D01*
X346710Y358369D01*
Y358404D01*
X346699Y358450D01*
X346664Y358565D01*
X346630Y358727D01*
X346595Y358923D01*
X346572Y359154D01*
X346549Y359407D01*
X346537Y359696D01*
Y361010D01*
X346549Y361056D01*
X346572Y361125D01*
X346607Y361194D01*
X346618Y361206D01*
X346664Y361241D01*
X346745Y361275D01*
X346860Y361287D01*
X352314D01*
X352326D01*
X352348D01*
X352418Y361275D01*
D02*
G37*
G36*
X455135Y352169D02*
X456509D01*
Y351585D01*
X455135D01*
Y350210D01*
X454559D01*
Y351585D01*
X453176D01*
Y352169D01*
X454559D01*
Y353543D01*
X455135D01*
Y352169D01*
D02*
G37*
G36*
X338993Y312799D02*
X340368D01*
Y312215D01*
X338993D01*
Y310840D01*
X338417D01*
Y312215D01*
X337035D01*
Y312799D01*
X338417D01*
Y314173D01*
X338993D01*
Y312799D01*
D02*
G37*
G36*
X411365Y370499D02*
X411395Y370493D01*
X411402D01*
X411414Y370486D01*
X411457Y370474D01*
X411463D01*
X411469Y370468D01*
X411494Y370449D01*
Y370437D01*
X411500Y370406D01*
Y368586D01*
X411494Y368543D01*
Y368537D01*
X411488Y368531D01*
X411469Y368494D01*
X411463D01*
X411451Y368481D01*
X411432Y368475D01*
X411408Y368469D01*
X411402D01*
X411383D01*
X411352Y368463D01*
X411315D01*
X411303D01*
X411285D01*
X411254D01*
X411223D01*
X411217D01*
X411199Y368469D01*
X411162Y368481D01*
X411156D01*
X411143Y368488D01*
X411100Y368512D01*
X411094Y368518D01*
X411082Y368524D01*
X411039Y368561D01*
X410368Y369219D01*
X410356Y369232D01*
X410331Y369256D01*
X410282Y369299D01*
X410227Y369349D01*
X410165Y369404D01*
X410092Y369465D01*
X410024Y369521D01*
X409950Y369576D01*
X409944Y369582D01*
X409919Y369601D01*
X409882Y369625D01*
X409839Y369656D01*
X409790Y369693D01*
X409735Y369730D01*
X409673Y369761D01*
X409618Y369791D01*
X409612Y369797D01*
X409593Y369804D01*
X409563Y369816D01*
X409526Y369834D01*
X409434Y369865D01*
X409341Y369890D01*
X409335D01*
X409323Y369896D01*
X409298D01*
X409268Y369902D01*
X409194Y369908D01*
X409114Y369914D01*
X409108D01*
X409095D01*
X409071D01*
X409046Y369908D01*
X408979Y369902D01*
X408905Y369877D01*
X408898D01*
X408886Y369871D01*
X408868Y369865D01*
X408843Y369853D01*
X408788Y369816D01*
X408733Y369767D01*
X408726D01*
X408720Y369754D01*
X408689Y369718D01*
X408653Y369668D01*
X408616Y369595D01*
Y369588D01*
X408609Y369576D01*
X408603Y369551D01*
X408591Y369527D01*
X408585Y369490D01*
X408579Y369447D01*
X408573Y369355D01*
Y369299D01*
X408579Y369262D01*
X408591Y369170D01*
X408616Y369072D01*
Y369066D01*
X408622Y369053D01*
X408634Y369029D01*
X408646Y368998D01*
X408677Y368924D01*
X408714Y368850D01*
Y368844D01*
X408720Y368838D01*
X408745Y368795D01*
X408776Y368746D01*
X408806Y368690D01*
X408812Y368678D01*
X408825Y368654D01*
X408837Y368623D01*
X408843Y368598D01*
Y368586D01*
X408837Y368561D01*
X408831Y368555D01*
X408806Y368537D01*
X408800D01*
X408788Y368531D01*
X408769D01*
X408745Y368524D01*
X408739D01*
X408720D01*
X408689D01*
X408653D01*
X408646D01*
X408628D01*
X408591D01*
X408585D01*
X408573D01*
X408542Y368531D01*
X408536D01*
X408530Y368537D01*
X408505Y368549D01*
X408499D01*
X408493Y368561D01*
X408462Y368586D01*
X408456Y368592D01*
X408443Y368611D01*
X408419Y368641D01*
X408388Y368690D01*
Y368697D01*
X408382Y368703D01*
X408370Y368721D01*
X408363Y368746D01*
X408333Y368807D01*
X408302Y368881D01*
Y368887D01*
X408296Y368900D01*
X408284Y368924D01*
X408271Y368955D01*
X408259Y368992D01*
X408247Y369035D01*
X408222Y369127D01*
Y369133D01*
X408216Y369152D01*
X408210Y369176D01*
X408204Y369213D01*
Y369256D01*
X408197Y369305D01*
X408191Y369410D01*
Y369453D01*
X408197Y369496D01*
Y369551D01*
X408210Y369619D01*
X408222Y369687D01*
X408234Y369761D01*
X408259Y369828D01*
Y369834D01*
X408271Y369859D01*
X408284Y369890D01*
X408308Y369933D01*
X408363Y370031D01*
X408443Y370124D01*
X408450Y370130D01*
X408462Y370142D01*
X408487Y370166D01*
X408523Y370191D01*
X408560Y370216D01*
X408609Y370247D01*
X408714Y370296D01*
X408720D01*
X408739Y370308D01*
X408769Y370314D01*
X408812Y370326D01*
X408862Y370339D01*
X408917Y370345D01*
X409040Y370357D01*
X409046D01*
X409065D01*
X409101D01*
X409138Y370351D01*
X409188D01*
X409237Y370345D01*
X409354Y370326D01*
X409360D01*
X409378Y370320D01*
X409409Y370314D01*
X409452Y370302D01*
X409501Y370283D01*
X409557Y370259D01*
X409686Y370203D01*
X409692Y370197D01*
X409717Y370185D01*
X409753Y370166D01*
X409803Y370142D01*
X409864Y370105D01*
X409932Y370056D01*
X410006Y370007D01*
X410085Y369945D01*
X410098Y369939D01*
X410122Y369914D01*
X410172Y369877D01*
X410233Y369828D01*
X410307Y369767D01*
X410393Y369687D01*
X410491Y369601D01*
X410596Y369502D01*
X411131Y368986D01*
Y370419D01*
X411143Y370443D01*
Y370449D01*
X411149Y370456D01*
X411180Y370474D01*
X411186D01*
X411199Y370480D01*
X411217Y370486D01*
X411242Y370493D01*
X411248D01*
X411260Y370499D01*
X411285Y370505D01*
X411315D01*
X411322D01*
X411340D01*
X411365Y370499D01*
D02*
G37*
G36*
X411475Y367959D02*
X411482Y367952D01*
X411488Y367946D01*
X411494Y367928D01*
Y367922D01*
X411500Y367910D01*
Y367885D01*
X411506Y367854D01*
Y367823D01*
X411512Y367787D01*
Y367670D01*
X411506Y367633D01*
Y367627D01*
X411500Y367608D01*
Y367583D01*
X411494Y367565D01*
Y367559D01*
X411488Y367553D01*
X411463Y367522D01*
X411457D01*
X411451Y367516D01*
X411414Y367503D01*
X410645Y367202D01*
X410639D01*
X410621Y367190D01*
X410596Y367184D01*
X410565Y367165D01*
X410491Y367134D01*
X410405Y367091D01*
X410399D01*
X410387Y367079D01*
X410368Y367067D01*
X410338Y367055D01*
X410282Y367011D01*
X410221Y366956D01*
X410215Y366950D01*
X410209Y366944D01*
X410190Y366926D01*
X410178Y366901D01*
X410135Y366845D01*
X410098Y366772D01*
Y366765D01*
X410092Y366753D01*
X410079Y366729D01*
X410073Y366704D01*
X410061Y366667D01*
X410055Y366624D01*
X410049Y366519D01*
Y366231D01*
X411432D01*
X411439D01*
X411445D01*
X411475Y366218D01*
X411482Y366212D01*
X411494Y366181D01*
Y366175D01*
X411500Y366163D01*
Y366144D01*
X411506Y366114D01*
Y366089D01*
X411512Y366058D01*
Y365941D01*
X411506Y365905D01*
Y365898D01*
X411500Y365886D01*
X411494Y365843D01*
Y365837D01*
X411488Y365831D01*
X411475Y365806D01*
X411469D01*
X411463D01*
X411432Y365800D01*
X408419D01*
X408413D01*
X408400D01*
X408363Y365806D01*
X408320Y365818D01*
X408284Y365849D01*
X408277Y365855D01*
X408259Y365880D01*
X408247Y365917D01*
X408241Y365960D01*
Y366722D01*
X408247Y366784D01*
X408253Y366852D01*
Y366864D01*
X408259Y366901D01*
Y366950D01*
X408265Y367005D01*
Y367011D01*
X408271Y367036D01*
X408277Y367073D01*
X408290Y367116D01*
X408302Y367165D01*
X408320Y367221D01*
X408370Y367337D01*
Y367344D01*
X408382Y367362D01*
X408394Y367387D01*
X408419Y367424D01*
X408474Y367503D01*
X408548Y367583D01*
X408554Y367590D01*
X408566Y367602D01*
X408591Y367620D01*
X408616Y367639D01*
X408653Y367664D01*
X408696Y367688D01*
X408794Y367731D01*
X408800D01*
X408819Y367737D01*
X408849Y367750D01*
X408886Y367756D01*
X408929Y367768D01*
X408985Y367774D01*
X409101Y367780D01*
X409108D01*
X409132D01*
X409163D01*
X409200Y367774D01*
X409298Y367762D01*
X409397Y367731D01*
X409403D01*
X409421Y367725D01*
X409446Y367713D01*
X409477Y367700D01*
X409551Y367657D01*
X409630Y367602D01*
X409636Y367596D01*
X409649Y367590D01*
X409667Y367571D01*
X409686Y367547D01*
X409747Y367485D01*
X409803Y367405D01*
Y367399D01*
X409815Y367387D01*
X409827Y367362D01*
X409846Y367331D01*
X409864Y367288D01*
X409882Y367245D01*
X409926Y367147D01*
Y367153D01*
X409932Y367159D01*
X409950Y367196D01*
X409975Y367239D01*
X410012Y367288D01*
Y367295D01*
X410024Y367301D01*
X410049Y367331D01*
X410092Y367368D01*
X410141Y367411D01*
X410147D01*
X410153Y367424D01*
X410190Y367448D01*
X410245Y367485D01*
X410313Y367522D01*
X410319D01*
X410331Y367528D01*
X410350Y367541D01*
X410374Y367553D01*
X410448Y367583D01*
X410534Y367620D01*
X411254Y367916D01*
X411260D01*
X411266Y367922D01*
X411303Y367934D01*
X411340Y367952D01*
X411377Y367959D01*
X411383D01*
X411395Y367965D01*
X411414Y367971D01*
X411432D01*
X411439D01*
X411445D01*
X411475Y367959D01*
D02*
G37*
G36*
X411383Y344905D02*
X411414Y344899D01*
X411420D01*
X411432Y344893D01*
X411469Y344880D01*
X411482Y344874D01*
X411494Y344849D01*
Y344843D01*
X411500Y344819D01*
Y343103D01*
X411494Y343078D01*
X411488Y343072D01*
X411469Y343054D01*
X411463D01*
X411451Y343047D01*
X411414Y343035D01*
X411408D01*
X411389D01*
X411365Y343029D01*
X411328D01*
X411322D01*
X411303D01*
X411254Y343035D01*
X411248D01*
X411236Y343041D01*
X411217Y343047D01*
X411199Y343054D01*
X411193D01*
X411186Y343060D01*
X411162Y343078D01*
Y343084D01*
X411156Y343091D01*
X411149Y343115D01*
Y343798D01*
X408671D01*
X409046Y343164D01*
X409052Y343158D01*
X409065Y343140D01*
X409077Y343115D01*
X409083Y343091D01*
Y343072D01*
X409071Y343041D01*
X409065D01*
X409058Y343035D01*
X409040Y343029D01*
X409015Y343023D01*
X409009D01*
X408991D01*
X408960Y343017D01*
X408917D01*
X408911D01*
X408892D01*
X408843D01*
X408837D01*
X408825Y343023D01*
X408794Y343029D01*
X408788D01*
X408782Y343035D01*
X408763Y343047D01*
X408757Y343054D01*
X408751Y343060D01*
X408733Y343084D01*
X408247Y343835D01*
X408241Y343841D01*
Y343865D01*
X408234Y343871D01*
X408228Y343896D01*
Y343902D01*
X408222Y343915D01*
Y343958D01*
X408216Y343970D01*
Y344093D01*
X408222Y344124D01*
Y344130D01*
X408228Y344148D01*
X408234Y344167D01*
X408241Y344185D01*
Y344191D01*
X408247Y344198D01*
X408253Y344210D01*
X408259Y344216D01*
X408265Y344222D01*
X408290Y344228D01*
X411149D01*
Y344831D01*
X411162Y344855D01*
Y344862D01*
X411168Y344868D01*
X411199Y344880D01*
X411205D01*
X411211Y344886D01*
X411229Y344893D01*
X411254Y344899D01*
X411260D01*
X411272Y344905D01*
X411297Y344911D01*
X411328D01*
X411334D01*
X411359D01*
X411383Y344905D01*
D02*
G37*
G36*
X411475Y342359D02*
X411482Y342353D01*
X411488Y342346D01*
X411494Y342328D01*
Y342322D01*
X411500Y342309D01*
Y342285D01*
X411506Y342254D01*
Y342223D01*
X411512Y342186D01*
Y342070D01*
X411506Y342033D01*
Y342026D01*
X411500Y342008D01*
Y341984D01*
X411494Y341965D01*
Y341959D01*
X411488Y341953D01*
X411463Y341922D01*
X411457D01*
X411451Y341916D01*
X411414Y341903D01*
X410645Y341602D01*
X410639D01*
X410621Y341590D01*
X410596Y341584D01*
X410565Y341565D01*
X410491Y341534D01*
X410405Y341492D01*
X410399D01*
X410387Y341479D01*
X410368Y341467D01*
X410338Y341455D01*
X410282Y341411D01*
X410221Y341356D01*
X410215Y341350D01*
X410209Y341344D01*
X410190Y341325D01*
X410178Y341301D01*
X410135Y341246D01*
X410098Y341172D01*
Y341165D01*
X410092Y341153D01*
X410079Y341129D01*
X410073Y341104D01*
X410061Y341067D01*
X410055Y341024D01*
X410049Y340919D01*
Y340631D01*
X411432D01*
X411439D01*
X411445D01*
X411475Y340618D01*
X411482Y340612D01*
X411494Y340581D01*
Y340575D01*
X411500Y340563D01*
Y340544D01*
X411506Y340514D01*
Y340489D01*
X411512Y340458D01*
Y340341D01*
X411506Y340305D01*
Y340298D01*
X411500Y340286D01*
X411494Y340243D01*
Y340237D01*
X411488Y340231D01*
X411475Y340206D01*
X411469D01*
X411463D01*
X411432Y340200D01*
X408419D01*
X408413D01*
X408400D01*
X408363Y340206D01*
X408320Y340218D01*
X408284Y340249D01*
X408277Y340255D01*
X408259Y340280D01*
X408247Y340317D01*
X408241Y340360D01*
Y341123D01*
X408247Y341184D01*
X408253Y341252D01*
Y341264D01*
X408259Y341301D01*
Y341350D01*
X408265Y341405D01*
Y341411D01*
X408271Y341436D01*
X408277Y341473D01*
X408290Y341516D01*
X408302Y341565D01*
X408320Y341621D01*
X408370Y341738D01*
Y341744D01*
X408382Y341762D01*
X408394Y341787D01*
X408419Y341824D01*
X408474Y341903D01*
X408548Y341984D01*
X408554Y341990D01*
X408566Y342002D01*
X408591Y342020D01*
X408616Y342039D01*
X408653Y342063D01*
X408696Y342088D01*
X408794Y342131D01*
X408800D01*
X408819Y342137D01*
X408849Y342149D01*
X408886Y342156D01*
X408929Y342168D01*
X408985Y342174D01*
X409101Y342180D01*
X409108D01*
X409132D01*
X409163D01*
X409200Y342174D01*
X409298Y342162D01*
X409397Y342131D01*
X409403D01*
X409421Y342125D01*
X409446Y342113D01*
X409477Y342100D01*
X409551Y342057D01*
X409630Y342002D01*
X409636Y341996D01*
X409649Y341990D01*
X409667Y341971D01*
X409686Y341947D01*
X409747Y341885D01*
X409803Y341805D01*
Y341799D01*
X409815Y341787D01*
X409827Y341762D01*
X409846Y341731D01*
X409864Y341688D01*
X409882Y341645D01*
X409926Y341547D01*
Y341553D01*
X409932Y341559D01*
X409950Y341596D01*
X409975Y341639D01*
X410012Y341688D01*
Y341694D01*
X410024Y341701D01*
X410049Y341731D01*
X410092Y341768D01*
X410141Y341811D01*
X410147D01*
X410153Y341824D01*
X410190Y341848D01*
X410245Y341885D01*
X410313Y341922D01*
X410319D01*
X410331Y341928D01*
X410350Y341940D01*
X410374Y341953D01*
X410448Y341984D01*
X410534Y342020D01*
X411254Y342316D01*
X411260D01*
X411266Y342322D01*
X411303Y342334D01*
X411340Y342353D01*
X411377Y342359D01*
X411383D01*
X411395Y342365D01*
X411414Y342371D01*
X411432D01*
X411439D01*
X411445D01*
X411475Y342359D01*
D02*
G37*
G36*
X440190Y332778D02*
X440196D01*
X440215Y332772D01*
X440233Y332766D01*
X440252Y332759D01*
X440258D01*
X440264Y332753D01*
X440276Y332747D01*
X440282Y332741D01*
X440289Y332735D01*
X440295Y332710D01*
Y329851D01*
X440898D01*
X440922Y329838D01*
X440928D01*
X440934Y329832D01*
X440947Y329801D01*
Y329795D01*
X440953Y329789D01*
X440959Y329771D01*
X440965Y329746D01*
Y329740D01*
X440971Y329728D01*
X440977Y329703D01*
Y329672D01*
Y329666D01*
Y329641D01*
X440971Y329617D01*
X440965Y329586D01*
Y329580D01*
X440959Y329568D01*
X440947Y329531D01*
X440941Y329518D01*
X440916Y329506D01*
X440910D01*
X440885Y329500D01*
X439169D01*
X439145Y329506D01*
X439139Y329512D01*
X439120Y329531D01*
Y329537D01*
X439114Y329549D01*
X439102Y329586D01*
Y329592D01*
Y329611D01*
X439096Y329635D01*
Y329672D01*
Y329678D01*
Y329697D01*
X439102Y329746D01*
Y329752D01*
X439108Y329764D01*
X439114Y329783D01*
X439120Y329801D01*
Y329807D01*
X439126Y329814D01*
X439145Y329838D01*
X439151D01*
X439157Y329844D01*
X439182Y329851D01*
X439864D01*
Y332329D01*
X439231Y331954D01*
X439225Y331948D01*
X439206Y331935D01*
X439182Y331923D01*
X439157Y331917D01*
X439139D01*
X439108Y331929D01*
Y331935D01*
X439102Y331942D01*
X439096Y331960D01*
X439089Y331985D01*
Y331991D01*
Y332009D01*
X439083Y332040D01*
Y332083D01*
Y332089D01*
Y332108D01*
Y332157D01*
Y332163D01*
X439089Y332175D01*
X439096Y332206D01*
Y332212D01*
X439102Y332218D01*
X439114Y332237D01*
X439120Y332243D01*
X439126Y332249D01*
X439151Y332267D01*
X439901Y332753D01*
X439907Y332759D01*
X439932D01*
X439938Y332766D01*
X439963Y332772D01*
X439969D01*
X439981Y332778D01*
X440024D01*
X440036Y332784D01*
X440160D01*
X440190Y332778D01*
D02*
G37*
G36*
X437183Y332772D02*
X437214Y332766D01*
X437220D01*
X437238Y332759D01*
X437263D01*
X437281Y332753D01*
X437287D01*
X437294Y332747D01*
X437318Y332729D01*
X437324Y332723D01*
X437330Y332692D01*
Y329875D01*
X438511D01*
X438536Y329863D01*
X438542D01*
X438548Y329857D01*
X438567Y329826D01*
Y329820D01*
X438573Y329814D01*
X438579Y329795D01*
X438585Y329771D01*
Y329764D01*
X438591Y329746D01*
Y329721D01*
Y329684D01*
Y329678D01*
Y329654D01*
Y329629D01*
X438585Y329598D01*
Y329592D01*
X438579Y329580D01*
X438567Y329543D01*
Y329537D01*
X438560Y329531D01*
X438536Y329506D01*
X438530D01*
X438499Y329500D01*
X437048D01*
X437023Y329506D01*
X436986Y329518D01*
X436949Y329537D01*
X436943Y329543D01*
X436925Y329568D01*
X436906Y329611D01*
X436900Y329672D01*
Y332692D01*
Y332698D01*
Y332704D01*
X436906Y332729D01*
Y332735D01*
X436918Y332741D01*
X436943Y332753D01*
X436949D01*
X436962Y332759D01*
X436980D01*
X437011Y332766D01*
X437017D01*
X437041Y332772D01*
X437072Y332778D01*
X437152D01*
X437183Y332772D01*
D02*
G37*
G36*
X381526Y382296D02*
X381612Y382290D01*
X381711Y382272D01*
X381717D01*
X381735Y382266D01*
X381760Y382259D01*
X381790Y382253D01*
X381870Y382235D01*
X381957Y382204D01*
X381963D01*
X381975Y382198D01*
X382000Y382192D01*
X382024Y382180D01*
X382092Y382149D01*
X382159Y382112D01*
X382166D01*
X382172Y382106D01*
X382209Y382081D01*
X382252Y382057D01*
X382282Y382032D01*
X382289Y382026D01*
X382301Y382014D01*
X382319Y382001D01*
X382326Y381983D01*
X382332Y381970D01*
X382344Y381940D01*
Y381934D01*
X382350Y381921D01*
Y381903D01*
X382356Y381878D01*
Y381872D01*
X382362Y381860D01*
Y381835D01*
Y381804D01*
Y381798D01*
Y381774D01*
Y381749D01*
X382356Y381718D01*
Y381712D01*
X382350Y381700D01*
X382338Y381657D01*
Y381651D01*
X382332Y381645D01*
X382313Y381620D01*
X382307D01*
X382282Y381614D01*
X382276D01*
X382258Y381620D01*
X382227Y381632D01*
X382184Y381657D01*
X382172Y381663D01*
X382141Y381688D01*
X382086Y381724D01*
X382018Y381768D01*
X382012D01*
X382000Y381780D01*
X381981Y381792D01*
X381950Y381804D01*
X381913Y381823D01*
X381877Y381841D01*
X381778Y381878D01*
X381772D01*
X381754Y381884D01*
X381723Y381897D01*
X381680Y381903D01*
X381631Y381915D01*
X381575Y381921D01*
X381508Y381927D01*
X381397D01*
X381354Y381921D01*
X381305Y381915D01*
X381243Y381903D01*
X381175Y381891D01*
X381108Y381866D01*
X381040Y381835D01*
X381034Y381829D01*
X381010Y381817D01*
X380979Y381798D01*
X380936Y381774D01*
X380887Y381737D01*
X380837Y381688D01*
X380782Y381638D01*
X380733Y381577D01*
X380727Y381571D01*
X380714Y381546D01*
X380690Y381509D01*
X380665Y381466D01*
X380634Y381405D01*
X380604Y381331D01*
X380573Y381251D01*
X380542Y381165D01*
Y381153D01*
X380530Y381122D01*
X380524Y381073D01*
X380511Y381005D01*
X380499Y380925D01*
X380487Y380833D01*
X380481Y380728D01*
X380474Y380611D01*
Y380605D01*
Y380599D01*
Y380580D01*
Y380556D01*
X380481Y380501D01*
Y380427D01*
X380487Y380341D01*
X380499Y380248D01*
X380518Y380150D01*
X380536Y380058D01*
X380542Y380046D01*
X380548Y380021D01*
X380567Y379972D01*
X380585Y379916D01*
X380610Y379855D01*
X380647Y379787D01*
X380683Y379719D01*
X380727Y379658D01*
X380733Y379652D01*
X380751Y379633D01*
X380776Y379603D01*
X380813Y379566D01*
X380856Y379529D01*
X380911Y379492D01*
X380973Y379449D01*
X381034Y379418D01*
X381040Y379412D01*
X381065Y379406D01*
X381102Y379394D01*
X381157Y379381D01*
X381219Y379363D01*
X381286Y379351D01*
X381366Y379344D01*
X381446Y379338D01*
X381514D01*
X381563Y379344D01*
X381618Y379351D01*
X381674Y379357D01*
X381784Y379381D01*
X381790D01*
X381809Y379387D01*
X381834Y379400D01*
X381870Y379412D01*
X381950Y379449D01*
X382030Y379486D01*
X382036D01*
X382049Y379498D01*
X382067Y379510D01*
X382092Y379523D01*
X382147Y379560D01*
X382203Y379596D01*
X382209D01*
X382215Y379603D01*
X382239Y379621D01*
X382276Y379640D01*
X382307Y379646D01*
X382319D01*
X382338Y379633D01*
X382344Y379627D01*
X382350Y379621D01*
X382356Y379603D01*
Y379596D01*
X382362Y379590D01*
Y379572D01*
X382369Y379547D01*
Y379541D01*
X382375Y379523D01*
Y379492D01*
Y379449D01*
Y379443D01*
Y379424D01*
X382369Y379381D01*
Y379375D01*
Y379363D01*
X382362Y379326D01*
Y379320D01*
X382356Y379314D01*
X382344Y379283D01*
X382338Y379271D01*
X382326Y379258D01*
X382307Y379240D01*
X382301Y379234D01*
X382282Y379221D01*
X382252Y379197D01*
X382203Y379166D01*
X382196D01*
X382190Y379160D01*
X382172Y379148D01*
X382147Y379135D01*
X382086Y379105D01*
X382000Y379068D01*
X381993D01*
X381981Y379062D01*
X381957Y379049D01*
X381920Y379037D01*
X381883Y379025D01*
X381834Y379012D01*
X381729Y378988D01*
X381723D01*
X381704Y378982D01*
X381674Y378975D01*
X381631D01*
X381581Y378969D01*
X381520Y378963D01*
X381391Y378957D01*
X381335D01*
X381274Y378963D01*
X381200Y378969D01*
X381108Y378982D01*
X381010Y379000D01*
X380911Y379025D01*
X380813Y379062D01*
X380800Y379068D01*
X380770Y379080D01*
X380727Y379105D01*
X380665Y379141D01*
X380597Y379185D01*
X380524Y379234D01*
X380450Y379295D01*
X380382Y379369D01*
X380376Y379381D01*
X380351Y379406D01*
X380321Y379449D01*
X380284Y379510D01*
X380235Y379584D01*
X380191Y379670D01*
X380149Y379769D01*
X380105Y379879D01*
Y379886D01*
X380099Y379892D01*
Y379910D01*
X380093Y379935D01*
X380075Y379996D01*
X380062Y380082D01*
X380044Y380187D01*
X380026Y380310D01*
X380019Y380439D01*
X380013Y380587D01*
Y380593D01*
Y380605D01*
Y380624D01*
Y380654D01*
X380019Y380691D01*
Y380734D01*
X380026Y380826D01*
X380038Y380943D01*
X380056Y381060D01*
X380081Y381183D01*
X380112Y381306D01*
Y381312D01*
X380118Y381319D01*
X380124Y381337D01*
X380130Y381362D01*
X380155Y381417D01*
X380185Y381497D01*
X380228Y381577D01*
X380278Y381669D01*
X380339Y381761D01*
X380407Y381847D01*
X380413Y381860D01*
X380444Y381884D01*
X380481Y381921D01*
X380536Y381970D01*
X380597Y382026D01*
X380677Y382081D01*
X380764Y382137D01*
X380856Y382186D01*
X380862D01*
X380868Y382192D01*
X380905Y382204D01*
X380954Y382223D01*
X381028Y382247D01*
X381114Y382266D01*
X381212Y382284D01*
X381323Y382296D01*
X381440Y382303D01*
X381489D01*
X381526Y382296D01*
D02*
G37*
G36*
X384066Y382278D02*
X384072D01*
X384091Y382272D01*
X384109Y382266D01*
X384127Y382259D01*
X384134D01*
X384140Y382253D01*
X384152Y382247D01*
X384158Y382241D01*
X384164Y382235D01*
X384171Y382210D01*
Y379351D01*
X384773D01*
X384798Y379338D01*
X384804D01*
X384810Y379332D01*
X384822Y379301D01*
Y379295D01*
X384829Y379289D01*
X384835Y379271D01*
X384841Y379246D01*
Y379240D01*
X384847Y379228D01*
X384853Y379203D01*
Y379172D01*
Y379166D01*
Y379141D01*
X384847Y379117D01*
X384841Y379086D01*
Y379080D01*
X384835Y379068D01*
X384822Y379031D01*
X384816Y379018D01*
X384792Y379006D01*
X384786D01*
X384761Y379000D01*
X383045D01*
X383020Y379006D01*
X383014Y379012D01*
X382996Y379031D01*
Y379037D01*
X382990Y379049D01*
X382977Y379086D01*
Y379092D01*
Y379111D01*
X382971Y379135D01*
Y379172D01*
Y379178D01*
Y379197D01*
X382977Y379246D01*
Y379252D01*
X382984Y379264D01*
X382990Y379283D01*
X382996Y379301D01*
Y379308D01*
X383002Y379314D01*
X383020Y379338D01*
X383027D01*
X383033Y379344D01*
X383057Y379351D01*
X383740D01*
Y381829D01*
X383107Y381454D01*
X383101Y381448D01*
X383082Y381435D01*
X383057Y381423D01*
X383033Y381417D01*
X383014D01*
X382984Y381429D01*
Y381435D01*
X382977Y381442D01*
X382971Y381460D01*
X382965Y381485D01*
Y381491D01*
Y381509D01*
X382959Y381540D01*
Y381583D01*
Y381589D01*
Y381608D01*
Y381657D01*
Y381663D01*
X382965Y381675D01*
X382971Y381706D01*
Y381712D01*
X382977Y381718D01*
X382990Y381737D01*
X382996Y381743D01*
X383002Y381749D01*
X383027Y381768D01*
X383777Y382253D01*
X383783Y382259D01*
X383808D01*
X383814Y382266D01*
X383839Y382272D01*
X383845D01*
X383857Y382278D01*
X383900D01*
X383912Y382284D01*
X384035D01*
X384066Y382278D01*
D02*
G37*
G36*
X379183Y382272D02*
X379214Y382266D01*
X379220D01*
X379238Y382259D01*
X379263D01*
X379281Y382253D01*
X379287D01*
X379294Y382247D01*
X379318Y382229D01*
X379324Y382223D01*
X379330Y382192D01*
Y379068D01*
Y379062D01*
Y379055D01*
X379318Y379025D01*
X379312Y379018D01*
X379281Y379006D01*
X379275D01*
X379263Y379000D01*
X379244D01*
X379214Y378994D01*
X379189D01*
X379158Y378988D01*
X379048D01*
X379011Y378994D01*
X379005D01*
X378986Y379000D01*
X378961D01*
X378943Y379006D01*
X378937D01*
X378931Y379012D01*
X378906Y379025D01*
Y379031D01*
Y379037D01*
X378900Y379068D01*
Y382192D01*
Y382198D01*
Y382204D01*
X378906Y382229D01*
Y382235D01*
X378918Y382241D01*
X378943Y382253D01*
X378949D01*
X378961Y382259D01*
X378986D01*
X379011Y382266D01*
X379017D01*
X379041Y382272D01*
X379072Y382278D01*
X379152D01*
X379183Y382272D01*
D02*
G37*
G36*
X364583Y289974D02*
X364614Y289968D01*
X364620D01*
X364632Y289962D01*
X364669Y289949D01*
X364682Y289943D01*
X364694Y289918D01*
Y289912D01*
X364700Y289888D01*
Y288172D01*
X364694Y288147D01*
X364688Y288141D01*
X364669Y288123D01*
X364663D01*
X364651Y288116D01*
X364614Y288104D01*
X364608D01*
X364589D01*
X364565Y288098D01*
X364528D01*
X364522D01*
X364503D01*
X364454Y288104D01*
X364448D01*
X364436Y288110D01*
X364417Y288116D01*
X364399Y288123D01*
X364392D01*
X364386Y288129D01*
X364362Y288147D01*
Y288153D01*
X364356Y288159D01*
X364349Y288184D01*
Y288867D01*
X361871D01*
X362246Y288233D01*
X362252Y288227D01*
X362265Y288209D01*
X362277Y288184D01*
X362283Y288159D01*
Y288141D01*
X362271Y288110D01*
X362265D01*
X362258Y288104D01*
X362240Y288098D01*
X362215Y288092D01*
X362209D01*
X362191D01*
X362160Y288086D01*
X362117D01*
X362111D01*
X362092D01*
X362043D01*
X362037D01*
X362025Y288092D01*
X361994Y288098D01*
X361988D01*
X361982Y288104D01*
X361963Y288116D01*
X361957Y288123D01*
X361951Y288129D01*
X361932Y288153D01*
X361447Y288904D01*
X361440Y288910D01*
Y288934D01*
X361434Y288941D01*
X361428Y288965D01*
Y288971D01*
X361422Y288984D01*
Y289027D01*
X361416Y289039D01*
Y289162D01*
X361422Y289193D01*
Y289199D01*
X361428Y289217D01*
X361434Y289236D01*
X361440Y289254D01*
Y289260D01*
X361447Y289266D01*
X361453Y289279D01*
X361459Y289285D01*
X361465Y289291D01*
X361490Y289297D01*
X364349D01*
Y289900D01*
X364362Y289925D01*
Y289931D01*
X364368Y289937D01*
X364399Y289949D01*
X364405D01*
X364411Y289955D01*
X364429Y289962D01*
X364454Y289968D01*
X364460D01*
X364472Y289974D01*
X364497Y289980D01*
X364528D01*
X364534D01*
X364559D01*
X364583Y289974D01*
D02*
G37*
G36*
X363138Y287403D02*
X363175D01*
X363279Y287397D01*
X363396Y287385D01*
X363519Y287360D01*
X363642Y287335D01*
X363765Y287298D01*
X363771D01*
X363777Y287292D01*
X363814Y287280D01*
X363876Y287256D01*
X363950Y287219D01*
X364030Y287169D01*
X364116Y287120D01*
X364208Y287052D01*
X364288Y286979D01*
X364294Y286973D01*
X364325Y286942D01*
X364362Y286899D01*
X364405Y286837D01*
X364454Y286764D01*
X364509Y286677D01*
X364559Y286579D01*
X364602Y286468D01*
Y286462D01*
X364608Y286456D01*
Y286438D01*
X364614Y286413D01*
X364632Y286351D01*
X364651Y286265D01*
X364669Y286161D01*
X364682Y286038D01*
X364694Y285902D01*
X364700Y285749D01*
Y285048D01*
X364694Y285023D01*
X364682Y284986D01*
X364663Y284949D01*
X364657Y284943D01*
X364632Y284925D01*
X364589Y284906D01*
X364528Y284900D01*
X361619D01*
X361613D01*
X361600D01*
X361563Y284906D01*
X361520Y284918D01*
X361484Y284949D01*
X361477Y284955D01*
X361459Y284980D01*
X361447Y285017D01*
X361440Y285060D01*
Y285872D01*
X361447Y285902D01*
Y285946D01*
X361453Y286044D01*
X361465Y286161D01*
X361490Y286278D01*
X361514Y286401D01*
X361551Y286511D01*
Y286518D01*
X361557Y286524D01*
X361570Y286561D01*
X361594Y286616D01*
X361631Y286684D01*
X361680Y286764D01*
X361730Y286843D01*
X361797Y286923D01*
X361871Y287003D01*
X361877Y287010D01*
X361908Y287034D01*
X361951Y287071D01*
X362006Y287114D01*
X362080Y287163D01*
X362166Y287212D01*
X362265Y287262D01*
X362369Y287305D01*
X362375D01*
X362381Y287311D01*
X362400Y287317D01*
X362418Y287323D01*
X362480Y287335D01*
X362560Y287360D01*
X362658Y287379D01*
X362769Y287391D01*
X362892Y287403D01*
X363027Y287409D01*
X363033D01*
X363046D01*
X363070D01*
X363101D01*
X363138Y287403D01*
D02*
G37*
G36*
X329813Y341896D02*
X329899Y341890D01*
X329997Y341872D01*
X330003D01*
X330022Y341866D01*
X330047Y341860D01*
X330077Y341853D01*
X330157Y341835D01*
X330243Y341804D01*
X330250D01*
X330262Y341798D01*
X330287Y341792D01*
X330311Y341780D01*
X330379Y341749D01*
X330446Y341712D01*
X330452D01*
X330459Y341706D01*
X330496Y341681D01*
X330539Y341657D01*
X330569Y341632D01*
X330575Y341626D01*
X330588Y341614D01*
X330606Y341601D01*
X330612Y341583D01*
X330619Y341570D01*
X330631Y341540D01*
Y341534D01*
X330637Y341521D01*
Y341503D01*
X330643Y341478D01*
Y341472D01*
X330649Y341460D01*
Y341435D01*
Y341404D01*
Y341398D01*
Y341374D01*
Y341349D01*
X330643Y341318D01*
Y341312D01*
X330637Y341300D01*
X330625Y341257D01*
Y341251D01*
X330619Y341245D01*
X330600Y341220D01*
X330594D01*
X330569Y341214D01*
X330563D01*
X330545Y341220D01*
X330514Y341232D01*
X330471Y341257D01*
X330459Y341263D01*
X330428Y341288D01*
X330373Y341324D01*
X330305Y341368D01*
X330299D01*
X330287Y341380D01*
X330268Y341392D01*
X330237Y341404D01*
X330200Y341423D01*
X330164Y341441D01*
X330065Y341478D01*
X330059D01*
X330041Y341484D01*
X330010Y341497D01*
X329967Y341503D01*
X329918Y341515D01*
X329862Y341521D01*
X329795Y341527D01*
X329684D01*
X329641Y341521D01*
X329591Y341515D01*
X329530Y341503D01*
X329462Y341491D01*
X329395Y341466D01*
X329327Y341435D01*
X329321Y341429D01*
X329296Y341417D01*
X329265Y341398D01*
X329222Y341374D01*
X329173Y341337D01*
X329124Y341288D01*
X329069Y341238D01*
X329019Y341177D01*
X329013Y341171D01*
X329001Y341146D01*
X328976Y341109D01*
X328952Y341066D01*
X328921Y341005D01*
X328890Y340931D01*
X328860Y340851D01*
X328829Y340765D01*
Y340753D01*
X328817Y340722D01*
X328810Y340673D01*
X328798Y340605D01*
X328786Y340525D01*
X328773Y340433D01*
X328767Y340328D01*
X328761Y340211D01*
Y340205D01*
Y340199D01*
Y340180D01*
Y340156D01*
X328767Y340101D01*
Y340027D01*
X328773Y339941D01*
X328786Y339848D01*
X328804Y339750D01*
X328823Y339658D01*
X328829Y339646D01*
X328835Y339621D01*
X328854Y339572D01*
X328872Y339516D01*
X328896Y339455D01*
X328933Y339387D01*
X328970Y339319D01*
X329013Y339258D01*
X329019Y339252D01*
X329038Y339233D01*
X329063Y339203D01*
X329099Y339166D01*
X329142Y339129D01*
X329198Y339092D01*
X329259Y339049D01*
X329321Y339018D01*
X329327Y339012D01*
X329352Y339006D01*
X329388Y338994D01*
X329444Y338981D01*
X329505Y338963D01*
X329573Y338951D01*
X329653Y338944D01*
X329733Y338938D01*
X329801D01*
X329850Y338944D01*
X329905Y338951D01*
X329960Y338957D01*
X330071Y338981D01*
X330077D01*
X330096Y338987D01*
X330120Y339000D01*
X330157Y339012D01*
X330237Y339049D01*
X330317Y339086D01*
X330323D01*
X330336Y339098D01*
X330354Y339110D01*
X330379Y339123D01*
X330434Y339160D01*
X330489Y339196D01*
X330496D01*
X330502Y339203D01*
X330526Y339221D01*
X330563Y339240D01*
X330594Y339246D01*
X330606D01*
X330625Y339233D01*
X330631Y339227D01*
X330637Y339221D01*
X330643Y339203D01*
Y339196D01*
X330649Y339190D01*
Y339172D01*
X330656Y339147D01*
Y339141D01*
X330662Y339123D01*
Y339092D01*
Y339049D01*
Y339043D01*
Y339024D01*
X330656Y338981D01*
Y338975D01*
Y338963D01*
X330649Y338926D01*
Y338920D01*
X330643Y338914D01*
X330631Y338883D01*
X330625Y338871D01*
X330612Y338858D01*
X330594Y338840D01*
X330588Y338834D01*
X330569Y338821D01*
X330539Y338797D01*
X330489Y338766D01*
X330483D01*
X330477Y338760D01*
X330459Y338748D01*
X330434Y338735D01*
X330373Y338705D01*
X330287Y338668D01*
X330280D01*
X330268Y338662D01*
X330243Y338649D01*
X330206Y338637D01*
X330170Y338625D01*
X330120Y338612D01*
X330016Y338588D01*
X330010D01*
X329991Y338582D01*
X329960Y338575D01*
X329918D01*
X329868Y338569D01*
X329807Y338563D01*
X329678Y338557D01*
X329622D01*
X329561Y338563D01*
X329487Y338569D01*
X329395Y338582D01*
X329296Y338600D01*
X329198Y338625D01*
X329099Y338662D01*
X329087Y338668D01*
X329056Y338680D01*
X329013Y338705D01*
X328952Y338741D01*
X328884Y338785D01*
X328810Y338834D01*
X328737Y338895D01*
X328669Y338969D01*
X328663Y338981D01*
X328638Y339006D01*
X328608Y339049D01*
X328571Y339110D01*
X328521Y339184D01*
X328478Y339270D01*
X328435Y339369D01*
X328392Y339479D01*
Y339486D01*
X328386Y339492D01*
Y339510D01*
X328380Y339535D01*
X328362Y339596D01*
X328349Y339682D01*
X328331Y339787D01*
X328312Y339910D01*
X328306Y340039D01*
X328300Y340187D01*
Y340193D01*
Y340205D01*
Y340224D01*
Y340254D01*
X328306Y340291D01*
Y340334D01*
X328312Y340426D01*
X328325Y340543D01*
X328343Y340660D01*
X328368Y340783D01*
X328398Y340906D01*
Y340912D01*
X328405Y340919D01*
X328411Y340937D01*
X328417Y340962D01*
X328441Y341017D01*
X328472Y341097D01*
X328515Y341177D01*
X328564Y341269D01*
X328626Y341361D01*
X328694Y341447D01*
X328700Y341460D01*
X328731Y341484D01*
X328767Y341521D01*
X328823Y341570D01*
X328884Y341626D01*
X328964Y341681D01*
X329050Y341737D01*
X329142Y341786D01*
X329149D01*
X329155Y341792D01*
X329192Y341804D01*
X329241Y341823D01*
X329315Y341847D01*
X329401Y341866D01*
X329499Y341884D01*
X329610Y341896D01*
X329727Y341903D01*
X329776D01*
X329813Y341896D01*
D02*
G37*
G36*
X332125Y341903D02*
X332181D01*
X332248Y341890D01*
X332316Y341878D01*
X332390Y341866D01*
X332457Y341841D01*
X332464D01*
X332488Y341829D01*
X332519Y341816D01*
X332562Y341792D01*
X332660Y341737D01*
X332753Y341657D01*
X332759Y341650D01*
X332771Y341638D01*
X332796Y341614D01*
X332820Y341577D01*
X332845Y341540D01*
X332876Y341491D01*
X332925Y341386D01*
Y341380D01*
X332937Y341361D01*
X332943Y341331D01*
X332956Y341288D01*
X332968Y341238D01*
X332974Y341183D01*
X332986Y341060D01*
Y341054D01*
Y341035D01*
Y340999D01*
X332980Y340962D01*
Y340912D01*
X332974Y340863D01*
X332956Y340746D01*
Y340740D01*
X332949Y340722D01*
X332943Y340691D01*
X332931Y340648D01*
X332912Y340599D01*
X332888Y340543D01*
X332833Y340414D01*
X332826Y340408D01*
X332814Y340384D01*
X332796Y340347D01*
X332771Y340297D01*
X332734Y340236D01*
X332685Y340168D01*
X332636Y340094D01*
X332574Y340015D01*
X332568Y340002D01*
X332543Y339978D01*
X332507Y339928D01*
X332457Y339867D01*
X332396Y339793D01*
X332316Y339707D01*
X332230Y339609D01*
X332131Y339504D01*
X331615Y338969D01*
X333048D01*
X333072Y338957D01*
X333079D01*
X333085Y338951D01*
X333103Y338920D01*
Y338914D01*
X333109Y338901D01*
X333116Y338883D01*
X333122Y338858D01*
Y338852D01*
X333128Y338840D01*
X333134Y338815D01*
Y338785D01*
Y338778D01*
Y338760D01*
X333128Y338735D01*
X333122Y338705D01*
Y338698D01*
X333116Y338686D01*
X333103Y338643D01*
Y338637D01*
X333097Y338631D01*
X333079Y338606D01*
X333066D01*
X333035Y338600D01*
X331215D01*
X331172Y338606D01*
X331166D01*
X331160Y338612D01*
X331123Y338631D01*
Y338637D01*
X331111Y338649D01*
X331104Y338668D01*
X331098Y338692D01*
Y338698D01*
Y338717D01*
X331092Y338748D01*
Y338785D01*
Y338797D01*
Y338815D01*
Y338846D01*
Y338877D01*
Y338883D01*
X331098Y338901D01*
X331111Y338938D01*
Y338944D01*
X331117Y338957D01*
X331141Y339000D01*
X331147Y339006D01*
X331154Y339018D01*
X331190Y339061D01*
X331849Y339732D01*
X331861Y339744D01*
X331885Y339769D01*
X331928Y339818D01*
X331978Y339873D01*
X332033Y339934D01*
X332095Y340008D01*
X332150Y340076D01*
X332205Y340150D01*
X332211Y340156D01*
X332230Y340180D01*
X332254Y340217D01*
X332285Y340261D01*
X332322Y340310D01*
X332359Y340365D01*
X332390Y340426D01*
X332420Y340482D01*
X332427Y340488D01*
X332433Y340507D01*
X332445Y340537D01*
X332464Y340574D01*
X332494Y340666D01*
X332519Y340759D01*
Y340765D01*
X332525Y340777D01*
Y340802D01*
X332531Y340832D01*
X332537Y340906D01*
X332543Y340986D01*
Y340992D01*
Y341005D01*
Y341029D01*
X332537Y341054D01*
X332531Y341122D01*
X332507Y341195D01*
Y341201D01*
X332501Y341214D01*
X332494Y341232D01*
X332482Y341257D01*
X332445Y341312D01*
X332396Y341368D01*
Y341374D01*
X332384Y341380D01*
X332347Y341411D01*
X332297Y341447D01*
X332224Y341484D01*
X332218D01*
X332205Y341491D01*
X332181Y341497D01*
X332156Y341509D01*
X332119Y341515D01*
X332076Y341521D01*
X331984Y341527D01*
X331928D01*
X331892Y341521D01*
X331799Y341509D01*
X331701Y341484D01*
X331695D01*
X331682Y341478D01*
X331658Y341466D01*
X331627Y341454D01*
X331553Y341423D01*
X331480Y341386D01*
X331473D01*
X331467Y341380D01*
X331424Y341355D01*
X331375Y341324D01*
X331320Y341294D01*
X331307Y341288D01*
X331283Y341275D01*
X331252Y341263D01*
X331227Y341257D01*
X331215D01*
X331190Y341263D01*
X331184Y341269D01*
X331166Y341294D01*
Y341300D01*
X331160Y341312D01*
Y341331D01*
X331154Y341355D01*
Y341361D01*
Y341380D01*
Y341411D01*
Y341447D01*
Y341454D01*
Y341472D01*
Y341509D01*
Y341515D01*
Y341527D01*
X331160Y341558D01*
Y341564D01*
X331166Y341570D01*
X331178Y341595D01*
Y341601D01*
X331190Y341607D01*
X331215Y341638D01*
X331221Y341644D01*
X331240Y341657D01*
X331270Y341681D01*
X331320Y341712D01*
X331326D01*
X331332Y341718D01*
X331350Y341730D01*
X331375Y341737D01*
X331436Y341767D01*
X331510Y341798D01*
X331516D01*
X331529Y341804D01*
X331553Y341816D01*
X331584Y341829D01*
X331621Y341841D01*
X331664Y341853D01*
X331756Y341878D01*
X331762D01*
X331781Y341884D01*
X331805Y341890D01*
X331842Y341896D01*
X331885D01*
X331935Y341903D01*
X332039Y341909D01*
X332082D01*
X332125Y341903D01*
D02*
G37*
G36*
X445913Y381196D02*
X445999Y381190D01*
X446097Y381172D01*
X446103D01*
X446122Y381166D01*
X446147Y381159D01*
X446177Y381153D01*
X446257Y381135D01*
X446343Y381104D01*
X446349D01*
X446362Y381098D01*
X446386Y381092D01*
X446411Y381080D01*
X446479Y381049D01*
X446546Y381012D01*
X446553D01*
X446559Y381006D01*
X446596Y380981D01*
X446639Y380957D01*
X446669Y380932D01*
X446675Y380926D01*
X446688Y380913D01*
X446706Y380901D01*
X446712Y380883D01*
X446719Y380870D01*
X446731Y380840D01*
Y380834D01*
X446737Y380821D01*
Y380803D01*
X446743Y380778D01*
Y380772D01*
X446749Y380760D01*
Y380735D01*
Y380704D01*
Y380698D01*
Y380674D01*
Y380649D01*
X446743Y380618D01*
Y380612D01*
X446737Y380600D01*
X446725Y380557D01*
Y380551D01*
X446719Y380544D01*
X446700Y380520D01*
X446694D01*
X446669Y380514D01*
X446663D01*
X446645Y380520D01*
X446614Y380532D01*
X446571Y380557D01*
X446559Y380563D01*
X446528Y380588D01*
X446473Y380624D01*
X446405Y380667D01*
X446399D01*
X446386Y380680D01*
X446368Y380692D01*
X446337Y380704D01*
X446300Y380723D01*
X446264Y380741D01*
X446165Y380778D01*
X446159D01*
X446140Y380784D01*
X446110Y380797D01*
X446067Y380803D01*
X446018Y380815D01*
X445962Y380821D01*
X445894Y380827D01*
X445784D01*
X445741Y380821D01*
X445691Y380815D01*
X445630Y380803D01*
X445562Y380790D01*
X445495Y380766D01*
X445427Y380735D01*
X445421Y380729D01*
X445396Y380717D01*
X445365Y380698D01*
X445323Y380674D01*
X445273Y380637D01*
X445224Y380588D01*
X445169Y380538D01*
X445119Y380477D01*
X445113Y380471D01*
X445101Y380446D01*
X445077Y380409D01*
X445052Y380366D01*
X445021Y380305D01*
X444990Y380231D01*
X444960Y380151D01*
X444929Y380065D01*
Y380052D01*
X444917Y380022D01*
X444910Y379973D01*
X444898Y379905D01*
X444886Y379825D01*
X444874Y379733D01*
X444867Y379628D01*
X444861Y379511D01*
Y379505D01*
Y379499D01*
Y379481D01*
Y379456D01*
X444867Y379401D01*
Y379327D01*
X444874Y379241D01*
X444886Y379149D01*
X444904Y379050D01*
X444923Y378958D01*
X444929Y378945D01*
X444935Y378921D01*
X444953Y378872D01*
X444972Y378816D01*
X444997Y378755D01*
X445033Y378687D01*
X445070Y378620D01*
X445113Y378558D01*
X445119Y378552D01*
X445138Y378533D01*
X445163Y378503D01*
X445199Y378466D01*
X445243Y378429D01*
X445298Y378392D01*
X445359Y378349D01*
X445421Y378318D01*
X445427Y378312D01*
X445452Y378306D01*
X445489Y378294D01*
X445544Y378281D01*
X445605Y378263D01*
X445673Y378251D01*
X445753Y378244D01*
X445833Y378238D01*
X445901D01*
X445950Y378244D01*
X446005Y378251D01*
X446061Y378257D01*
X446171Y378281D01*
X446177D01*
X446196Y378287D01*
X446220Y378300D01*
X446257Y378312D01*
X446337Y378349D01*
X446417Y378386D01*
X446423D01*
X446436Y378398D01*
X446454Y378410D01*
X446479Y378423D01*
X446534Y378460D01*
X446589Y378497D01*
X446596D01*
X446602Y378503D01*
X446626Y378521D01*
X446663Y378540D01*
X446694Y378546D01*
X446706D01*
X446725Y378533D01*
X446731Y378527D01*
X446737Y378521D01*
X446743Y378503D01*
Y378497D01*
X446749Y378490D01*
Y378472D01*
X446756Y378447D01*
Y378441D01*
X446762Y378423D01*
Y378392D01*
Y378349D01*
Y378343D01*
Y378324D01*
X446756Y378281D01*
Y378275D01*
Y378263D01*
X446749Y378226D01*
Y378220D01*
X446743Y378214D01*
X446731Y378183D01*
X446725Y378171D01*
X446712Y378158D01*
X446694Y378140D01*
X446688Y378134D01*
X446669Y378121D01*
X446639Y378097D01*
X446589Y378066D01*
X446583D01*
X446577Y378060D01*
X446559Y378048D01*
X446534Y378035D01*
X446473Y378005D01*
X446386Y377968D01*
X446380D01*
X446368Y377961D01*
X446343Y377949D01*
X446307Y377937D01*
X446270Y377925D01*
X446220Y377912D01*
X446116Y377888D01*
X446110D01*
X446091Y377882D01*
X446061Y377875D01*
X446018D01*
X445968Y377869D01*
X445907Y377863D01*
X445778Y377857D01*
X445722D01*
X445661Y377863D01*
X445587Y377869D01*
X445495Y377882D01*
X445396Y377900D01*
X445298Y377925D01*
X445199Y377961D01*
X445187Y377968D01*
X445156Y377980D01*
X445113Y378005D01*
X445052Y378041D01*
X444984Y378084D01*
X444910Y378134D01*
X444837Y378195D01*
X444769Y378269D01*
X444763Y378281D01*
X444738Y378306D01*
X444707Y378349D01*
X444671Y378410D01*
X444621Y378484D01*
X444578Y378570D01*
X444535Y378669D01*
X444492Y378779D01*
Y378786D01*
X444486Y378792D01*
Y378810D01*
X444480Y378835D01*
X444461Y378896D01*
X444449Y378982D01*
X444431Y379087D01*
X444412Y379210D01*
X444406Y379339D01*
X444400Y379487D01*
Y379493D01*
Y379505D01*
Y379524D01*
Y379554D01*
X444406Y379591D01*
Y379634D01*
X444412Y379727D01*
X444425Y379843D01*
X444443Y379960D01*
X444468Y380083D01*
X444498Y380206D01*
Y380212D01*
X444505Y380219D01*
X444511Y380237D01*
X444517Y380262D01*
X444541Y380317D01*
X444572Y380397D01*
X444615Y380477D01*
X444664Y380569D01*
X444726Y380661D01*
X444794Y380747D01*
X444800Y380760D01*
X444831Y380784D01*
X444867Y380821D01*
X444923Y380870D01*
X444984Y380926D01*
X445064Y380981D01*
X445150Y381036D01*
X445243Y381086D01*
X445249D01*
X445255Y381092D01*
X445292Y381104D01*
X445341Y381123D01*
X445415Y381147D01*
X445501Y381166D01*
X445599Y381184D01*
X445710Y381196D01*
X445827Y381203D01*
X445876D01*
X445913Y381196D01*
D02*
G37*
G36*
X448453Y381178D02*
X448459D01*
X448478Y381172D01*
X448496Y381166D01*
X448514Y381159D01*
X448521D01*
X448527Y381153D01*
X448539Y381147D01*
X448545Y381141D01*
X448551Y381135D01*
X448557Y381110D01*
Y378251D01*
X449160D01*
X449185Y378238D01*
X449191D01*
X449197Y378232D01*
X449209Y378201D01*
Y378195D01*
X449215Y378189D01*
X449222Y378171D01*
X449228Y378146D01*
Y378140D01*
X449234Y378128D01*
X449240Y378103D01*
Y378072D01*
Y378066D01*
Y378041D01*
X449234Y378017D01*
X449228Y377986D01*
Y377980D01*
X449222Y377968D01*
X449209Y377931D01*
X449203Y377918D01*
X449179Y377906D01*
X449172D01*
X449148Y377900D01*
X447432D01*
X447407Y377906D01*
X447401Y377912D01*
X447383Y377931D01*
Y377937D01*
X447377Y377949D01*
X447364Y377986D01*
Y377992D01*
Y378011D01*
X447358Y378035D01*
Y378072D01*
Y378078D01*
Y378097D01*
X447364Y378146D01*
Y378152D01*
X447370Y378164D01*
X447377Y378183D01*
X447383Y378201D01*
Y378207D01*
X447389Y378214D01*
X447407Y378238D01*
X447413D01*
X447420Y378244D01*
X447444Y378251D01*
X448127D01*
Y380729D01*
X447494Y380354D01*
X447487Y380348D01*
X447469Y380335D01*
X447444Y380323D01*
X447420Y380317D01*
X447401D01*
X447370Y380329D01*
Y380335D01*
X447364Y380342D01*
X447358Y380360D01*
X447352Y380385D01*
Y380391D01*
Y380409D01*
X447346Y380440D01*
Y380483D01*
Y380489D01*
Y380508D01*
Y380557D01*
Y380563D01*
X447352Y380575D01*
X447358Y380606D01*
Y380612D01*
X447364Y380618D01*
X447377Y380637D01*
X447383Y380643D01*
X447389Y380649D01*
X447413Y380667D01*
X448164Y381153D01*
X448170Y381159D01*
X448195D01*
X448201Y381166D01*
X448225Y381172D01*
X448232D01*
X448244Y381178D01*
X448287D01*
X448299Y381184D01*
X448422D01*
X448453Y381178D01*
D02*
G37*
%LPC*%
G36*
X485639Y322064D02*
X485454D01*
X485443D01*
X485431D01*
X485362D01*
X485258D01*
X485131Y322053D01*
X484970Y322041D01*
X484808Y322030D01*
X484451Y321984D01*
X484428D01*
X484370Y321960D01*
X484290Y321937D01*
X484186Y321914D01*
X484059Y321868D01*
X483932Y321822D01*
X483667Y321684D01*
X483656Y321672D01*
X483609Y321649D01*
X483552Y321592D01*
X483483Y321534D01*
X483402Y321453D01*
X483321Y321349D01*
X483240Y321246D01*
X483160Y321119D01*
X483148Y321107D01*
X483137Y321050D01*
X483102Y320981D01*
X483079Y320877D01*
X483044Y320738D01*
X483010Y320588D01*
X482998Y320415D01*
X482987Y320219D01*
Y320127D01*
X482998Y320035D01*
X483010Y319908D01*
X483033Y319770D01*
X483068Y319620D01*
X483114Y319470D01*
X483183Y319332D01*
X483194Y319320D01*
X483217Y319274D01*
X483263Y319205D01*
X483321Y319124D01*
X483402Y319020D01*
X483494Y318928D01*
X483598Y318836D01*
X483713Y318744D01*
X483725Y318732D01*
X483771Y318709D01*
X483851Y318674D01*
X483944Y318617D01*
X484059Y318571D01*
X484186Y318525D01*
X484336Y318467D01*
X484497Y318432D01*
X484520D01*
X484578Y318421D01*
X484670Y318398D01*
X484786Y318375D01*
X484924Y318363D01*
X485085Y318340D01*
X485258Y318329D01*
X485443D01*
X485454D01*
X485466D01*
X485535D01*
X485627D01*
X485754Y318340D01*
X485904Y318352D01*
X486065Y318363D01*
X486400Y318421D01*
X486423D01*
X486480Y318444D01*
X486561Y318467D01*
X486665Y318490D01*
X486792Y318536D01*
X486918Y318594D01*
X487057Y318651D01*
X487184Y318732D01*
X487195Y318744D01*
X487241Y318767D01*
X487299Y318824D01*
X487380Y318882D01*
X487460Y318974D01*
X487541Y319067D01*
X487633Y319182D01*
X487703Y319309D01*
X487714Y319320D01*
X487737Y319378D01*
X487760Y319447D01*
X487795Y319551D01*
X487829Y319678D01*
X487864Y319828D01*
X487876Y320000D01*
X487887Y320185D01*
Y320277D01*
X487876Y320369D01*
X487864Y320496D01*
X487841Y320635D01*
X487795Y320784D01*
X487749Y320934D01*
X487679Y321073D01*
X487668Y321084D01*
X487645Y321130D01*
X487599Y321199D01*
X487541Y321280D01*
X487460Y321373D01*
X487368Y321476D01*
X487264Y321568D01*
X487149Y321661D01*
X487138Y321672D01*
X487091Y321695D01*
X487022Y321730D01*
X486930Y321776D01*
X486815Y321834D01*
X486688Y321880D01*
X486538Y321937D01*
X486377Y321972D01*
X486353D01*
X486296Y321984D01*
X486215Y321995D01*
X486100Y322018D01*
X485961Y322030D01*
X485800Y322053D01*
X485639Y322064D01*
D02*
G37*
G36*
X479921Y338826D02*
X475170D01*
Y337892D01*
X475182Y337788D01*
X475194Y337650D01*
X475205Y337500D01*
X475228Y337327D01*
X475263Y337166D01*
X475309Y337004D01*
X475320Y336981D01*
X475332Y336935D01*
X475378Y336866D01*
X475424Y336774D01*
X475482Y336658D01*
X475562Y336555D01*
X475655Y336439D01*
X475758Y336335D01*
X475770Y336324D01*
X475816Y336289D01*
X475874Y336243D01*
X475966Y336174D01*
X476070Y336116D01*
X476197Y336047D01*
X476346Y335978D01*
X476508Y335920D01*
X476531Y335909D01*
X476589Y335897D01*
X476692Y335874D01*
X476819Y335851D01*
X476981Y335828D01*
X477165Y335805D01*
X477361Y335782D01*
X477592D01*
X477603D01*
X477615D01*
X477672D01*
X477776Y335794D01*
X477891D01*
X478030Y335817D01*
X478191Y335840D01*
X478353Y335863D01*
X478514Y335909D01*
X478537D01*
X478583Y335932D01*
X478664Y335966D01*
X478768Y336001D01*
X478883Y336059D01*
X479010Y336128D01*
X479137Y336209D01*
X479252Y336301D01*
X479264Y336312D01*
X479298Y336347D01*
X479356Y336405D01*
X479425Y336485D01*
X479506Y336578D01*
X479586Y336693D01*
X479667Y336820D01*
X479736Y336970D01*
X479748Y336993D01*
X479771Y337039D01*
X479794Y337131D01*
X479829Y337246D01*
X479863Y337396D01*
X479898Y337569D01*
X479909Y337777D01*
X479921Y338007D01*
Y338826D01*
D02*
G37*
G36*
X346656Y299653D02*
Y297670D01*
X350011D01*
Y297681D01*
X346656Y299653D01*
D02*
G37*
G36*
X347855Y294557D02*
X347671D01*
X347659D01*
X347636D01*
X347601D01*
X347555D01*
X347428D01*
X347267Y294545D01*
X347082D01*
X346898Y294522D01*
X346690Y294511D01*
X346506Y294487D01*
X346483D01*
X346425Y294476D01*
X346344Y294453D01*
X346229Y294430D01*
X346102Y294407D01*
X345976Y294361D01*
X345849Y294326D01*
X345722Y294268D01*
X345710Y294257D01*
X345676Y294234D01*
X345618Y294199D01*
X345561Y294153D01*
X345411Y294038D01*
X345341Y293957D01*
X345284Y293876D01*
Y293865D01*
X345261Y293830D01*
X345249Y293784D01*
X345226Y293715D01*
X345203Y293623D01*
X345180Y293531D01*
X345168Y293415D01*
X345157Y293288D01*
Y293196D01*
X345168Y293127D01*
X345192Y292977D01*
X345238Y292827D01*
Y292816D01*
X345249Y292793D01*
X345272Y292758D01*
X345295Y292712D01*
X345376Y292597D01*
X345480Y292481D01*
X345491Y292470D01*
X345514Y292458D01*
X345537Y292424D01*
X345584Y292389D01*
X345710Y292320D01*
X345860Y292239D01*
X345872D01*
X345895Y292228D01*
X345941Y292204D01*
X345999Y292181D01*
X346079Y292158D01*
X346160Y292135D01*
X346344Y292089D01*
X346356D01*
X346391Y292078D01*
X346448Y292066D01*
X346517Y292055D01*
X346610Y292043D01*
X346713Y292032D01*
X346933Y292008D01*
X346944D01*
X346990D01*
X347048Y291997D01*
X347129D01*
X347232D01*
X347336Y291985D01*
X347590D01*
X347613D01*
X347671D01*
X347751D01*
X347867D01*
X347993Y291997D01*
X348132D01*
X348408Y292020D01*
X348420D01*
X348466Y292032D01*
X348535D01*
X348627Y292043D01*
X348731Y292055D01*
X348835Y292078D01*
X349054Y292124D01*
X349066D01*
X349100Y292135D01*
X349158Y292147D01*
X349216Y292170D01*
X349365Y292216D01*
X349527Y292285D01*
X349538D01*
X349561Y292308D01*
X349596Y292331D01*
X349642Y292354D01*
X349757Y292435D01*
X349861Y292539D01*
X349873Y292550D01*
X349884Y292562D01*
X349930Y292631D01*
X349988Y292735D01*
X350046Y292862D01*
Y292873D01*
X350057Y292896D01*
X350069Y292931D01*
X350080Y292977D01*
X350103Y293104D01*
X350115Y293265D01*
Y293335D01*
X350103Y293404D01*
X350092Y293496D01*
X350069Y293600D01*
X350034Y293715D01*
X349988Y293819D01*
X349919Y293922D01*
X349907Y293934D01*
X349884Y293957D01*
X349838Y294003D01*
X349781Y294061D01*
X349711Y294118D01*
X349619Y294188D01*
X349515Y294257D01*
X349400Y294315D01*
X349388D01*
X349342Y294338D01*
X349273Y294361D01*
X349181Y294395D01*
X349066Y294418D01*
X348927Y294453D01*
X348777Y294487D01*
X348616Y294511D01*
X348593D01*
X348535Y294522D01*
X348454D01*
X348339Y294534D01*
X348189Y294545D01*
X348028D01*
X347855Y294557D01*
D02*
G37*
G36*
X351968Y360479D02*
X347218D01*
Y359546D01*
X347229Y359442D01*
X347241Y359303D01*
X347252Y359154D01*
X347275Y358981D01*
X347310Y358819D01*
X347356Y358658D01*
X347368Y358635D01*
X347379Y358589D01*
X347425Y358519D01*
X347471Y358427D01*
X347529Y358312D01*
X347610Y358208D01*
X347702Y358093D01*
X347806Y357989D01*
X347817Y357978D01*
X347863Y357943D01*
X347921Y357897D01*
X348013Y357828D01*
X348117Y357770D01*
X348244Y357701D01*
X348394Y357632D01*
X348555Y357574D01*
X348578Y357562D01*
X348636Y357551D01*
X348740Y357528D01*
X348867Y357505D01*
X349028Y357482D01*
X349212Y357459D01*
X349408Y357436D01*
X349639D01*
X349651D01*
X349662D01*
X349720D01*
X349823Y357447D01*
X349939D01*
X350077Y357470D01*
X350238Y357493D01*
X350400Y357516D01*
X350561Y357562D01*
X350584D01*
X350630Y357586D01*
X350711Y357620D01*
X350815Y357655D01*
X350930Y357712D01*
X351057Y357782D01*
X351184Y357862D01*
X351299Y357954D01*
X351311Y357966D01*
X351345Y358001D01*
X351403Y358058D01*
X351472Y358139D01*
X351553Y358231D01*
X351634Y358347D01*
X351714Y358473D01*
X351784Y358623D01*
X351795Y358646D01*
X351818Y358692D01*
X351841Y358785D01*
X351876Y358900D01*
X351910Y359050D01*
X351945Y359223D01*
X351957Y359430D01*
X351968Y359661D01*
Y360479D01*
D02*
G37*
G36*
X409151Y367319D02*
X409144D01*
X409120D01*
X409083Y367313D01*
X409034Y367307D01*
X408929Y367282D01*
X408874Y367264D01*
X408825Y367233D01*
X408819Y367227D01*
X408800Y367214D01*
X408782Y367196D01*
X408751Y367165D01*
X408720Y367122D01*
X408689Y367073D01*
X408659Y367018D01*
X408634Y366944D01*
X408628Y366932D01*
X408622Y366901D01*
X408616Y366858D01*
X408609Y366802D01*
Y366790D01*
X408603Y366772D01*
Y366747D01*
X408597Y366679D01*
Y366231D01*
X409698D01*
Y366710D01*
X409692Y366753D01*
X409680Y366845D01*
X409661Y366944D01*
Y366950D01*
X409655Y366968D01*
X409643Y366987D01*
X409630Y367018D01*
X409593Y367085D01*
X409544Y367153D01*
X409538Y367159D01*
X409532Y367165D01*
X409495Y367202D01*
X409440Y367239D01*
X409372Y367276D01*
X409366D01*
X409354Y367282D01*
X409335Y367288D01*
X409304Y367301D01*
X409237Y367313D01*
X409151Y367319D01*
D02*
G37*
G36*
Y341719D02*
X409144D01*
X409120D01*
X409083Y341713D01*
X409034Y341707D01*
X408929Y341682D01*
X408874Y341664D01*
X408825Y341633D01*
X408819Y341627D01*
X408800Y341615D01*
X408782Y341596D01*
X408751Y341565D01*
X408720Y341522D01*
X408689Y341473D01*
X408659Y341418D01*
X408634Y341344D01*
X408628Y341332D01*
X408622Y341301D01*
X408616Y341258D01*
X408609Y341202D01*
Y341190D01*
X408603Y341172D01*
Y341147D01*
X408597Y341079D01*
Y340631D01*
X409698D01*
Y341110D01*
X409692Y341153D01*
X409680Y341246D01*
X409661Y341344D01*
Y341350D01*
X409655Y341369D01*
X409643Y341387D01*
X409630Y341418D01*
X409593Y341485D01*
X409544Y341553D01*
X409538Y341559D01*
X409532Y341565D01*
X409495Y341602D01*
X409440Y341639D01*
X409372Y341676D01*
X409366D01*
X409354Y341682D01*
X409335Y341688D01*
X409304Y341701D01*
X409237Y341713D01*
X409151Y341719D01*
D02*
G37*
G36*
X363169Y286954D02*
X363046D01*
X363039D01*
X363033D01*
X363003D01*
X362947Y286948D01*
X362886D01*
X362812Y286936D01*
X362726Y286923D01*
X362640Y286911D01*
X362554Y286887D01*
X362541D01*
X362517Y286874D01*
X362474Y286856D01*
X362418Y286837D01*
X362357Y286807D01*
X362289Y286770D01*
X362222Y286726D01*
X362160Y286677D01*
X362154Y286671D01*
X362135Y286653D01*
X362105Y286622D01*
X362068Y286579D01*
X362025Y286530D01*
X361982Y286468D01*
X361939Y286401D01*
X361902Y286321D01*
X361896Y286308D01*
X361883Y286284D01*
X361871Y286234D01*
X361853Y286173D01*
X361834Y286093D01*
X361816Y286001D01*
X361809Y285890D01*
X361803Y285767D01*
Y285331D01*
X364337D01*
Y285829D01*
X364331Y285884D01*
X364325Y285958D01*
X364319Y286038D01*
X364306Y286130D01*
X364288Y286216D01*
X364263Y286302D01*
X364257Y286315D01*
X364251Y286339D01*
X364227Y286376D01*
X364202Y286425D01*
X364171Y286487D01*
X364128Y286542D01*
X364079Y286603D01*
X364023Y286659D01*
X364017Y286665D01*
X363993Y286684D01*
X363962Y286708D01*
X363913Y286745D01*
X363858Y286776D01*
X363790Y286813D01*
X363710Y286849D01*
X363624Y286880D01*
X363612Y286887D01*
X363581Y286893D01*
X363525Y286905D01*
X363458Y286917D01*
X363372Y286929D01*
X363273Y286942D01*
X363169Y286954D01*
D02*
G37*
%LPD*%
D10*
X462598Y359252D02*
G03*
X462598Y359252I-15748J0D01*
G01*
X453506Y373524D02*
G03*
X440195Y373524I-6655J-14273D01*
G01*
X346457Y319882D02*
G03*
X346457Y319882I-15748J0D01*
G01*
X337364Y334154D02*
G03*
X324053Y334154I-6655J-14273D01*
G01*
X464173Y275984D02*
Y288976D01*
X413779Y275984D02*
Y288976D01*
X464173Y313386D02*
Y326378D01*
X413779Y313386D02*
Y326378D01*
Y275984D02*
X464173D01*
X413779Y326378D02*
X464173D01*
X440195Y373524D02*
X453506D01*
X324053Y334154D02*
X337364D01*
X383071Y287402D02*
X383858D01*
X379921D02*
X380315D01*
X383071Y285827D02*
Y289370D01*
X380315Y287402D02*
X383071Y289370D01*
X380315Y287402D02*
X383071Y285827D01*
X380315Y285433D02*
Y289370D01*
X367126Y288402D02*
Y293902D01*
X396390D01*
X367126Y288402D02*
X367890D01*
Y293902D01*
Y280902D02*
Y286402D01*
X367126D02*
X367890D01*
X396390Y292028D02*
Y293902D01*
X367126Y280902D02*
Y286402D01*
X396390Y280902D02*
Y282776D01*
X367126Y280902D02*
X396390D01*
D11*
X361390Y306457D02*
Y372457D01*
Y306457D02*
X401890D01*
Y372457D01*
X361890D02*
X401890D01*
D12*
X420079Y349213D02*
X420866D01*
Y335827D02*
Y349213D01*
X420079Y335827D02*
X420866D01*
X413779Y349213D02*
X414567D01*
X413779Y335827D02*
Y349213D01*
Y335827D02*
X414567D01*
X413779Y342520D02*
X420866D01*
X420079Y374803D02*
X420866D01*
Y361417D02*
Y374803D01*
X420079Y361417D02*
X420866D01*
X413779Y374803D02*
X414567D01*
X413779Y361417D02*
Y374803D01*
Y361417D02*
X414567D01*
X413779Y368110D02*
X420866D01*
M02*
