G04*
G04 #@! TF.GenerationSoftware,Altium Limited,Altium Designer,21.1.1 (26)*
G04*
G04 Layer_Color=8388736*
%FSLAX25Y25*%
%MOIN*%
G70*
G04*
G04 #@! TF.SameCoordinates,9BCB9740-BAEC-44A0-B6CA-C752D964FD41*
G04*
G04*
G04 #@! TF.FilePolarity,Negative*
G04*
G01*
G75*
%ADD18R,0.12217X0.22060*%
%ADD19R,0.33792X0.42768*%
G04:AMPARAMS|DCode=20|XSize=48mil|YSize=129.06mil|CornerRadius=14mil|HoleSize=0mil|Usage=FLASHONLY|Rotation=0.000|XOffset=0mil|YOffset=0mil|HoleType=Round|Shape=RoundedRectangle|*
%AMROUNDEDRECTD20*
21,1,0.04800,0.10106,0,0,0.0*
21,1,0.02000,0.12906,0,0,0.0*
1,1,0.02800,0.01000,-0.05053*
1,1,0.02800,-0.01000,-0.05053*
1,1,0.02800,-0.01000,0.05053*
1,1,0.02800,0.01000,0.05053*
%
%ADD20ROUNDEDRECTD20*%
%ADD21R,0.06115X0.05328*%
%ADD22R,0.10642X0.07493*%
G04:AMPARAMS|DCode=23|XSize=8mil|YSize=8mil|CornerRadius=0mil|HoleSize=0mil|Usage=FLASHONLY|Rotation=0.000|XOffset=0mil|YOffset=0mil|HoleType=Round|Shape=RoundedRectangle|*
%AMROUNDEDRECTD23*
21,1,0.00800,0.00800,0,0,0.0*
21,1,0.00800,0.00800,0,0,0.0*
1,1,0.00000,0.00400,-0.00400*
1,1,0.00000,-0.00400,-0.00400*
1,1,0.00000,-0.00400,0.00400*
1,1,0.00000,0.00400,0.00400*
%
%ADD23ROUNDEDRECTD23*%
G04:AMPARAMS|DCode=24|XSize=165.48mil|YSize=165.48mil|CornerRadius=43.37mil|HoleSize=0mil|Usage=FLASHONLY|Rotation=0.000|XOffset=0mil|YOffset=0mil|HoleType=Round|Shape=RoundedRectangle|*
%AMROUNDEDRECTD24*
21,1,0.16548,0.07874,0,0,0.0*
21,1,0.07874,0.16548,0,0,0.0*
1,1,0.08674,0.03937,-0.03937*
1,1,0.08674,-0.03937,-0.03937*
1,1,0.08674,-0.03937,0.03937*
1,1,0.08674,0.03937,0.03937*
%
%ADD24ROUNDEDRECTD24*%
%ADD25O,0.09068X0.06312*%
D18*
X458071Y301181D02*
D03*
X419882D02*
D03*
D19*
X380890Y349957D02*
D03*
D20*
X394890Y313957D02*
D03*
X387890D02*
D03*
X381390D02*
D03*
X374890D02*
D03*
X367890D02*
D03*
D21*
X417323Y345965D02*
D03*
Y339075D02*
D03*
Y371555D02*
D03*
Y364665D02*
D03*
D22*
X374016Y287402D02*
D03*
X389764D02*
D03*
D23*
X484252Y275590D02*
D03*
Y381890D02*
D03*
X311024D02*
D03*
Y275590D02*
D03*
D24*
X478346Y364173D02*
D03*
X330709Y368110D02*
D03*
X472441Y303150D02*
D03*
X330709Y287402D02*
D03*
D25*
X446850Y352362D02*
D03*
Y366142D02*
D03*
X330709Y312992D02*
D03*
Y326772D02*
D03*
M02*
